<mxfile host="Electron" agent="Mozilla/5.0 (Windows NT 10.0; Win64; x64) AppleWebKit/537.36 (KHTML, like Gecko) draw.io/25.0.2 Chrome/128.0.6613.186 Electron/32.2.5 Safari/537.36" border="50" scale="3" compressed="false" locked="false" version="25.0.2">
  <diagram name="Blank" id="YmL12bMKpDGza6XwsDPr">
    <mxGraphModel dx="1272" dy="412" grid="0" gridSize="10" guides="1" tooltips="1" connect="1" arrows="1" fold="1" page="0" pageScale="1" pageWidth="827" pageHeight="1169" background="none" math="1" shadow="0">
      <root>
        <mxCell id="X5NqExCQtvZxIxQ7pmgY-0" />
        <mxCell id="1" parent="X5NqExCQtvZxIxQ7pmgY-0" />
        <mxCell id="ChmT9JW-dPrSVRXd18jT-2" value="" style="shape=image;verticalLabelPosition=bottom;labelBackgroundColor=default;verticalAlign=top;aspect=fixed;imageAspect=0;image=data:image/png,iVBORw0KGgoAAAANSUhEUgAABRkAAANUCAYAAAA3kCoOAAAAAXNSR0IArs4c6QAAAARnQU1BAACxjwv8YQUAAAAJcEhZcwAAEnQAABJ0Ad5mH3gAAP+lSURBVHhe7P1/dNT1nff/P6i2ugKT1MYYQUxipl1BKkQQNvHXB2OumgP99ACx2YUv6+5pAuZa2G17bTU1hMMhiY26V3evhTbyo2c/lguuzRLgdBdO6GeMfLSWLAqNuAiuTkwQMTGmdDKAG3/y/WPeM/N+v2YmmTD5Ncn9ds6c47xer3m/3/OeMDl5+Hy9XpMyMzMvCwAAAAAAAACu0JfMBgAAAAAAAAAYDEJGAAAAAAAAAAkhZAQAAAAAAACQEEJGAAAAAAAAAAkhZAQAAAAAAACQkIFDxsJdWtfcrqpmj3LNPiQkd1u7qprbta6m1OwCMBas6VXHoV49ZbYDAAAAAACHgUPGkWaFmqvKzQ7ENEHuWUbNCcLuJDBuPqeCS3p9qU/+f5+ix80+AAAAAADgMHDI6FmpzQXZqi4oVKvZh4S0rs5WdUG2Nq/fYXYBGFUf6/kf9cj1Tobu2HiV2QkAAAAAAAwDh4wAMMGUbfTLrVQ1/PdrzC4AAAAAABDFpMzMzMtmo2RNwa3IV2rwee8RbV+2Ul2OQXVa1VwiNWbLM/2EyvJcVrtXB6JUPuZua9eSnPBzX0ttqIrP7DN1NGZrZ334ecT4tgZVr64IPc2oOaGyWSe1fdlZFTaXKMtqt5/TLqPGfv3Rx8UzJh7mtZvvTQre/9ny1s1R18O28bbPwTyOKeK45R5VFbvDz417FuhP1zHznDE+z3jux0BjBv6cAj9jwfZIkddm3peo58zr1oGCBmXsq9T8FKsjys+4ef0R9yxOiZzTvP6A6Pcl/JkH+lNjvnfnPYvrnOZ3guPeR7+esMjPaSCPbntGD6e16sllu9UcbCxcoV9V5Kqr8UdaY/vZfnTbM3rY9plfbNmq76z3hhskSW49uW+NFgbvvS7oaN0mPeFxjpI+1vOHupT+7zdTxQgAAAAAQJxiVzKGpkln60Cb2emUVdyusvQmVRdkq7qgVsd63Vqyb5cybGMCwY9XB6xjVhdk6+X0dSoqDPQHpw5X1x2RzwpLguOqC5xhWUbNCc1utfXXHZEvp0RV2+rCgyQpJV9lzUXqqbPGNXqVmldprF1YqqJ97SrLk44FxxVka49KQtcm6/oD4Uz4nMqrvKJNW8z3GptL8yvadU93rXVdDepIyVeZ9T7N4wx0zwIBYrC/QR3R7pl1ziVqsMZF+zyH+J6l5KvMCqsjP6cK7bRev73Fb4VV9vdpD67qtKq5XUvSjmi7cc7I9+nWkuZKuU9Fv7cKBW/O97i9uyiBtS8HPmdc96xwl9ZZAWLoPgz4sxRb3OesyJcc5+zWPaFrH8znNLQCAeMZ7Sn4kQqsR1P6Cj1p+1mUCrS1eY0W9hwKjXmyRVpYscEYJ2lNn9y6Tid/Q8AIAAAAAEC8YoeMg9F7RNtD1V071HrKL6Wk66bQgFJlpElqO+4IGlpXz1FTRBXRwLrWz3FW6HlW6uU2STnzIjab6Gi0naP+uDokpU63hSflJZqf4texOue1dK0vDD8v3KV7cqSORltQ4lmpPS1+peaVRJxzSLU12CrKKnSyTVLaDEeAO7A6Fea55GvZbHuPFdrZ6JVyihzBoKwqtnC1XpTPcxjumaPqsr5Bx3qlrFwzGOxfRk2RsuTVAXtloHXOaO+zo9G+Hmbkvb0p3SX1nlSr4z0aP3uD1O8547xnuQ/nK7X3iPaYlYZXIs5zyp2uVPnlfdF2Ts9Kbb6Cqs6h5dYtaZLaTutZW+uzq50VigU1d8utM9qzOlQTqeb1u3W0d6oWPlwQHijpqTk+qfc6HQ4PBQAAAAAAAxiSkNF36rAxjdq0Q109kqJWzg2Nzm6/2STJq5MDBEK5ue6IIMmUcf9spUY5Vte5bknpyjAroYZQR+sQhDjl85RlBkSS5O2WTy6l2WZQS5LvnHNc1/o5jkq0ob9n5jjr52VQYWqpcme5pN5udRo9XS+ejPI+/eoxZtO2rs5WtS2g7Oz2B6osjarcK9f/OeO7Z3WanRPPv7n4xHfO8M/K/IoTEWHt6PLq3R5JOQ+peZszLAxzq2DW1IggMvTatBsVfuXnmvE1Sb+/WtsdYwEAAAAAQH+GJGSMR+tqaxplTomqmttV1dweOW02boFpscHjVDW3O9fNi5tVYdlztt/A5qZ0lzXV1XlOx/qGY1jG9PTQNGjH9TvW14vXGL9n/VyXo4I1Dl3r56i60WtN57auf5hCco3SPYv7nJ6V2lzQoA7Hz5EnoiJ1NDy7+kd6suVCIGhsfkbNzc/oVzX268/U11KsINLqDz7s6zgCAAAAAIArN2Iho0IVcdnWOn9SqrnuW1ysDSZ6bevuhdaBG6z4KuYCVZLmGnPBx5VN+R5Jgao0v2NtQftjcNN/k/eemRWacakvDF33gbaRqMYd2Xs2uHOG112sbvRa4eTYCBqb12+y1lrcqqO90pS8Nbag8Yx+3yupLbweo+Nh31gGAAAAAABckRENGcN2qGmZFTSmmxVTZ+Xrr+qsfJ6yJHV4zJ2ur0xgSuxs5fYzBTRi6uhA7q/UL/fu1d69f6dHzL7hMNA9izEt+koNyz1ziD4luP9jWmtHRlmXM9aU4MFqXW0FjdEC1iH4zPt/f0Fe9UT5d5P7cDxVqdaUcpv4zhlFfaEVNEa+Nu5jXsE9K7jfrSlmo4NXTyyzgsb0zFBb5LToWK7S2d9L+tpnKjO7AAAAAABATCMUMtZplbmuXeEiuVMkX7exSF0wRImyOYgUDMycm4IEdse9kunSUtf6JmsKqLMiK6PGE157rr5Bx3ojx8Ryb94fa7IkKVvf/EuzdzgMcM+sjXGyiodmPb3huGd2udtKlCWvXjY3NgmuC/hw9ErCwHW5tcReaVi4Sw/nueRraRjk7salKtpnXnsg/Iw2JXtIPvO47lkwTA1vZJNRc0JL0vzG7tLWz8SsRda/u1IV7avU/BTHoDjPGTiHuat2bq5bUre6zArLAT6noIHu2dvdF6QUtwqs91lQs0FP5E01RhVo674VzvCwcIFuT5Eudp8JNT27p1UXU3L1RMx1G8MeP5EqpXykRQMPBQAAAAAAlkmZmZmXzUZZoUKs4M7XUmvtkBuYupwaeh4QeG23Dtg2C1HhLq0z1gB07CjsYE2JtrU4xpZ7HGvG+VpqtUfrHOeMeg0xrjdaABN+j2G529q1xFzDra3BthOz5f5K/fKv79Rktetfl/+tnnN0Rr63MG/4eq375TPuUe62di1JO6Lt9h2UpajHNe9v1M+013Ys676ar4tuaO7ZgNdkMj57xz2TBnEfFLE7dqTIY0V7j9JAn/lgzjnwPZM5pq1B1XtmRPl5cV6/r6VWm8+VqKpYxj27gnMq0c9p4HsmSY9us62b2NuqJ5d9oO82PyQ1/khrgu+zcIV+VZHrqHD02vtDCrS1+SGZBb2RYz/W84e6lP7vN+uOjVfZOwAAAAAAQAwxQ0ZgJEQPgzFoMUJpXJmyjR+q8k+kI8/coBUs2AgAAAAAwIBGaLo0ACSP7Rtd8uoj5a++xNqMAAAAAADEgZARACJcowefSZM/pUeVP//Y7AQAAAAAAAZCRgCIpnmy7tifKt3ap6fMPgAAAAAA4MCajAAAAAAAAAASQiUjAAAAAAAAgIQQMgIAAAAAAABISNSQMTs7W9dee63ZDAAAAAAAAAARooaMAAAAAAAAABAvQkYAAAAAAAAACSFkBAAAAAAAAJAQQsaxYNoWeZZu0RqzfTQV7tK65nZVhR4nVFRojCn3BPr27VKG0TUYaxY0ybOg1GxOQotU+2CTPEub5Hlwkx4wuwEAAAAAAMYpQsbRNnWT9i/M0cXTe7XV7Bsthbu0riJfqW0Nqi7Ith5z1OQxBw6Nradf1cXpy7X/tkVmV1JZs+AxLdCr+sn+IhU+v0EvmAMAAAAAAADGKULGUVWq+gfv0pRze7X0zcNm56jJuH+2UuXXsT0VZpdTfWEggFy2Ul1m32Bc2KClR9s0ZeZjqp9mdiaLUs2dLnlPES4CAAAAAICJh5BxFD1w20Nyq02Nr+wwu8aAbnUNU+ViVO+vVeM5yb1wBKaNT9uk26ualHWn2ZGAqbckNGUcAAAAAAAgmU3KzMy8bDZmZ2ers7NTfX19ZteY4VrZpJm32hre2auju8ywrlRZVct1Y+j5JXX8olgfvB94ds23GjV3wWR9cLBIHb8Lv0papBvXPaYsvarXNm/Qx9M26fbvzVLPL4r1X4ts5/VZ/faXStKdW7RwcU74eYxrq1+6XBmnnx6girFOq5pLlBV67tWBgkK12ocEpzfHHBM4hhqz5Zl+QmV5rhjjAjJqTqgsrztqn2StxVjsDj9va1D16mhVj6Uq2lep+Slmu+RrqdXm9cY9mbpJ+x+8SxrwniQu+PNz8ZWn9cavh+Bc1rV3HS1SufXzBQAAAAAAMFEkZSXjNd9q1PWni3S02nr84lVdvHW5Fq60bx5iBYzv7A2Pqz6kP1q+SddYIz7+9SF9IOnGmcamI9MWKS1VuvjWYVuAOFlZ32vSjJ6nrWPt1Qepd2mu45yB8Grh4hx9cNB2fafnRlbNTZsrty7p1Ll+Aq5yj6qaS5TlWBvxuGZvqwsNyag5oaqKfPkag/3ZOtDm1pIoG7VkFberLL3JGlerY71uLQlu2hLcxKW53Qoh3Vpi3/jFds7QNOmCWh3rtZ3AwQoYdUTbreva3uKXJHU0ZkcGjJJ04bBOXZCm3Lxo2DdN8e8q0muvXNKUBY8ZPzcAAAAAAAAYrKQMGT/+dbGz8vD9DTr7jqRb5ypYo6dpt2iypA9O28OsHepwVB7u0HnzdZKu+eYsTVGbzpoVbu/stVW9Wa+9/pZQaKlpmzTjVkVWRv5urVEpKa25OUe6cErNF5ztYaUqKnRHqRKs0M7Q8zoV5rnka6nVzvrwiNbVDeqQS/MftgWDktR7RNtDr92h1lN+KSVdN8keHAbDQK8OhILN7BiViv0oXCR3itThCa/X2LW+SR2SsnKN6wo5rOb3LklTr9fXza44XPOtRi2saorxaNSNxnqPH/+6WEcPtkm3LtfCdeHwGQAAAAAAAIOTlCFjNB/3XHI2vP+uLkm6cXH/a+/5T7dJytH1oTGLlPqNydI7rylQdxfmDCwjBcPJ80agGGmRbnFJ8r8be5OQYEjX2k+4Vz5PWZJ858zrqtDJNklpMxzrBPpOHU5sg5bBcKfbpm87+bq9ZlPIC/4uSRm6ZarZM7CPf11sq1o1H+Fp8g6/WxuohE29S3OrtjjC5sF4YHrgs38t2jkAAAAAAADGuSQNGUuVZVSqzV0w2RizQx3VT6vDFwgaY1Wz6Xd7A2OCU6anLVJa6iV1HDaDu4FdkzZZ8p2PXKPxSrjTlSq/emLncZZ+xgSrFEdDfYOO9UpZhdZ0bEkZNUXKkl/eFwd/b0dGjmZ8a5HZ2K8HbmuUZ2mT1ulnKty/VlvNAQAAAAAAABNAEoaM1lqLvlf1mq1S7bVXjEpGSdJhfbDZtm6jJivre2bQeFi+ty6Fpkxf881ZmuI7Jd8VVKR93HNJSr1+aKbdervlk0tptv1VBq23W51m24hxKy1FUkq+ykJrPUrH6uaoaZh2rR7sdGnJ2qTne3dpivXzNNhNYF54s1iF+4u0WX8lz9IR2BkbAAAAAABgDEq+kPHOubpR0ge/jbKrc3/e36A3rKDxj+xziEMbwOTo+jsDU6WdG77E7+MPu4yp17Ec1rt+Sa5bYm9w4jkrX7/rF0qqP64OueS+39y4pE6zc0Z4erQhULVorOtYMHDA+IArQ1KX3o25VmVsg50ufc23GgO7gL+zV0ej7RI+CC+cO6WLytHcaEEmAAAAAADAOJd8IWPXeV00doR2rYwyXfrOLbrdmPoaWDPxkv4rInkLbOJy4+LHlJUaZcOXeAWnXi82qubu3BKxLuTW99qkqbNUEHPtwQp5WvxSTonW1dhDxDqtCu30HBiTmrfOsZN07rYSZcmrl6Pt4DxCus51S0pXhrHDdf8WqeDmydKF83rb7BpiwZ+Zi688raO7Ru8+AQAAAAAAjAfJFzK+v0FvBHcEtqbCzuh5OnK69O/Wyqu/MtZt7NLpKBVtCm0Ao6gbvsQvMD379DuTlfU921Tdma9F7C6t91+TV5M1a3rsNQC71s9RdaNXqXmVqrKmHFc1z9NJ207PXevnaHuLNL8i2N+uJWlHtL2gUK2Oow2d3G3Bc1VqfoqknJLQuVeVW4PqC3WgzeW4rtAjFJIapi7SrKmS99SG2BviDAXbLuCDnR4NAAAAAACASJMyMzMvm43Z2dnq7OxUX1+f2TV+3blFCxfn6IODRZGB4DB54LZG/Xim9Mrzxaq8gunBY1nutnYtyfFHrsFY7lFVsVu+llptNiot1yxoUrHrVf3k+WEOGYfD1E3a/+Bd6jpapPIoITYAAAAAAMB4lnyVjMPENTNH8r2qzhEKGCXphTcPyavJWrBwU+y1GZNSqTLSJPWeVKu5BqO3Wz6jSZI0bYuKp49AFeNwufDuqK1/CQAAAAAAMNoIGa0NQGbeekkdexPb/GPwdqj8+Vd1cepd+vECc/OWZLZDXT2SUmYr17EmY6mKyvOVKr+8L9qqGKdu0v6FObp4+ukkrgJs0/kLknvWeAuMAQAAAAAABjahp0u7VjZp5q2SdEkdv4i+VuOImLZFnoVS4/612mr2JbHAlGmjsfeIti9b6aj6W7OgScXaq8JXkn0DlkWqffAxLZgq6UKSTvsGAAAAAAC4AhM6ZAQAAAAAAACQOKZLAwAAAAAAAEhIUoWM2dnZuvbaa81mAAAAAAAAAKMoqUJGAAAAAAAAAGMPISMAAAAAAACAhBAyAgAAAAAAAEgIIeNQmrZJt1c1aWHwsW6TrjHHIEmUqmhfu6q21ZkdwMgrX6vm5g16stDsGEll+vz7Hfq0qMzZPG23Pt34uj6f5mwGAAAAAEwshIxD6f0NeqO6SEeri3T6HbPzyrhWElYiuRTUbFBz81o9anYgqX2xqlKfpnp1VdN2Z8f7K3RVm0ufrn5eXzh7AAAAAAATCCEjxok6rWpuV1U/j3U1peaLMJrK16q5+ZkxUKE39AJB6zP9PJIrhL1c9Lo+yfHry9sejPpL40s7a/Vln1uffH+3LpudAAAAAIAJIdrfi0ASqtDOgmxVW4/tLX5JXh2wtW1ev8N8EUbRo7mZUlurjvZO1e33u83upNa8fpMKCn5kPQ7JK+liy1Zb2xY9a75ozHpKny906aqjm3XV+2Zf0HZd9S9HdFVqvj4zp1MDAAAAACaESZmZmRGFJ9nZ2ers7FRfX5/ZNarG6nVF41rZpJnXv6rXNm/Qx2anJN25RQsX54Sfv7NXR3dZIdi0Tbr9e3dpSrjXydfPcfuRu61dS2ynVFuDqldX2Bos5R5VFdtCnxjjMmpOqCzPFXrua6mNCPLiGROoQixRVui5X8fq5qjJ4xgUcaxY16XQ2G4dKChUq9kpSYW7tK4iX6mhBq8xtlRF+yo1v8d+jvB1Ot+HNTYl+NrI68/d1q4lalD1nhmO83Y0ZmtnfXjc6HDryX1rtDB0/WEXW7bqO+u91rMCbW1+SOGfjDPaEwrLzD6TfaxC49X4I/3L9A16YpZXTy7brWbHa6yRNRv0RN7U0HPnNQWZ5zfPpyjv84KO1m3SE8bPmXk+tR1SwerIK3t02zN62PbvKfp1KXRtGTH74zhn+Vo1F1/vuN7wa8z3OsC9KFyhX1W49UbdJr37sO099LZG/QwuF72ujxd26ysbo1cx2n2xqkOf5Hj7GXuvKv/p+7rT1a5/Xf63es7sBgAAAAAkreh/B2JYXfOtRi1cnKGOXwTWbzxavVcf3LpcC1da03nNtR19r+o16/nR6iIdvYKAMaPmhGa3hqv6quuOyJdTErGxSe62dlUVu9XRaBvbOk+ryu2jApuilOVJx+rC4/aoREW2aa+529qtoC98TuVVGtOWreCurSF8voImpZXvUoZtVCA0dJ5ve3eRcV3xyag5oaqKfPls7/FAm1tLmk84rt8pGDAGqiPDAWOdVjVbYWSoilKaXxHlWDklqqpI18u2asus4ijjRpQVvKlVT1pVdk+2XJAkeRt/FA7FClfoV1ZQFqzG29OWqYdD036btcbx+jPaE6rai1K5Vz5Tbp1Ra73U/KJXF1PcKoi4D249ue8ZPZEnHa0LH+sf9ZBzenX5WjU3PyR32yHb+U4rd1uBbVCBtjav0cKe8JgnW6SFFc6p2oHgznm+J7vv1lbj5ywQMDrfY1P6iiuY9h18j+dtxzokb85Dat63QvZ3YBcMGAPVkUaA2O/nFDRVCyueUVF3cNwheVNy9YTjnklSmb74Y5fUdjyuXxZfOuWV5NYX88wey/336Y9dkpStb/6l2QkAAAAASGbx/N2IIVWqmxZM1sVXfqYPQlMPd6jjYJt060O6cZh2aO1aP8dZMedZqZfbJOXMU26wrXCX7smJUl1XX+h8Xl6i+SmR1Xpd6wvDz0PHslUHelZqT4tfqXkltnPOUKqkjlZ7RWKFdi5bqS5by03pLqn3pFod5zPeU1zqVJjnkq+l1vHa1tUN6pBL8x+Otpt0qYr2BQNGZ2VkRk1RoN1WUdm1frOO9UY7ll/H6sKv73rxpHxyKS12+V8U/5c27j6ogwdjPHZv1P9lvqQ/hQt0e4rk9YQr2JrX/1ZeSe7ccOD06MO5mtLbqn+0VeI9u/qQvMpUUc2g3oAUmip9OhCOeV7RG9GmTJc/pIUpkdWGzeu32J679WRhZmTln5q1xva8oOZuuXVGe2xtzet362jvVC18OPw+v54+Ver1qtlxvk1a4/g5c+uWNIWv3/Ls6siqyAGF3qM9hG3WmsYzUkquvhstRC9fGwoYzcrIQX1ObYdsr29Wa5uktBudwea0RfoiVbr61OP21tiOH9fVki6nx5gy/eJL+k+/JLXrP/7J7AQAAAAAJDNCxpF251zdqEvq+Y/Dzvau87qoyfoje/neMOvs9jueZ9w/W6ny6uQAwV1urjsi8DPFOlbXuW5J6coIVnx5zsonKau4vd+qxM5uv5SSr7J9zgrHQSufF5jufM6csl2hk22S0mYYx59hTYWODBilUuXOClR5Odt3qKsnyrEGuGfx+f+0ccViLV4c47Fio/4/8yX9cV8fc1r+xe4z1n8VKDdHunjqFWMq7Rn9vleakp7paB1Y4Hje1uDRvHq3R5oya4Ej4Ho0NzMi8IsQDElDx4rGrYJZUyNCweB57cHa290XpJRcPdFPFWHodTkPqTmi8m9wHs3NlHRe75rvsf60vJIyphvB4P1r1VycGTVgHOzn1P89s9yUrs/l16ROsyMWryb5pM9jJue/Ue1fLtdypkoDAAAAwLhDyDjCrrkhQ9JkZX2vSQurbI/+1mAcEpG7LzvWNwxVC3ar/zyhVBlpknrOOioNTTeluyS5tcTc5dm+1qNkbdhSq2O9gaAxMC5yCnHX+jmqbvQGgsbgsYyp3vHzq8fMZ4JS0nWT/XlOfmCtxaj3xa20FGsatPE+HWtfjmX1h3S0V3IXhkO1QNXfBb3xYnCq9I3KkDQlb42xQ3L0dRwHVD5Tbl3Q722fwbOtZuWeVS3Y80HEGoEO7us1xThWpEx9LcUKBY1dnu1rKiq4YYtVRfhEcFyUIPHZ1da0cNsxf2VWCsar97zeNtsszmBwqhbmBZ53nYvyhof6cwIAAAAAYBAIGUfYxx92SbpkW4/R+ej4nfmKoWCtJ9h7RNttuy0HdmAOC1QLGiFbhBhVeoZAlaRzd+fww9zUZYealoXXbfTJFX1Nw/pC2xqKVrh3xUFjDGaY2NYQuKaoVZRe9fRaYyLeY7aqjSnfQ2OIp0sHAzhbqBZYk9A29dfzgboidke2PaJsitKfQPVeYE3AUBBWHAjPwlO0I6sMo/Ke10VN1df6zfcClXxyrNloe5ibndRvsa1nGLtiMbyD9FYd7Q2Ee1ccNMYQriaVtVFN4Jrcxc9ErBM51J8TAAAAAACDQcg40gY5LfrjnktS6vW6xuwYDGuKcIen/9ArMJXZrdlmeGEIhJGzlWuGgDYR06Lj5VmpzVbQGHPGpaTW1VbQOEDYGaH+uDrkkvt+++YzklSn2TmS79ThyHvkWanNwSpKR6gZX+A6tIZ2unRorUJHIGWuLRh9um0szefOS7pet0T97K0pvVGCsECgNzO0QUlg6nK0DWFsrGDNvn5kpDgDyyieXW1dV7+v9eqJZVbQGOc9CgpUcEZ5j1a1Z6ia1ObZ1YFzuYudm9YM9nOKS2e3rpJLl/v/Pw82bl1Ola6KWSosPfI/92rv3r36OzZ+AQAAAIBxhZBxpL2/QWffkW5c3BjXJi+ByscczfjWIrMrft7uwLqHueGALLDzs3O6tOobrGnLRhVhucexXmLX+qbAJikVnvAGLpIyajzh19U3BDY/McZEKPcYu00H13O0T2kuVdE+8ziBUHCgaduRKuRp8Ss1b52xE3ZgY5eXQ7tGG+oLA5WfOSWO623dY1U5DnVF5QjpPxAM8uoJzxkp56H4KvWs6kL7hioh/YVnrWckZSrX+lkLbEAzVQsrnDsjF9SstYVrzfoXa9qy89oKtNVWffjsnlZdjLp7sp1bT+4zd2EOhKLOadsF2mqu2WitDemsPIxD/aHA5jPl9uMVaGtxptT22xgbyXj1xLJDUe7NID+neLx/WF/ySZ/NesrsiW7ePH0maVL3drPH8oi+mRX4r+z7KnWv2Q0AAAAASFqTMjMzL5uN2dnZ6uzsVF9fn9k1qsbqdQVd861GzV0w2WyWJF185Wm98evwZi9Rx/pe1WubN+hjZ2vk2Bjj+lXucayH6Gup1R6tU1led8SGJrnbjDUF2xpUbds9OaDU2hAl3OJrqdVmI6SLOJYij5dRc8IIPKNtsmJN+ba1RDtfUOCYke/N2W87Z+8RbXdMb7beX4/zWkPvx/EeIq9Ncu7SnbutXUvSjHMU7tK6inz5zN28R9ij2yLXJpSs6cX2KbaFK/Srilxj7dDI3Z+lwA7IwSnQAWe0p2CLtO0ZPZzWqifNKcpSIFxrfkhux3ndenKfc03BqJuexDifc6MX6/iONsnb+CPb7tGRY6KeL8q9cB7HLnDMjGjHkeJ7j+Vr1Vx8vfNeh67B+AyiXJvjc7L6u4zrfTTGZ3O56HV9vLBbX9n44ID/V+qLVR365GtHdM0/rNAks9Nyb8Uv9f27Jktq17+yAQwAAAAAjBuEjMAEFggYowSFVmgXEXZhAnpKn20s0WdtDbp25+NmZ9i03fp0db4m/VuWrj5udtrcX6lf/vWdmtzxr1r+P4gYAQAAAGC8GKgwBcC4Ze3g3OtVs1mJ6D2vi0YTJqrHddXRwFIBn80z+4LK9Pl38/W574iu6i9glPTI/32nJuuSfvevBIwAAAAAMJ4QMgITllcf/EGOjUfS09OVmjpXT5YHpuEG105MTU11vhQTyqSmO/SVNumzb7+uz6OsJfvFqkp9murVVwaYJr13717939f/Tv+w/M9V+6I5AgAAAACQzJguDUxAWVlZ+va3vy1JujHvFuXdaAz46F09+e3NarONe/311/XiiyRDE1eZPv9+pb74z1p9ucm2scu03fp09Wx9adsduup9+3gAAAAAwERCJSMwAX3pS1+S2+2W2+3Wy79sVkHBj1RUVKmTJ7+ikye/omd+9raajXF/9Ed/ZB4GE8p2XfUPWc6AUZLeX6EvbyRgBAAAAICJ7qrU1NSNZuNXv/pVXbx4UZ999pnZNarG6nUByeYPf/iDrr76avX29uo///M/1d3drc8//1yTJk2S3+/XoUOH9Omnn0YdBwAAAAAAYGK6NAAAAAAAAICEMF0aAAAAAAAAQEIIGQEAAAAAAAAkhJARAAAAAAAAQEIIGQEAAAAAAAAkhJBxONzwQ+1Y85x2r9mklWafYeXi57R7je2x+E/NIYP0lD7b2KHP5pntGJxSFe1rV9W2OrNjeM17Xn0bn9cXZnui5j2vvo0d6uNnAwAAAAAADANCxlG0cvFzWnzzR3pt3yNasdV6HPxnc9gglOnz75foM98RXXXc7ENSON6gL/vc+uT7uxWx7fuVmrZbn37brav/LUvXbszS1fxsAAAAAACAITYpMzMzIsvIzs5WZ2en+vr6zK5RNVav68r8qZ5cU6Ss95oSDBbDvljVoU9yvPrKxgcnYHpcp1XNJcoym218LbXavH6H2RxDqYr2VWp+T4OqV1eYncPsKX22sUSftTXo2p2Pm52DdrnodX38xyd1zT+s0CSzEwAAAAAAYAhMvCxqjPnId8ZsujLTduvzHOnqf5uIAaMkVWhnQbaqrcf2Fr8krw7Y2uIPGEfb47r637xSTsmQTG2+nOYymwAAAAAAAIbUxMyjhktoLUbrseKHyjfHDJMvCvL1+QDTpHO3tauq2faItd5guSeucRk1Jxzj1tWUmkPiGhOoQrRf2wkVFZpjIo8V67riUrhL6xzn9CjXHBMhfJ3O92Gt39jP9edus67XOO+qcue4kOMN+rJP+uzeIZw2DQAAAAAAMEwIGYfShz9VqbW24sH3zE5JytNjK4IhZJGyJF03+1Hbxi/1euwG8zXxeEpf5EhX/efhmNNhM2pOaHZruKqvuu6IfDklEUFd7rZ2VRW71dFoG9s6zwjDAqFaWZ50rC48bo9KHOFa7rZ2leV1h6sJ645IeZVGQGdNc25rCJ+voElp5buUYRuVUXMi4nzbu4tih3T9yKg5oaqKfPls7/FAm1tLooSDYcHp2IHqyHBVZJ1WNVvTqkNVlNL8iijHyilRVUW6XrZVW2YVRxknSdquL/2nX0qdrS+mmX0AAAAAAABjCyHjiGrR07uDm7w0qUPSRyefDW/6srVcT39oviYO8+bpM/n1pRPbzZ6QrvVztLPe1uBZqZfbJOXMC1fwFe7SPTlSR2O2c2x9ofN5eYnmp/h1rG6Omjzh5q71heHnoWMVqjU4wLNSe1r8Ss0rsZ1zhlIldbTa1z2s0M5lK9Vla7kp3SX1nlSr43zGe4pLnQrzXPK11Dpe27q6QR1yaf7D0aojS1W0Lxgw2t6PpIyaokC7bd3GrvWbdaw32rH8OlYXfn3Xiyflk0tpbmOYZdKJk7pKLl2+yewBAAAAAAAYWwgZx4HL6emSujXpfbOnf53dfsfzjPtnK1VenRwguMvNdUcEfqZYx+o61y0pXRnB6j3PWfkkZRX3M3U4eK0p+Srb56xwHLTyecqS5Dtnrs9YoZNtktJmGMefEdgAJiUyYJRKlTvLJbUdN9p3qKsnyrEGuGcR3j+rSZIup5eZPYMwcJUrAAAAAABAoggZJwxz3cN2leU5NwQJVAt2q9PRaipVRpqknrOOSkPTTekuSW4tMc5ZVWyW7VVoZ0GtjvUGgsZYaxp2rZ+j6kZvIGgMHuuK12T0q8drtllS0uUoHMzJ1/wUxbgvbqWlWNOgjfe5JMccO9Ke0mcbO9S3cZ6+tDFLX26KXeUKAAAAAACQKELGCcFaT7D3iLbbdlsO7MAcFqgWNEK2CDGq9AyBKknn7s7hh3OatbRDTcvC6zb65Iq+pmF9oW0NRSvcu+KgMQYzTGxrCFxT1CpKr3p6rTER7zFb1caU75H1uK7emKVrNx7XFxs79GlRItWQAAAAAAAA/SNkHAcmdQemIF+OtUGINUW4w9N/6BWYyuzW7H6mLSsURs5WrhkC2kRMi46XZ6U2W0FjrLUKJal1tRU0DhB2Rqg/rg655L7f3OW6TrNzJN+pw5H3yLNSm4NVlI5QM77A9YpNm6HLkiZ1J1KF+Li+1CZ9/seL2KUaAAAAAAAMG0LG8eD4cV0tl76YE6NazdsdWPcwNxyQBXZ+dk6XVn2DNW3ZqCIs9zjWS+xa3xTYJKXCE97ARVJGjSf8uvqGwOYnxpgI5R5jt+ngeo72Kc2lKtpnHicQCg40bTtShTwtfqXmrTN2wg5s7PJyaNdoQ31hoPIzp8Rxva17rCrHoa6olHR5zmx9Lr8mRc7TBgAAAAAAGFMmZWZmRhQ4ZWdnq7OzU319fWbXqBqr1xWUf3e91s6+zmyWrF2kS3/bYmv5Uz25pkjpEe1X5otVHfrka0d0zT+siL7BR7nHsR6ir6VWe7ROZXndERua5G4z1hRsa1C1bffkgFJrQ5Rwi6+lVpuNkC7iWIo8XkbNCSPwjLbJijXl29YS7XxBgWNGvjdnv+2cvUe03TG92Xp/Pc5rDb0fx3uIvDbJuUt37rZ2LUkzzlG4S+sq8uUzd/OWJJXp8+9X6tPfN+janY+bnYMy4M8GAAAAAABAgggZx4tpu/Xp6nzpaC2bfIwH855X37fT9eVtd+iqQe4abiJkBAAAAAAAw43p0uPF+yt0VZv0+cJ1+jzW2oxIEk/ps2+7pbamhANGSZrU49zgBwAAAAAAYKgRMo4jX9pZqy/7XPp09fP6wuxEkijT598v0We+I7omwWnSQZO6u6XUfH0+z+wBAAAAAAAYGoSM48p2XfUPDbpabn1BoJSc5pXo01SvvjKUU5uPP6hr/82rz77dob6NHfqMnw0AAAAAADDEWJMRAAAAAAAAQEKoZAQAAAAAAACQEEJGAAAAAAAAAAkhZBwi2dnZuvbaa81mAAAAAAAAYNwjZAQAAAAAAACQEEJGAAAAAAAAAAkhZAQAAAAAAACQEEJGjIBSFe1rV1Vz+LGuptQ5pHCX1jW3q6rZo1xnz5DL3dauqn27lGF2jLRyj6qaT6io0OwYeU/9/Iw6DtkeP//YHBKQcbv+9w//TPtLb9d9Zt9osK7nf37T7BgJLq0v/TPtH7Xz9+Ob92j/CH9O9y1arP0//DP970Uusyug4JJet/+MHfpQuwvMQSMveN37f7hY60f9SyFRH+v5Q2f0/Bqz3als44dj6jNIaqPxPW77t/T6xs/NXkv4+2kkvwcAAAAwsREyYpiVqmhfpeaneHWgIFvV1mPz+h3mQIy23jTVPpSprIcylfXfrzF7R8eohohjzQz9z/5CvLGuebLuCP587U81e0fNS4cPaulP/4/+vlWatyKJ768kFXymdF2nbq/ZYbOmV5V/Ih15JlNZD92gFc3mAIx5wX9Lz6RJf/JejKDRr5od/0dLf3pQx3WHfjAuQnQAAACMdZMyMzMvm43Z2dnq7OxUX1+f2TWqxup1aYxf26gq3KV1FflSS+2YCRZzt7VrSdoRbV+2Ul1m50gq96iqOF3H6uaoyWN2jqynfn5GJV9LU23JZG03Ox1m6H/+8B7deuZlLd171uy0uLS+dLHmuST1Oy4OGbfrf6+4Qx94/o/+x3+YnXH0jyuBe39j60H9/w77zc7R9817tL9wht6J57NY06uOpZ/oyDPJEnLZfqYdzupXP31Z/4+kv1j+Z/pOZvi5U/Cze1Fv5twf5Tg2V/Bvpmzjh6r8k4+cjb3R/z0/9fMzKlHG2PkfCSMso+aEyvL6+wC8OlBQqFazOZZR/h6f6J8nAAAAxhYqGTEifOfGRsCIEZAxQ7e5/DreelbKzNRfmP1A0glWhYUff9/qDHrfOT9w8PtBz/vO43jOSvLr+G5b2yADxqd+fiZUmVj779eFK5KjBIzS55rxNbNtYulaPydUUV9d0KAOSb6WWlvbIALGseJrn6nMbAMAAABGAZWMQ2QsX1tYcOpy8Lk/SvVFnVY1lygr9DxyTO62di1Rg6r3zNC6inwFJz52NGZrZ314nBSuZPRF67P1hyZP9sauMMzd1q4lOWarpLYGVa+uMFtjClUy1ksPD3T95R5VFbvDz6Ody3wPUe6ZFG2coo41K218ZhWorXKm62H7PYmswDGPFfX6B1XJOLD7Fi3WD3I69Pc7/PrOD++RjMq2+xYt1g9ye42KL2eVXqAqLPwaU6hazlbJ+B/fsL3G/7r+fscbesnxKqsKM/Tcr+O7D6om9MNmVav94WUt/a1L/3vFHZps9VxyVA+aVW3mcQJiv4fIareIsbZqtsD9il155bg2q5owpJ+qOPOczvcY+TkG75s57ookXSVjJPPn2HzuFPjZM/8tBD6vlKg/P/H5WM8f6pL7nUAlW9nGD1WZ7uqnqu1z7W54T/m/76fyLeJ7KvI7KiCe3yeK8jsl8nsqvjHxfp+Zx4p1XQqNTTW/Y23M3zv9fR8HzxG+TuN9DPT7pHCX1lXMltf8bu/n9+JQfncDAAAAiaKScaIo3KV1zZWaryPaHqrY2Cw9bNsApdyjKusPrmBVx/YWaX5Fu1aVOw+nnBJVVaTr5dA4v7KKg4vf12lVcJMX64/VrGL7xi+2zV08K7XZOsaBNscZHAJ/6NnWdWwMLDrma6mN8kdmHFLyVVYxW946+/U7N53JqDlh/fFoq3rJKVHVtjrbqDqtKpf22NabPNDm0vwKYyOAco+qrLA1VDFjvQe73G3tKsvrDr/PuiNSXmXkRjlyaX6FFfYWZKu6oFbHet1aYtvQJvCHrmzXn63t3UWRn+WQcum+HJcutZ3VSzqr/zgj3foNW+gVp/9nr1XVtft1XbJCRXsVmTkd99bCP9N39LLV/7Lecd2h1fa19b55j/ZbIWa4Ei2wBl/Eeo+Z92j/iiy9Gawu85zV5NzFtnG2qjZP9ABP9vcQerysdyS943GGUPctWqxvvmUbt/t1Xcq8R/uXB+5bcM3A4Osv2d7D0p/+H2fg9x/Be3BQx2PmgIG1Hb/z1df197ZzKndx6Jwhrjv0gx/eoT/EvBcIeqmnV1KKbh6Nde+sSjZ3ujFletDi/D6L5/eJwr9TstqC31PZqi44rtn279DCXVpn/N450ObWEmMTsPi+z6yA0XG+JqWVX8lGX4HfY0vSbO/R+j52/g5wCgaMgerIcMAY3+8Thb7b7+kO3o8GdaTkqyxiHAAAADD2EDJOELkP5ys1ohpih5pWB5+XqqjQLbU1OKo0utZv1rFeKavQ/CPNr2N14T+gul48KZ9cSnNLUoV22v4o81lVguE/+iIrVPpXp9k5kq+lIfy6+gYd65VSZy26gj8eFVHdErh+t2aH/mCtU2GeS76WzbYKmArtbPRKOUW2P7grtNOoMGndc0Q+ueS+PxgMhu9tRKWkXeEu3ZMjdTTa7o9npfa0+JWaVxKx67YzYN2h1lN+KSVdN1ktN6W7pN6TarVV8HStn9P/NSTKmir95ulAwvX/vDVCU6YdFXuBcHNyzgxrR1WX1i+cIZ152RHIvXT4Nzrul25daO68ela/+qmtsuw/zugdSTemxa4mjMdfLA+sZWkGpC8dPuhs63pDz5/RsN23+xbdoVt1Vr+yV3p2vaFtrX4p846IzSHe8Qz9vUhI2T/q4MGDMR//OEbmjf7F8j8Lh7YZLt0ov/7woTkqUdeo4d+vk1J6VHnojEpulfzdV5uDBiGe77N4fp/I8b3n/B9BFdppex481h7b753W1Q3qkFv32P7nSlzfZ4UzlCqpo9U4X4wqwP5k1BQpS14dsL/W+j52/g6wKfeEAkZnZWS8v08sjt/DFTrZJiltRtTfdd7u68wmAAAAYNQQMk4IVkh36nDsP7QKF8mdIvkitiWNDK8kRfyxN6ysPxyj6jkb+z31Z6DrL5+nLPnlfdGYQufttoWpMXjOymd/bt1b5x++kTLun61UeXXSCAG7znVLSleG8Yeouc5lYK2xcEDZ2e0PVGzaqhuH230zszTZ36GXgh/Kh3/QJc3QN4e58u2dt2JXFAaCT+nS+V6jw6+X2vyS66u2KdSS/H/QO/bnOqv/YVYMDtY379F3Mv06/tt+rtMmnvX9rkyg0jTyPUovne7QJbn01RvsrWf1HwNt4jLStv+1Fi9eHPPx16M1Z/TDP+hS6MkMfTNz+IJiu+0bb1DWQxkKfnO7/uQ9dTRcir5GX0GfZqdI3hMxpkpHY36fxfP7RPF+78U6llc9vVJqeviLNq7vM+tas4qjVN8PSqlyZ7mk3m51Gj3O/6Fmc39gKnRkwDj43yf93zOn7Z1fkVJ6VLLG7AEAAABGHiHjRGCFdGYoFU3sMZEh14jxrNTLbXJW85WXaP6Af8BeuYzp6aFpa+Fp3uHp346xNSecYxzrgcXvpnSXJLeWOI7V7lzDaxC61s8JTMlOyVdZ8FjDOuXOCrD+4LdVyJ3Vm1GrBUfeBz2xgrvhnuI6Q/+zcIYutf4mxrp7genL+22P/tZgHBL2z8gwqlWKSc8Kab+ZqVvPvK7jfnvA3qv3on7+Q+EaPfhMmvy6Tt53gpWNH2p3gdVdcEmvHzqjjtXS5ocy9eBW4+U2A36fxfv7xJ2uVPnVY/5/KzvrWKl5lcY57Ws9BsT3fVahnQW1ger70BIdxlTvwejnf2KlTrcvYeHS/LzA93S0+zKY3yeDtjVFWQ/drO4Hzqjj0Bk9T9gIAACAUUTIOBFY1R3OP4oGq1td/VX+DatSZaTJGcAVu6Nv1DJEAtWDfsf6X/ZH8LzB9bec08EDO5YOVme339ooIPJ81QWxNi4YQH1h6BgH2qy1NCP+MB8iVsWgMu+xBWbWBimuLN03rEFeIoYz/LGmSftf17aolZDWZjR+2/qIUXYuHkmxw9gxYqxOl+7y6wPrP//iGzP0zltv6KU2f2BN0hu+GtpEaHh9Rcf/+w3KeiZNfn2k/OUfB5qbJ+uOhzKVtU1a108QFdf3Wby/T2JU6TlYx3Lu7mx7mOvtxvV9tkNNy6zX1wWmekesKTkEnGFi4HfFgbboVZTx/j65Imt61XHovLQtU1kDBMgAAADAcCNknBCsqWf9rV/oOSxvr5SVa/7BZk0bazs+yHUUh1B5ieanRP6BFvsPs3tV+U97tXfvXv3dX5p9cYrnD+TQlLoj8sS8llh/lFvrldnEmhY9VFpXW3+Yx1jbK1H3zczSZJ3VrxybnQQ3b3Hptpn9VMh9M9M5ZTnICm4Sqq4LVlNGbEBjVV6eORNlN+AhEpwmfcDc6dpive93jsbod+jVH/zS5OuNEq9BsaaIR5nGG/z8xtz0aNMYmS596/XRp53fmHa7vpkZuI8vne7QpSj3eli4P5Or9+rAtOnmq9Vt9ktS87U62Su551jho0Oc32fx/D6RbepyxO8Uu8hp0fGK6/vMs1KbraCx/+9yk7VMSM68iLVwYy1rIUmtq4NVlEaoGdfvkyvz1Byf1HudDifpLu0AAAAYXwgZJ4QdavJY08wcVR+lKtoWXN/KGpNT4qjCyKhZFwj49gzPtOS4DPYPtPvv0x9bmVT27EfM3vhYU7Qj/lh02KGuHkkps5UbHGPtlOqcLh1YuN8+3Tt3W6Xmy+9c66y+Qcd6XZpf4dxV9cqUqmifeZzA+mf9TQG8cv0EdlbIF9yIJbALr20a6Tfv0f5CMwAMsoK13DsSCGr8qjl6Vsq8x7Er8n2L7tU8V/zrJA7eQNOkw+v42QPQv1gea7q0X+/9QVE3ZxmMlw6/rnc0Q9+x7ySdcbtW57p0qfX1yM8Pgc/SuF8PZsraRd2Qk6Vbg/8Ous7qTf8MPbgwJWogOZTKbvok9N9P/bxLbl2nI3sHsfZi3N9n8fw+kaQKeVr8Uk6J1tk2cJHqtCr0uvDvHecYU5zfZ+WeiOMEQsEBpm1H0bW+SR1ya4mxE/bDeS7nJmQOO9S0rEEdMr7H4/p9AgAAACS/SZmZmZfNxuzsbHV2dqqvr8/sGlVj9bo0xq8tpHCX1jnWgHLusCwF/khzrgHo1QFjN+jcbe1akmbsLGod22dOYY7VbglOz4vGvoB+zHERO5zKqmT8vu50Se0Hlutv/8nROajrj3pexzlLVbTPvn6YVwcKjmt2c4lSHRsAOMf5Wmq1+cVFWlcxW17jM8jd1q4lOeHnUmC30dDUQeszGni6eJ1WGQFB1E0JJD318zMq+Vqaaksm64oKwTJu1/9ecYc+8PyfiN2TJem+RYv1g1zp+O7ATsWB58H7ela/+unrurl0sW5rOxhlgxVrSrGt5Z3geWKc9y+W/5m+89XX9ff2HZQjwsyz+tVPX7aFai6tL12seTJeZ7LOGXX6qz/82r9Y/mf6TqY5ICB0/Yq8rkutB7VN9+oHub3G9Sl8jbYfyUut4XsW9zn7u6eWwGdkXkPgdTfaznlF1vSqY+knOvLMDVqRLBVYUT4n5z0Ifzb2vtDPuu1nI+Sb92h/YUro38WgFVzS6z/qUeQ3Y6oaHkrR42azPtfuhveU//sMZf33aAFkvN9ncf4+UXy/UyKPpSjHi+/7LPI7O8r5QgLHjHhvRr/9nBHfu+UeVRWnO6819H6c7yHy2ozfJzF+D0X9nWVJ+LsbAAAAGEKEjENkLF9bsrOvExYtwEy1B3C4IvyhihGVjCHjmBYID2efvll3bLzK7LQZKGREsuG7GwAAAGMJ06Ux5gV2XY6yBpa15hcATGyfKT1F6u7sL2CUpKt09vdmGwAAAAAMDUJGjHmBXZfdmm3s2Jm7LTCNraOVKkYAE9k1ejDOnYW93ddJt/q1u8DsQdIpuKSiWyX/6WupYgQAAMCYwHTpITKWr208iLqWVb9rbWEwnvr5GZU4FuhjOiWGWMT6gdcxXXqUlG38UJV/8hGfQbKy/1viuxoAAABjCCHjEBnL1wYAAAAAAAAMJ6ZLAwAAAAAAAEgIISMAAAAAAACAhBAyDpH29namSgMAAAAAAGBCImQEAAAAAAAAkBBCRgAAAAAAAAAJIWQEAAAAAAAAkBBCxiH1lD7b2KG+jR3qW/WU2QkAAAAAAACMS4SMQ+pxXb0xS9dubNDVOSUEjQAAAAAAAJgQCBmHxeO66qhf+toMXTa7AAAAAAAAgHGGkHE4paYTMgIAAAAAAGDcI2QEAAAAAAAAkBBCRgAAAAAAAAAJIWQcJpO6u80mAAAAAAAAYFwiZBwund26Sm59XlRm9gAAAAAAAADjCiHjcHl/hb68MUtXpVWqb2OHPiVsBAAAAAAAwDhFyDhcpu3Wpxs79MWpLF27MUtfbtpujgAAAAAAAADGBULGYXJ5zmx9Lq++dNzsAQAAAAAAAMYXQkYAAAAAAAAACSFkBAAAAAAAAJAQQkYAAAAAAAAACSFkBAAAAAAAAJAQQsZh8ZQ+X+iS2o5zgwEAAAAAADDukYENqaf02cYO9W0s0We+I7pm5+PmAAAAAAAAAGDcmZSZmXnZbMzOzlZnZ6f6+vrMrlE1Vq8LAAAAAAAAmMioZAQAAAAAAACQEEJGAAAAAAAAAAkhZAQAAAAAAACQEEJGAAAAAAAAAAkhZAQAAAAAAACQEEJGjFOlKtrXrqrm8GNdTalzSLkn0LdvlzKcPQAAAAAAABgEQsYxbuXi57R7xQ+Vb3agH6Uq2lep+SleHSjIVrX12Lx+hzkQAAAAAAAAQ4CQEeNP4SK5UyRfS4NazT67+sJAALlspbrMPgAAAAAAAMSNkBHjlu8clYsAAAAAAAAjYVJmZuZlszE7O1udnZ3q6+szu0bVWL2ukJmbtPu+G/TavnKdW/CcFt8c7Dijg1s3aFfE2Mzw8/eatOLgPwf++4YfaseyObou3Ot04YS27P6pjljTqRenhJ9L4dd3v/SInjgtSXl6bMWjmtvbpBWvTHMc+6OTz6r0ty2SpPy767U2821t2f2+lqwpUlaUMYNXp1XNJaFjSV4dKCg0KgzNMX4dq5ujJo+zX43Z8kw/obI8l9Ue7ViSCndpXUW+fI3Z2llvdlprMRa7w8/bGlS9usI+IiR3W7uW5Jit/b8GAAAAAABgoqGScchdp7nLntNiNWnF1ke0Yuuzeu1Cphbb1lXMv7veCiMfscY0qePmIu1e/KeBAR/+VKVbA30H37NCRev5iq2PaIU9UByMm4u0e9nX9VbwvC+d0XWzH9WTM21jps7R2jX3y9ffmHiVe1TVXKKstobQuojVBcc1e1tdxJjUltrQmO0t0vyKdq0qtx9MyipuV1l6kzWuVsd63VoS2rSlTquCm7xU5CvVGh/e+MWj3OCBgtOkC2p1rNd+BqdAwGhb17HRK0nytdQSMAIAAAAAANgQMg6Dj04+G65KVItePvORNDVV2ZKkP9WS2dfpo5O/1NMfBl/xz3ripTPSzffrsRuCbcPhjA5uLQ+f9/QpdUhKvz7PMarjpYHHDKxURYXuKBV/FdoZeh4eY9+UpWv9Zh3rlbIKjV2fe49oe+i1O9R6yi+lpOsmKXDcYBhYd0Q+SR2N4U1fqqNVPParTrNzjHUd6xt0rFdKnbWI3agBAAAAAABsCBmHQfd559TiI78t14rgdOmZs5Slj/TWW8b04x6fPtJ1Sk1zNg+pCz61Oxr+WU9sfcSYCn1Gb5y2Pb1S1uYrHa39VPwFN2jpDlQIhpkBYoDv1OGR26ClcIZSzbagnrMjdx0AAAAAAABJgJBxhOVff0NoSvXuNbZHf2swJiN3ulLlV4+ZH0YRe4OWdGUUmm0jxLNSL7dJqXkl4WnW5SWaP1BwCgAAAAAAMAERMo6wI+c/lPSRbT1G5yOwUcs44O2WTy6l2fZXGbxudYU2fxlppcpIkyS3lgTXdSx2qyPWZjIAAAAAAAATGCHjSBvktOh2n309x/jkf+Pro18V6Tkrn6SsXNsmLybPYXl7o40pVe4sl9R2fJDrKA6h8hLNT/HrWJ19XUcCRgAAAAAAgGgIGUfahz/V4fekrPvq49rkJVD5mKlFd0ffeCUQQn5d91jHyr+7Xmtnj3rEKKlCnha/lFOidTWltvY6rQrtLr1DTR6vlFPi2Ek6o2ZdIODbM4rTkoekEhMAAAAAAGBiIGQcBbsOPqItJxW5LuOKHyrfHHx6g7ac/EjXzX406rgjvy3XwffCazyuzXxbW7Y2qcM4zGjoWj9H1Y1epeZVBqYbN7erqnmeTtp3m64vVHWjV1nFwf52leV160DBHDUN01Tp3G3Bc1VqfoqknJLQuUNhp2el9rT4HdcVeuwzdr0GAAAAAACY4CZlZmZeNhuzs7PV2dmpvr4+s2tUjdXrwviTUXNCZXmuyDUYC3dpXUW+UtsaVG0PSwEAAAAAACYwKhmBKG5Kd0ny6qS5BqO11iQAAAAAAADCCBmBKDq7/ZLcmm1bK1KScreVKEtSRytVjAAAAAAAAEFMlwZiCE6ZdvLqQEHh6O16DQAAAAAAMAYRMgIAAAAAAABICNOlAQAAAAAAACSEkBEAAAAAAABAQpIqZGxvb2eqNAAAAAAAADDGJFXICAAAAAAAAGDsIWQEAAAAAAAAkBBCRgAAAAAAAAAJScqQ8YHbGuVZ2iTP0kbVTjV7AQAAAAAAAIykpAwZX3izWIX7i/ST09KCBwkaAQAAAAAAgNGUlCFj0AtvHpJXk3U9ISMAAAAAAAAwapI6ZAzKcC0ymwAAAAAAAACMkHERMgIAAAAAAAAYPYSMAAAAAAAAABKS5CFjm85fMNsAAAAAAAAAjKQkDxkP612/NGXmcq0xuwAAAAAAAACMiCQPGaWtrxSp8PnzemhpkzxLtxA2AgAAAAAAACMs6UPGNQua5Fkobd5fpML9a7XVHAAAAAAAAABgWCV5yFiqudOli+8d1gtmV8i9qvynvdq7d6/+7i/NPgAAAAAAAACJSvKQMR636quuwH9l31epe81uAAAAAAAAAAmZACHjc/rVq5fMRgAAAAAAAABDZAKEjNJvWv5TlyTp/Hv6jdkJAAAAAAAAICETIGS8V5V/cacmq13/+j+eMzsBAAAAAAAAJCipQ8YHbntIbl3SqXOHzS5J0r0Vv9Tevd/Xnfqd/mH534qIEQAAAAAAABh6kzIzMy+bjdnZ2ers7FRfX5/ZNSY8cFujfjxzsiTJe7RI5e+bIwAAAAAAAACMlKQMGQEAAAAAAACMHUk9XRoAAAAAAADA6CNkBAAAAAAAAJCQmNOlz58/r08++cTsAgAAAAAAAAAHKhkBAAAAAAAAJKTfSsbe3l6zCwAAAAAAAAAcqGQEAAAAAAAAkJDxETJO2yLP0i1aY7Ynu3H0vh64rVGepU3yLG1U7VSzFwAAAAAAAMks+UPGqZu0f2GOLp7eq61mX7J7f69euZCj4gc36QGzL5lM26Ifz5Reeb5IhfuLVXnBHAAAAAAAAIBkluQhY6nqH7xLU87t1dI3D5ud48BhVT6/V96pd+nHC0rNzqSx5uYc6dwhwkUAAAAAAIBxKqlDxgdue0hutanxlR1m1ziyQ+VH26Tpy1U/zewbaqXKqmrS7d9aZHYkYJFucZltAAAAAAAAGE+SOGQs1cMzJw84TTqj5oSqmttDj3U1zorAQL9HuSpV0b7wuKp9u5QRGlWnVcHXlnscx1tV7jhcaGx4zAkVFdr7rfNsq5MKd2ldP9cW8v5evXJBcs8a7mnTO9T5yiVNWfCYFq6McS0AAAAAAACAIXlDxmlz5dYlnToXe5p07rZ2leV160BBtqoLslVdd0TKq4wS5rm1pLlS7lO1gXEFDepIyVfZtjrHqNS8SlUVK3S87S1+ZRXbQsRyj6qaS5TaEjxOtra3SPMrooSROSWqqpgtb511bY1epeZVRo6TJB1W83uXpKmzVDDMm6Z8/OtiHT3YJt26XAvXbdI15gAAAAAAAADAkLQh45qbc6QLp9Qca52/wl26J0fqaCxUa7DNs1J7WvxKzStRrnO0OhqztXl9cNp1hU62SUqbYatmlNR7RNsLwsfrevGkfHIpza1AhWKhW2prsB1H6lq/Wcd6paxCe2WkJHl1oGCOmjzW0/rj6pCUOt0MQANeOHdKFzVZ119JyHjnFi2saor5yLrTGP+7tTr6i1d1MfUuza3aImY7AwAAAAAAoD9JGjJa6/z539ULZpcl4/7ZSpVXJ+ud7V3nuiWlK8MxhdmvHq/9udS6OlvVy1aqy97Yc9b53LNSmwuytbNeUuEiuVMkX7dxIO1Q6ym/lJKum+zNvd3qtD9XhXYW2INOw4V31SUpw3UF6yX+bq2OVhfFfHT8znyBpPc36I3qvfpAOZpZ1agbr3Q9yKmLNGuq5H0vxvsCAAAAAABA0kvSkHFgN6W7rGnQ9vUR21VV7DaHDinfuVhhmhlsJpPJyloUvcIypqmbtH9pkzwLpc37i1T+vjkAAAAAAAAA48W4DRk7u/3WlGRrzUPHwzZNecR0q2vEz2kZ7HRpSZq2SbdXLdeNatPp6iId3RUrPI3hwgYt3V+kwqPSuqVNI7AzNgAAAAAAAEZLkoaMh/WuX5Lrlpi7LUefFj2MPIfl7ZWycp2bxUilyp3lktqOh9eGvBJTb1GGpC5/7I1uYhrsdOk7t2jh9+7SFN+req16rfxG96BcOKxTFyT3zYOshAQAAAAAAEDSSNKQUdr6Xlv/uy3XN+hYr0vzKzwRm7wMjx1q8nilnBLHDtEZNes0P8WvY3sq7IMH7YHpszRFl3Q+1kY3Q+SabzVq4eIc6Z29Orp5gz42BwAAAAAAAACGpA0Z9f5r8mqyZk2PtRHKDjUty9aBtijrMm4zqw2HSH2hqhu9yioOn6ssr9u5i/QVWaSCmydL5w6pclhDxlLdtGCyLr7y9OCnRwMAAAAAAGDCmpSZmXnZbMzOztb58+fV29trdo0pD9zWqB/PlF55vniYw7dRNm2LPAszkvR9LlLtg49pgX+vCl8huAQAAAAAABiPkreSUdILbx6SV5O1YOGmmGszJr9S1S/MGYEqxuFirZ8JAAAAAACAcSupQ0Zph8qff1UXp96lHy8YjxuLLFLtg8vlvvCqfpLEVYBv+y9J0x9Sbaz1MwEAAAAAAJDUkjxklHRhg5YebZOmz9Uasy/ZTVuuBVPb1Pj8Br1g9iWRF94s1k9OSwsebJJnaSNhIwAAAAAAwDiT1GsyAgAAAAAAABh9/YaMn3zyidkFAAAAAAAAAA7JP10aAAAAAAAAwKiKWcnY2dmpvr4+s2tULV26VL/5zW/U09NjdgEAAAAAAAAYJVQyAgAAAAAAAEgIISMAAAAAAACAhBAyAgAAAAAAAEgIISMmrkd+oDn/8r80Z8ef6ytm33hTuEK/an5Gzc1r9ajZN+rK9Pn3O/RpUZnZkeTG6/sCAAAAACASIeMYt3Lxc9q94ofKNzuAMaqgZsOgwswvVlXq01SvrmrabnYlue266jdefb6wUp/NM/sAAAAAABhfCBkxPIJVgsbj6499wxw5ep77e5347t/oROkv9YnZN954dus7BT9SQcEWPWv2jaLLRa/rkxy/vrztwfH5ZXT8QV1z1K/Pvv26Pp9mdgIAAAAAMH6My7/rMVb4dW7L3wSCvO/+jU4c7NB18/9qYkxPRhye0ucLXbrq6GZd9b7ZN35MatqsL/tc+vS7u3XZ7AQAAAAAYJyYlJmZGfF3b3Z2tjo7O9XX12d2jaqlS5fqN7/5jXp6esyusWHmJu2+7wa9tq9c5xY8p8U3BzvO6ODWDdoVMTYz/Py9Jq04+M+B/77hh9qxbI6uC/c6XTihLbt/qiPWdOrFKeHnUvj13S89oidOS1KeHlvxqOb2NmnFK9Mcx/7o5LMq/W2LJCn/7nqtzXxbW3a/ryVripQVZUzcHvmB5iy+Xue2VKnnpXDzVx6r1sz5LvUc/Bude845rm/J/1JO8KTqUNt3/14Xwy8NvTak46BOPPb/Wk++obQdf6WvvvUzdab9lXKypI+O/Uxvf7BYcxZnWYGndS2P/MBqi3Ycp/7PGRQ49/TQMNu5BqVAW5sfUkbLVn3n3ENqLg7/fHgbf6Q19faxbj25b40WpgSfX9DRuk16whN8HjiWOzTe0tuqJ5ftVrPRXFCzQU/kTQ09v9iyVd9Z73WMUb/jYpwv5Iz2GFWUl4te18cLu/WVjf1VMdZpVXNJ6GdR8upAQaFajf7UllptPleiquLwFXQ0Zmtn8J6Ve1RVnK5jdXPU9XC7luQER5nHkzJqTqgsz/aZtzWoenWFbUSc57Sb97z6vu3W1f+WpauPm50AAAAAACS/2H/b4wpdp7nLntNiNWnF1ke0Yuuzeu1Cphbb1lXMv7veCiMfscY0qePmIu1e/KeBAR/+VKVbA30H37NCRev5iq2PaIU9UByMm4u0e9nX9VbwvC+d0XWzH9WTM21jps7R2jX3y9ffmAR88sF5s0mSS9PX/i/l6KBV9fgznfNnKSdU8fgNpe34X5o5/7zaglWR3z2onqzFkVWR31ilm3p+ptPH/LruG6v09cVS23cPqkcuffVPrKnawWnS3/2ZzvntL3YKBIxyVGOe7rlX0x+xj/pvmv4vf6Xp54PX/jc6fUyavrZaaffZx8VvSt4aNRdLewp+pIKCH+nJlgtyF2/Qk4XBEQXa2rxGC3sOqSA0RlpYYR/TrDVWX/Cxpy10CodHtz2jJ/LOh85XUNcq5a3Rr2rskaFbT+57Rk/kSUfrwsf8Rz1knTN8vidbLlihov385jTtMn3xxy6p7XjsL6HCXVpnhXnVBdmqLsjWgTa3ljR7lGsMTc2rVFWxdMAat73Fr6ziEyoK3Q9Jcml+RbuWqME6Xq2O9bq1ZN8uZUiSSlW0r11led2h41QXNKgjp0RVoTFh8Z3Tcvy4rpb02aynzB4AAAAAAMaFmH/f48p9dPLZcFWiWvTymY+kqanKliT9qZbMvk4fnfylnv4w+Ip/1hMvnZFuvl+P3RBsGw5ndHBrefi8p0+pQ1L69XmOUR0vDTzmSn3lxusl+fVxu7P9o2M/s1UIviX/W37J9bVAgPjIYk13+XVui72y8f/VuYMdkmuebrCFfte5zqvz6bcCT1wufXQw/Jrr0mzVi3H4SppL8r8tv60i8ZOnqwIVmMExj92rNHWozVbd+MnTO3XO79L0Jf8tPHAwelv1pC2Ua37Rq4uaqq9ZmV9Bzd1y64z2rA7XIzav362jvVO18OGCUFtcCleoKEfyNtpCQM9u/WPLBU3Jeyi8eUv5Q1qYYlZLSs3rtziex23aIn2RKl196nGzJyT34Xyl9h7RnvU7Qm2tqxvUIbfuqSl1jFXvEW23VSR2vXhSPrmUZpRW+lpqbVWJO9R6yi+lpOsmSSov0fwUv47V2SsbK7Sz0Sul5KuwPNQYEOc5Ax7Xl9okfW0GU6YBAAAAAOMSIeMw6D7vnFp85LflWhGcLj1zlrL0kd56y5h+3OPTR7pOqWnO5iF1wSdntvfPemLrI8ZU6DN647Tt6VB65AeaOd+lj47tjJhK/NEHVjBo+eTpKp2wpktPuT1L0nn1mdOPn3tDPZKuu9G2mUzHG7YgMjLMHIxPevySa55mmtWSId+Q6xsu45yS9Jb6zku6PiPG6wbQ84FzOrO1aUtgurRbBbOmSm2njcpAr97tkZR2owYTMxbc79YUnVGrMcW3+dx5SdfrFqsq79HcTKnXq+YrCRSjuSldn8uvSZ1mR1CdZudIvlOH1eVo96qnV0pNN5K8nrPOcZ6V2lwQOXXZdy4cWEpS1/o5qraCwtxct6RudZnvsf64OiSlTjeCzTjPGTSpxy+lphMyAgAAAADGJULGEZZ//Q2hKdW719ge/a3BmLQC06BDu0svvl7ntvyN3g5WGg6G//cxd4AebIVivD55ukonrGrJmcH38LS9OjFL17gkZS2O2EU7vLbkUMvU11Ik5Tyk5uZnHI+HQ+sMxu/r6VMlZeph41j29SAlt25JixJ+DqfCGUoNTklubrc9KjU/tA7lMOjtVqzcMyLYBAAAAAAAIYSMI+zI+Q8lfWRbj9H5CGzUMl4Yu0t/90o2QxnYRz0dZtPQCa3f+Ddq67ACxVDQ2KGP/dZmMKH3aHuU/jJmMHrlzuj3vZLawusxOh5RNnXpz9vd0dZPDD6CU6OvrEoyIZ6z8gWnN4fWR7Q9HBuxjAxfd+RGOAAAAAAAIICQcaQNclp0u8++nmN88r/x9XFVFXnxjQ7J9XW5zI1UHrldafLrD/9+BZWRV+DiY1bQGJoGfQXTov/y77R3717t/adK3Wv2xWVoAz9zWnQsb3dfkFLcKhhgnOI9Zme3rpJLl28yO4JiTIseRq2tXilltnLN6y6fpyz55X3ROdV6sC6nuSRftyaZHQAAAAAAjAOEjCPtw5/q8HtS1n31cW3yEqh8zNSiu6NvvBIIIb+ue6xj5d9dr7Wzx1PEKOm5g4GNVP7cvjbif9P0xVlSx2+GpToysKP1DzTF0fbflJIl6XxXqELx4oHj+sg1TzMd06hje2S2FRe7/lj33W/2xufZPa26mJKrJ7YNQcxYfyiwYUzF2vAmL1E0r/+tvIocV1Cz1rajtcV7Xhc1wCY07x/Wl3z97ba8Q00er5RTonXmJi/Dpb5Bx3pdml9u30m6TquK3VJbk5rMtRoH5Sl9kSPp92cJGQEAAAAA4xIh4yjYdfARbTmpyHUZV/xQ+ebg0xu05eRHum72o1HHHfltuQ6+F17jcW3m29qytUnDOIF4FLylntKf6ZxsayP+y2Jd59iROn5Tng4e46803VhTcXpop+q31FP6hlIcay1GOedLv9Tb3z2onijrMoaPFfbcSWsnGv9/6qUXzd44eXbrOwWH5I2yLuNWcwfkAXn1xLIfaU9blHUZHSFms9YUbNXRXue4v9ahyN2lPbv1ncYzxrqRZoi5XV/6T7+UM09fONpt6gtVXXdEiliX8YSKzGBzSOxQ07JaHVO+ykLnKlGqY0fqKzRvnj6TX19ujr2bNgAAAAAAyWxSZmZmxGan2dnZ6uzsVF9fn9k1qpYuXarf/OY36unpMbsADODRbc/o4bRWPTnIdRuHz1P6bGOJPmtr0LU7x3P4VqbPv1+pT38/3t8nAAAAAGAio5IRmBAKlJszwjtED+hxXXXUL+WU6LN5Zt/4cblonT5NpYoRAAAAADC+ETIC41H5WsfU6YKau+XWBR3dM3YiRkma1HSHvtImffbt1/X5NLN3HJj3vD5e6NLV/3aHrnrf7AQAAAAAYPwgZATGo/otas0Nr534RJ50tG5T5PqJY8CXdtbqyz6XvphTZnYluTJ9fq9bVx2t1dXHzT4AAAAAAMYX1mQEAAAAAAAAkBAqGQEAAAAAAAAkJKkqGQEAAAAAAACMPVQyAgAAAAAAAEgIISMAAAAAAACAhBAyAgAAAAAAAEhIUoaMD9zWKM/SJnmWNqp2qtkLAAAAAAAAYCQlZcj4wpvFKtxfpJ+clhY8SNAIAAAAAAAAjKakDBmDXnjzkLyarOsJGQEAAAAAAIBRk9QhY1CGa5HZBAAAAAAAAGCEjIuQEQAAAAAAAMDoIWQEAAAAAAAAkJAkDxnbdP6C2QYAAAAAAABgJCV5yHhY7/qlKTOXa43ZBQAAAAAAAGBEJHnIKG19pUiFz5/XQ0ub5Fm6hbARAAAAAAAAGGFJHzKuWdAkz0Jp8/4iFe5fq63mAAAAAAAAAADDKslDxlLNnS5dfO+wXjC7AAAAAAAAAIyIJA8ZAQAAAAAAAIw2QkYAAAAAAAAACSFkBAAAAAAAAJAQQkYAAAAAAAAACUnqkPGB2x6SW5d06txhswsAAAAAAADACEnKkPGB2xrlWdqkH8+cLO/RYlVeMEcAAAAAAAAAGCmTMjMzL5uN2dnZ6uzsVF9fn9kFAAAAAAAAAA5JWckIAAAAAAAAYOwgZAQAAAAAAACQkKjTpQEAAAAAAAAgXlQyAgAAAAAAAEgIISMAAAAAAACAhBAyAgAAAAAAAEhIvyHjUz8/o46ff2w2AwAAAAAAAEBIvyHj43vT5L+1S69v/NzsAgAAAAAAAABpoJBRzZN1x/5Uuf7kPT2/xuwEAAAAAAAAgIFCRknamqKGdyT30l49ZfYBAAAAAAAAmPAGDhmD06blUxHTpgEAAAAAAAAY4goZ1XytTvZKrpl9KjP7AAAAAAAAAExo8YWMukqHT18npXwmt9kFAAAAAAAAYEKLM2SUtnd+RdInmlFg9gAAAAAAAACYyOIOGQEAAAAAAAAgGkJGAAAAAAAAAAmJO2Qsu+kTSV/R2WazBwAAAAAAAMBEFmfI+LkWzfxI6r1aXrMLAAAAAAAAwIQWX8hY0KfZKZL3hcnabvYBAAAAAAAAmNDiChmfWt4jV2+aGraaPQAAAAAAAAAmuoFDxjW9KrmVKkYAAAAAAAAA0fUfMhZc0utLffL/+816kCpGAAAAAAAAAFH0GzI+tbxHrncydMfGq8wuAAAAAAAAAJAkTcrMzLxsNgIAAAAAAABAvPqtZAQAAAAAAACAgRAyAgAAAAAAAEgIISMAAAAAAACAhBAyAgAAAAAAAEgIISMAAAAAAACAhBAyAgAAAAAAAEgIISMAAAAAAACAhBAyAgAAAAAAAEgIISMAAAAAAACAhBAyAgAAAAAAAEgIISMAAAAAAACAhBAyAgAAAAAAAEgIISMAAAAAAACAhBAyAgAAAAAAAEgIISMAAAAAAACAhBAyAgAAAAAAAEgIISMAAAAAAACAhBAyAgAAAAAAAEgIISMAAAAAAACAhBAyAgAAAAAAAEgIISMAAAAAAACAhBAyAgAAAAAAAEgIISMAAAAAAACAhBAyAgAAAAAAAEgIISMAAAAAAACAhBAyAgAAAAAAAEgIISMAAAAAAACAhBAyAgAAAAAAAEgIISMAAAAAAACAhBAyAgAAAAAAAEjIwCFj4S6ta25XVbNHuWYfEpK7rV1Vze1aV1NqdgFIImUbP1RHwyWVmR0AAAAAAEwQA4eMI80KNVeVmx2IaYLcs4yaE4TdGHvW9KryTz6S94XJ2m72AQAAAAAwQQwcMnpWanNBtqoLCtVq9iEhrauzVV2Qrc3rd5hdAJJBwSW9vtQn/7/frAe3mp0AAAAAAEwcA4eMAIConlreI1dvmjZvvMrsAgAAAABgQpmUmZl52WyUrCm4FflKDT7vPaLty1aqyzGoTquaS6TGbHmmn1BZnstq9+pAlMrH3G3tWpITfu5rqQ1V8Zl9po7GbO2sDz+PGN/WoOrVFaGnGTUnVDbrpLYvO6vC5hJlWe32c9pl1NivP/q4eMbEw7x2871Jwfs/W966Oep62Dbe9jmYxzFFHLfco6pid/i5cc8C/ek6Zp4zxucZz/0YaMzAn1PgZyzYHiny2sz7EvWced06UNCgjH2Vmp9idUT5GTevP+KexSmRc5rXH2DeF7+O1c1Rk8fZPxT/NkP9alD1nhmO74WIn7Eo1x/9npWqyH4fIq4/ToUr9KuKXHU1/khrbNfx6LZn9HBaq55ctlvNodYCbW1+SOF/ARd0tG6TnjDPWb5WzcWZ4edth1SwOnyUkIJLev1HPeren0kVIwAAAABgwotdyRiaJp2tA21mp1NWcbvK0ptUXZCt6oJaHet1a8m+XcqwjQmEGF4dsI5ZXZCtl9PXqagw0B+cOlxdd0Q+K7wIjqsucAYZGTUnNLvV1l93RL6cElVtqwsPkqSUfJU1F6mnzhrX6FVqXqWxdmGpiva1qyxPOhYcV5CtPSoJXZus6w+EROFzKq/yijZtMd9rbC7Nr2jXPd211nU1qCMlX2XW+zSPM9A9CwSIwf4GdUS7Z9Y5l6jBGhft8xzie5aSrzIrEIv8nCq003r99ha/FZLZ36c9MKvTquZ2LUk7ou3GOSPfp1tLmivlPhX93ioUljnf4/buogTWvhz4nPHdMytgbAt+RtmqLmhSWrnz35yC/zZnnbTuR7TPchD3LKdEVRXpetn2eWQVn3B85vHdszqtaq7U/J7w9W9vkeZXOI81tKyAse2QCgp+ZD1+q6+Vr1CBfVTNBjUXX6+jdcExh+TNeUjN2+yjAsru/Ugupeo4ASMAAAAAAP2EjIPRe0TbQ5VKO9R6yi+lpOum0IBSZaRJajvuqKBqXX0FlUuSutbPcVZPeVbq5TZJOfMiNgXpaLSdo/64OiSlTrcFNuUlmp8SWUXVtb4w/Lxwl+7JkToabYGWZ6X2tPiVmlcScc4h1dZgqyir0Mk2SWkzIsKk/tWpMM8lX8tm23us0M5Gr5RTFBHs+FpqbZVnUT7PYbhnjoq4+gYd65Wycs1gsH8ZNUXKklcH7JWB1jmjvc+ORvt6mJH39qZ0l9R7Uq2O92j87A1Sv+eM954VzlCqpI5We3VghXZGVBqblZI71OTxSimzlWvdi8HdM7+O1YWvrevFk/LJpTRbcWw89yx0Tlt1Y9f6zTrW69L8hwf3mcet8EZlSPK22isSm7XGqHT8bt5UXWzZbatubNaaxjNSzt160nEvPteimR9J71yrx+3NAAAAAABMUEMSMvpOHY4MNxx2qKvHqoQyq6OGSGe332yS5NXJAQKh3Fx3RChiyrh/tlKjHKvrXLekdGUMW/WVGSRdofJ5ypJf3heNKbfe7oiQSJJ855zjutbPcVQMDv09M8dZPy+DClNLlTvLJfV2q9PoiRaGSX71eO3PrcpQW9jW2e0PVFkaVblXrv9zxn3PPGfls6oUB6qqjPi36fjMB3nPBvjMFdc9s85p/A+HK/vMB8HzgbokuYuf0dZY96x8pty6oDdeND4k73ld1FR9zfHz85nSUyR/99X2RgAAAAAAJqwhCRnj0bramu6aU6Kq5nZVNbdHTpuNW2CKZ/A4Vc3tzjXg4mZVWPac7TckvSndZU11dZ7Tsb7hGJYxPT00Ddpx/fY1N+M2xu9ZP9flqGCNQ9f6Oapu9FrTua3rH6aQXIO6ZxXaWVAbqPYsDo5LYKrxiN4zt9JSrP/hYLzP/tYXTVyz1hRs1dHeQNDY3PyMmps3OKoTC6ZfL2mqFlYE+61HRa6m2A8FAAAAAAAijFjIqFBFXHBtOCk1Yq25eFjr0fXa1pALrdc3WPFVTwWqJM21AIOPK5vyPZIClXB+xzp59sfgpv8m7z0zKzTjUl8Yuu4DbSNRjRvvPduhpmVWX90R+eQaljUNh/6eedXTa20GE/EenZWkQ8+rJ5ZZay3WteqipmphRThobD533toMJrgeo/Nh31gGAAAAAAA4jWjIGLZDTcusoDHdqNKypoLGrKAqn6csSR2eoQkjAtM7w2vURRMxXXUg91fql3v3au/ev9MjZt9wGOiexZgWfaWG5Z451Gl2TuRU3/6Paa0dGWVdzljTkAerdbUVmkULWIfgM+///fXDs1KbraBxoM/YeS9G457FF1I7/OXfae/evdr7T5W61+yLqkC5A1VFenbrO1bQGJoGHXVadCxXq7tXcqV/ZnYAAAAAADAhjVDIWKdV5hpthYvkTpF83cb6Z1alU7TNQaRgYObcFCSwI++VTJeWutY3qUMuza/wOM6XUeMJV4XVNwQ2pTDGxHJv3h9rsiQpW9/8S7N3OAxwz6yNccydgK/UcNwzu9xtJcqSVy+HNkixWGFprM1BAtfl1hJ7pWHhLj2c55KvpcFYA3AgpSraZ157IPyMNr14SD7zeO9ZuSeiAjgQCkau+egQ5V6Mxj1r3XNEPmNX7f48Mjs78B+uP9Z99xudwbUWc4O7P1u7SBvDVL5Wv6pxthbc79YUXdDvg/fMs1tNbZK72DmNOrqrdPj0ddKtfXrK7AIAAAAAYAKalJmZedlslKSMmhMxgztfS621Q25g6nJq6HlA4LXdOmDbLESFu7TOWAPQsaOwgzUl2tbiGFvucaxT52up1R6tc5wz6jXEuN5AOFKp+SnhlvB7DMvdFmXduLYG207Mlvsr9cu/vlOT1a5/Xf63es7RGfnewrzh67Xul8+4R7nb2rUkzb5jcFDkcc37G/Uzte8+bN1X83XRDc09G/CaTMZn77hn0iDugyJ2x44Ueaxo71Ea6DMfzDkHvmeKet8Gvg+Kci8CIsea46L+3EX9GY08VvR7FjlOUc4rWZWMS7Il/+/0D39Zq98Y3SpcoV/Z1k30Nv5I/zJ9g56Y5dWTtt2jC2o26Im8qbYXntGegi161taiqOMk9bY6jiVJKrik13/Uo+79mXpwq70DAAAAAICJJ2bICIyE6GEwEhcrUMdQeurnZ1Rya6oaHkrR42YnAAAAAAATyAhNlwaA8efxvWnyy6eSn39sdgEAAAAAMKEQMgLAlWqerDv2p0q3dun1jZ+bvQAAAAAATBiEjACQiK0pqv336+Sa2acysw8AAAAAgAmCNRkBAAAAAAAAJIRKRgAAAAAAAAAJiRoyZmdn69prrzWbAQAAAAAAACBC1JARAAAAAAAAAOJFyAgAAAAAAAAgIYSMAAAAAAAAABIyPkLGaVvkWbpFa8x2DNqaBU3yLCg1m5PSA7c1yrO0SZ6ljaqdavYCAAAAAABgqCR/yDh1k/YvzNHF03u11ezDoG09/aouTl+u/bctMruSy7Qt+vFM6ZXni1S4v1iVF8wBAAAAAAAAGCpJHjKWqv7BuzTl3F4tffOw2YkrcWGDlh5t05SZj6l+mtmZPNbcnCOdO0S4CAAAAAAAMAKSOmR84LaH5FabGl/ZYXYhEe+vVeM5yb1wJKaglyqrqkm3f2soKycX6RaX2QYAAAAAAIDhMikzM/Oy2Zidna3Ozk719fWZXWNIqeqXLlfG6adjVDHWaVVziVJbarX5XImqit2hno7GbO2sjxybFXru1YGCQrXah0jK3dauJTnh576WWm1eHw44M2pOqGzWSW1fdlaFtuOZ40Jj82xJWFuDqldXhJ8X7tK6itny1s1R18O28/Ye0fZlK9UVHmmNzVdqqCH69avc47gPEee0m7pJ+x+8S4p5f4fONd9q1NwFk6V39urorqEIjBep9sHHtMC/V4UE0AAAAAAAAMMueSsZp82VW5d06lz/AVhqXqWqiqUDBdmqLsjW9ha/sopPqKjQGlC4S+usMLLaGnOgza0lzR7l2o4TCBi9oeNUF2Tr5fR14eMEpeSrrLlEarTGNXqVmlepVeXBAaUq2teusrxu27Ea1JFToqp9u5ThOJhL8yvadU938Noa1JGSr7JtdeEhVsAo2/VX13XrHvsYK9SsKk7XsTrjnMa4kAuHdeqCNOXmRXrA7BtiH/+6WEcPtkm3LtfCdZt0jTkAAAAAAAAAY1rShoxrbs6RLpxS80Br7vUe0XZbVV/Xiyflk0tpVkFf7sP5Su09oj22SsPW1Q3qkFv31AR3WS5VRpqktuOO6sDW1XPU5LE1WByVkvUNOtYrZeVaYV55iean+HWszl5pWKGdjV4pJV+FoTDS0tZgq4Ks0Mk2SWkzwmGkO12p8sv7oq1iz7NSmx0VinUqzHPJ17LZdr3WOXOKIoNSSdJhNb93SZp6vb5udsXhmm81amFVU4xHo24013v83Vod/cWruph6l+ZWbRGznQEAAAAAAJJHkoaM1pp7/nf1gtll6jnrnFrsWanNBcEQsE6zcyTfqcPOMfKqp1dKTQ9OLd6hrh5J/VX+hXh10jEV23qtFQzm5roldavLDCfrj6tDUur0YLAZ0NEaYzpzkLdbPrk0v8JWnWkqn6csM4hU+LXBwNX0gr9LUoZumWr2DOzjXxfraHVRjEexPnjffIWk9zfojeq9+kA5mhktiIzX1EWaNVXyvsdUaQAAAAAAgJGQpCHjECmcodTglOrmdtujUvNTnENbVwemWiunJDRuXajScZB6u9VptlnCwWacPCu1uaBBHdbU6sC1Oad6Z0xPD029drxPxzqOY81kZS0a5P2dukn7lzbJs1DavL9I5dGCTAAAAAAAAAy5iR0yes7KZ23MElrP0P4wNkXpWj/H6qvVsd5AOHnFQWMMvm6v2RSHCu0MXnOjV5JzTcmuc92S/Lb1GJ0P5yY4Q2PQ06Uladom3V61XDeqTaeriwa/CcyFDVq6v0iFR6V1S5tUH+0cAAAAAAAAGHJJGjIe1rt+Sa5bEtyUxJwWHa8dalpmBY0DvtY5Jbu11SulzFauObU51pTmwaovtILGdGUEzzHAtOhYHnBlSOrSuwOtexnFoKdL37lFC793l6b4XtVr1WvlN7oHxdq0xn3z0AbAAAAAAAAAiC5JQ0Zp63tt0tRZKriC9QLDdqjJ45VySgaoSKzTKnPn58JFcqcMXHmYu61EWfLq5eDmLfUNOtbr0vxy+/HqtKrYLbU1Rd1Ipj8ZNSdsO1cHRKz76Fmpl9vk3FV7QItUcPNk6cJ5vW12DbFrvtWohYtzpHf26ujmDfrYHAAAAAAAAIAxbVJmZuZlszE7O1udnZ3q6+szu8aQUtUvXa6M009r6ZuHzc5AcNdcoqy2hohpzxEKd2ldxPqEfh2rs+0eHWWMYxdpK/AryzP2Re49ou3LVhoby5SqaJ9z3UdfS61tF+nw+XzGOXK3tWtJmvOYudvatSQnPCb6OQdzfdb6hg/epa6jw722YamyqpZr8itP641fR/scr8Qi1T74mBb496rwlQQrQwEAAAAAADCgJA4ZpQdua9SPZ0qvPF+syiuY0jvUAiFetw4UFKrV7EwyaxY0qdj1qn7y/IaBd/AecwgZAQAAAAAARlLSTpeWpBfePCSvJmvBwk0Jrs0Ih2lbVDxd8p5KxoBR4TU7AQAAAAAAMCKSOmSUdqj8+Vd1cepd+vGC/tZURNymbtL+hTm6ePrpYZ4mPbze9l+Spj+k2oTW7AQAAAAAAEA8kjxklHRhg5YebZOmz9Uasw+DtmbmXZpybm+MdS6TxwtvFusnp6UFDzbJs7SRsBEAAAAAAGAYJfWajAAAAAAAAABGX/JXMgIAAAAAAAAYVYSMAAAAAAAAABKSVCFjdna2rr32WrMZAAAAAAAAwChKqpARAAAAAAAAwNhDyAgAAAAAAAAgIYSMAAAAAAAAABJCyAgAAAAAAAAgIYSMY9zKxc9p94ofKt/sAAAAAAAAAMYIQkYAAAAAAAAACSFkBAAAAAAAAJCQSZmZmZfNxuzsbHV2dqqvr8/sGlVj9bpCZm7S7vtu0Gv7ynVuwXNafHOw44wObt2gXRFjM8PP32vSioP/HPjvG36oHcvm6Lpwr9OFE9qy+6c6Yk2nXpwSfi6FX9/90iN64rQk5emxFY9qbm+TVrwyzXHsj04+q9LftkiS8u+u19rMt7Vl9/tasqZIWVHGxK9Oq5pLlNpSq83nSlRV7A71dDRma2e9fWypivZVan5K8Llfx+rmqMljHyNl1JxQWZ4r3NDWoOrVFeHnhbu0rmK2vHVz1PVwu5bkWO29R7R92Up1hUdaY/OVGmrw6kBBoVpDzwPXr8Zseabbz2uOC48N3q9Y1x85LtqxAAAAAAAAkg+VjEPuOs1d9pwWq0krtj6iFVuf1WsXMrXYtq5i/t31Vhj5iDWmSR03F2n34j8NDPjwpyrdGug7+J4VKlrPV2x9RCvsgeJg3Fyk3cu+rreC533pjK6b/aienGkbM3WO1q65X77+xgxCal6lqoqlAwXZqi7I1vYWv7KKT6ioMDiiTquaKzW/p0HVoTHS/Ar7mGDAKB2rC4ypLsjW9u4irSoPjwlwaX5Fu5YoeLwGdaTkq2xbXWhERs0JVVXky9cYPtaBNreWNDvPKUlZxe0qS2+yxtXqWK9bS/btUkZohBUctoWvv7qgSWnl9jFWqGmFrs5zepRrHwcAAAAAAJCECBmHwUcnnw1XJapFL5/5SJqaqmxJ0p9qyezr9NHJX+rpD4Ov+Gc98dIZ6eb79dgNwbbhcEYHt5aHz3v6lDokpV+f5xjV8dLAY+LWe0TbbdV6XS+elE8upVmFjRk1RcqSVwdsFYld6zfrWK9L8x8OB4M3pbuk3pNqtVUHdq2fY1REWhwVjhXytPilnHlWmFenwjyXfC21jte2rm5Qh5znlKzrDx1rh1pP+aWUdN0U7C+coVRJHa22ikpVaKdROZn7cL5Se49oz/odobbAOd26p6bUNhIAAAAAACD5EDIOg+7zzqnFR35brhXB6dIzZylLH+mtt4zpxz0+faTrlJrmbB5SF3xqdzT8s57Y+ogxFfqM3jhte5qonrPOacqeldpcEJwuXarcWS6p7bgxZXiHunokpc0IVQN2dvullHyVOaoIo3MGflLXuW5J6coolFQ+T1mSfOfCYV9AhU62Oc8pSb5Th53Xb/Kclc+qeIysqgyq0+ycaMfyqqdXSk0PTyUHAAAAAABIRoSMIyz/+htCU6p3r7E9+luDcdxyKy1FUk6JqprbHY/QeoqWrvVzVN3oDQSNwXG2KdCD41eP12yz2KsU41KhnQW1OtYbCBoD129Mu7aqHVPzKo33aV+HEgAAAAAAIHkRMo6wI+c/lPSRbT1G5yOwUctEEajkk2M9Q9vD3KylvtC2nqEVTl5x0BhDb7c6zbYB7VDTMuua647IJ5dzTUmr2tFnW4/R8bBvXgMAAAAAAJCECBlH2iCnRbf77Os5xif/G19PkqrIyGnR8WpdbQWNcbw2N9cdXs+x/rg65JL7fnMdxFhTmgfJs1KbraAxuO4k06IBAAAAAMB4R8g40j78qQ6/J2XdVx/XJi+BysdMLbo7+sYrgRDy67rHOlb+3fVaOzs5IkZJat1zRD5j9+dIpSraZ+7CHAgFI9Z8NJV7tCRH6vAEqyIDG8Gk5q1zTGnO3VaiLHn1sm1jlriUe7TO2Lgl4/7ZSnVMyd6hJo9XyimJGAsAAAAAADAeTMrMzLxsNmZnZ6uzs1N9fX1m16gaq9cVMnOTdt+XqY6XBp72HDUMvHBCW3b/VEecrZFjjXErFz+nxTfb+97XkjVFUug68vTYikc1V9GPHxQ4z4c6GNykRpL0p3pyTZHSTz5rbBAzkDqtai5RlmOn51issUZrR2NwgxhFHeNrqdVmeyhYuEvrKvKVahsj+XWsbo6abLtSS1JGzQmV5bnCDb1HtN0xPTtwvlTjHIHXdeuAbcfsiGPJ6+gPGcT1AQAAAAAAJBNCRowfVojnc4STAAAAAAAAGG5MlwYAAAAAAACQEEJGAAAAAAAAAAkhZAQAAAAAAACQENZkBAAAAAAAAJAQKhkBAAAAAAAAJISQEQAAAAAAAEBCkipkbG9vZ6o0AAAAAAAAMMYkVcgIAAAAAAAAYOwhZAQAAAAAAACQEEJGAAAAAAAAAAlJypDxgdsa5VnaJM/SRtVONXsBAAAAAAAAjKSkDBlfeLNYhfuL9JPT0oIHCRoBAAAAAACA0ZSUIWPQC28ekleTdT0hIwAAAAAAADBqkjpkDMpwLTKbAAAAAAAAAIyQcREyAgAAAAAAABg9hIwAAAAAAAAAEpLkIWObzl8w2wAAAAAAAACMpCQPGQ/rXb80ZeZyrTG7AAAAAAAAAIyIJA8Zpa2vFKnw+fN6aGmTPEu3EDYCAAAAAAAAIyzpQ8Y1C5rkWSht3l+kwv1rtdUcAAAAAAAAAGBYJXnIWKq506WL7x3WC2ZXyL2q/Ke92rt3r/7uL80+AAAAAAAAAIlK8pAxHrfqq67Af2XfV6l7zW4AAAAAAAAACZkAIeNz+tWrl8xGAAAAAAAAAENkAoSM0m9a/lOXJOn8e/qN2QkAAAAAAAAgIRMgZLxXlX9xpyarXf/6P54zOwEAAAAAAAAkKKlDxgdue0huXdKpc4fNLknSvRW/1N6939ed+p3+YfnfiogRAAAAAAAAGHqTMjMzL5uN2dnZ6uzsVF9fn9k1JjxwW6N+PHOyJMl7tEjl75sjAAAAAAAAAIyUpAwZAQAAAAAAAIwdST1dGgAAAAAAAMDoI2QEAAAAAAAAkBBCRgAAAAAAAAAJIWQEAAAAAAAAkBBCRgAAAAAAAAAJIWQEAAAAAAAAkBBCxiTywG2N8jy4SQ+YHUluzYImeRaUms1JaJFqH2ySZ2nTuPycAAAAAAAAYiFkTBbTtujHMyfLe2qDXjD7ktzW06/q4vTl2n/bIrMrqaxZ8JgW6FX9ZH+RCp8ff58TAAAAAABALISMyWDqJu1fmKOLp59W+ftm5zhwYYOWHm3TlJmPqX6a2ZksSjV3usZlCAwAAAAAADAQQsYksGbmXZpy4VVtfvOw2TV+vL9Wjeck98ItWmP2DbVpm3R7VZOy7jQ7EjD1FmWYbQAAAAAAABPEpMzMzMtmY3Z2tjo7O9XX12d2jRmulU2aeaut4Z29Orprh61BkkqVVbVcN4aeX1LHL4r1gVUNeM23GjV3wWR9cLBIHb8Lv0papBvXPaYsvarXNm/Qx9M26fbvzVLPL4r1X4ts5/VZ/faXStKdW7RwcU74edRri9PUTdr/4F3qOlrUTxVjnVY1lygr9NyrAwWFag09L1XRvkrN72lQ9Z4ZWleRr1Srx9dSq83rrWsr96iqOF3H6uao6+F2LQm9BfN4kgp3OY4TOSZwTakttdp8rkRVxe5QT0djtnbWh56GWe9Vp5/W0mEOVIM/PxdfeVpv/HoIzhXX5wQAAAAAADA+JWUl4zXfatT1p4t0tNp6/OJVXbx1uRautG8eYgWM7+wNj6s+pD9avknXWCM+/vUhfSDpxpnGpiPTFiktVbr41mFbgDhZWd9r0oyep61j7dUHqXdpruOcgfBq4eIcfXDQdn2n515x1dwD02dpitr0WqzgqnCX1llhXnVBtqoLsnWgza0lzR7lmmNzSlRVMVveusC46kavUvMqtarcPsil+RXtWqIG63i1Otbr1pJ9u0KVehk1J1RVkS9fo3Wc0DlPqKjQfiwpNa9SVcXSAWvc9ha/soojx0mSLhzWqQvSlJsXDfumKf5dRXrtlUuasuAx4+cGAAAAAAAAg5WUIePHvy52Vh6+v0Fn35F061y5gm3TbtFkSR+ctlcQ7lCHo/Jwh86br5N0zTcDwd5Zs8Ltnb22qjfrtdffEgotNW2TZtyqyMrI3601KiXjtUgFN0+Wzr2mrWaXJffhfKX2HtGeYDWipNbVDeqQW/fUmOGZVwcK5qjJYz2tP64OSanTneN8LbWqXl1hPduh1lN+KSVdN0mS6lSY55KvpdZRjRg4p0vzH64LN0pS7xFtt1U4dr14Uj65lBYubLQ5rOb3LklTr9fXza44XPOtRi2saorxaNSNxnqPH/+6WEcPtkm3LtfCdeHwGQAAAAAAAIOTlCFjNB/3XHI2vP+uLkm6cXH/a+/5T7dJytH1oTGLlPqNydI7r8nvHGoElpGC4eT5KwoUo8nR9VOli/42s8NSp9k5ku/UYXU52r3q6ZVS040kr7dbnY6GCu0syA5Pl7b4zjmfd62fo+pgUFg+T1lRxkgVOtkmKW2Gc23CnrPOa/Os1OaCGNOlJb3g75KUoVummj0D+/jXxbaqVfMRnibv8Lu1gUrY1Ls0t2qLI2wejAErTgEAAAAAAMaxJA0ZS5VlVKrNXTDZGLNDHdVPq8MXCBpjVbPpd3sDY4JTpqctUlrqJXUcNkO0gV2TNlnynY9co3G4FM5QanBKcnO77VGp+Snm4KHkV4/XbLOEKh6TUY5mfGuR2divB25rlGdpk9bpZyrcvzZmxSkAAAAAAMB4loQho7XWou9VvWarVHvtFaOSUZJ0WB9stq3bqMnK+p4ZNB6W761LoSnT13xzlqb4Tsl3BRVpH/dcklKvH7lpt56z8gWnN1trHjoeoSnPIyiiWnLkDHa6tGRt0vO9uzTF+nka7CYwL7xZrML9Rdqsv5Jn6QjsjA0AAAAAADAGJV/IeOdc3Sjpg99G2dW5P+9v0BtW0PhHjvm8wQ1gcnT9nYGp0s4NX+L38YddxtTrRLXp/AVpisu2U7VDjGnRw6n+uDrkkvt+c73HWFO3B+cBV4akLr17wewZ2GCnS1/zrcbALuDv7NXRaLuED8IL507ponI0N1qQCQAAAAAAMM4lX8jYdV4XjR2hXSujTJe+c4tuN6a+BtZMvKT/ikjBApu43Lj4MWWlRtnwJV7BqdeLjaq5O7f0uy5kbNZGKNPnxqiQ26Emj1fKKdG6iE1ehkuFPC1+peatc+wQnbutRFny6mVjfcfBsTa6uXBeb5tdQyz4M3Pxlad1dFci1wwAAAAAAIDkCxnf36A3gjsCW1NhZ/Q8HTld+ndr5dVfGes2dul0lIo2hTaAUdQNX+IXmJ59+p3JyvqebaruzNeucHfpOCrk6gtVXXdEiliX8YQjBBxKXevnaHuLNL8ifL4lac5dpK/I1EWaNVXyntqgF8y+oWTbBXyw06MBAAAAAAAQaVJmZuZlszE7O1udnZ3q6+szu8avO7do4eIcfXCw6IoDweGyZkGTiqe3qXGcbyyyZkGTil2v6ifPD3PIOBymbtL+B+9S19EilUcJsQEAAAAAAMaz5KtkHCaumTmS71V1jrGAUZK2nn5VF5Wj4gUjNSV6FEzbouLpI1DFOFwuvJvQWpQAAAAAAADJjJDR2gBk5q2X1LE3sc0/hs2FDVp6tE2avlz7b3OuMzkuTN2k/QtzdPH000lcBRjYpMc9a5MeMLsAAAAAAADGuQkdMrpWBtdqlDp+EX2txjHj/bX6yelLmnLzonEXYq2ZeZemnNurpW8m8/qIh1X5/NN6RXfpx0ub5HmQsBEAAAAAAEwcrMkIAAAAAAAAICETupIRAAAAAAAAQOKSKmTMzs7WtddeazYDAAAAAAAAGEVJFTICAAAAAAAAGHsIGQEAAAAAAAAkhJARAAAAAAAAQEIIGTE23L1bX/9lh+b+8nlNMfsGrUxpP+vQ3F926OYVZt8QC1239fjZbn3FHANMELnb2lXVbHtsqzNGlKpoX6BvVbnRBQAAAABIaoSME8g132rUwqotcpkduHK/XaG3/zxLr/15lrzvmp0T01d+8PoQhcVIJrnb2rUkx69jddmqLrAeqyvMYQAAAACAcYqQEWNDKKx7UBfNvkHbrp6/CgR/7+02+0bHlBpbtWPoQRCH8aJOs3MktTWpyWP22e1Q07JAALmz3uwDAAAAACQzQkZgpFw4olNW1eNrf96gHrnlJmjEOOLr9ppNAAAAAIAJYlJmZuZlszE7O1udnZ3q6+szu0bVWL2uCHdu0cLFOeHn7+zV0V077CN0zbcaNXfB5HCDOWbaJt3+vVnq+UWx/mtRk2bearX7XtVrmzfo4/BIa+xdtrCqTaer18ovSSpVVtVy3Wgb7mQfOwh379bX1+Qr/A688jqqEJ/Szb8s0R+11urtD0o09yF3qKfnkK3C0DzOhSM69Vcr9ElodNiUmg65bzFbJb3boNfWP26txVipm6cGO/x6b+sd6vmtc/iUmg651aDXmmY4zu24LvtY+zlD54o0paZD7q9Gv/5ofV/5weualeuKOG+wPehSa63e/vvt4QFS6P6mGa3hY9nuv+21gWN3G59VnOc0PyvHZx79esLMn4/RUKqifZWanxJ87texujm2yjurv6dB1XtmaF1FvlKtHl9LrTavD/77rNOq5hKlttRq87kSVRWHf7Y7Go0KvcJdjuNIXh0oKFRr6Hm85xycjJoTKssLf57RjhWY3hx+bo7JqDmhslkntX3ZWRU2lygrxrgA2z2J6FMc996m3OO4p2HmvQMAAAAAjCVUMg4x18omLVycow8OFulotfU4PVdZdwZHLNKN65o0d0GXTgf7q/fqg1uXa+G6TbrGcbTJyvpek2b0PB0el3qX5q4sDQ+xAka9EhxTpKO/OK8ZoTE71GG1v/bKJStUtF3bFQSMX/nB65q7Jl//dShYlZcl77tuuX/5utLudo6dnFupuQ9JXmvcqVa/0h6yjYtzTcNA2OcNHee1Q4GKqUuttbbQLzxNOtgf0y0lmrsmXZ2xrst6n6mnwu/xta1HdOmWEs2tecp+pAT51Xcm/GxKTYcVAobPqdxKff0HZeFBd+/W160A0XFt4RGDEvc51+RLjnN266bQvXhc79nuZSBUtN27UQ8Y67Sq2QrzrPUCt7dI8ytOqKjQGJpToqqK2fIG1xZs9Co1rzJio5LUvEpVFUsHQsfzK6s4fLyMmhOqqsiXrzG8RuGBNreWNF/5OQcW2FilLE+OtRH3qMR2zjqtam7XkrQj2h5cO7HuiJRXGblRS0q+ypqL1BP1usKbuFRZIWRqXqVt4xf7+wxPk65u7OffphUwdoTuWYM6JKn3iLYTMAIAAADAmEbIOJSmbdKMW6UPDhap43e29t+tDT+/c7myUi+p4xf2cG+HOg62Sal36aZQGGl5Z6/e+PXh0Ljz70i6/pZwGJlxvaboknr+IzhG0vsb9IZROTl0nlJ6rkuXWmsd1XcX1zeoRy7dXGQEcBeO6JQtYPrklZO6JJeuzXQO699TSr1FutTaEA6qdjfovQvSZPeiK9zN2a/3tvZ/XZ/8/R3OysbfrlDnu5JumZf4FOe7dysz1yVdOCl/sNLy7t266Rap55AtkPvtCp1p9WtybknonFOK8jX5whGdMSsNr0Sc51RmuibLrz+8Yjvnb1fo7RhVnYn7nv7x4EEdjPXY/D3zBf3KqClSlrw6YNuIpGv9Zh3rdWn+w+YOyF4dKLBV2dUfV4ek1Om2cF+RwVfXiyflk0tpbkmqU2GeS76WWkdlY+vqBnUogXMOpLxE81MiqwS71heGnofuxbKV6goO8KzUnha/lFMUEYB2NMa6LltwaIWBvpbaULBZbX8/ccrNdUu9R+QJ3bMKeVr8Usps5ZrBLAD8/9m7/+goyzv//09rS9EkQ9AYogaSkKFWRCVF5EPwF0ZOyYltV8Gmxq9QV2KkilvsKqwBD0cTF2qru6JigG5XXNNN5cfaygk9IcVaCYtIg5TGbZ1IAlEgBkkmRCP1x/eP+56Z+75mJpn8gkhej3PmHOa+rrmva+4JM5l33u/rEhEREZFBRUHGfvT1S8cTTz0fOgOMBs/FmcBhPn7faPjTHo4AcedNdx0+8nY3wcLDH3KcONLvXM+oC8zGAVAwiSTg4yNmgGsRrQeAkaPdQb9jB92lw3bmolmW3KVpoznLPBZgnj9WzuBeD5w42tO8T4eEbMYHNn0JZAU6y6evnEAcPlqNa3PiSDOQzPBphAKuvm29e96G2MYEGpvpwENqUXi26sD4Bffl5ZEX7bbgF+YDujCPrPEeqN9tZMKt5XALkDSaFOfhtmYOOe+zmBdyMsLLgFsOhoJ0WIG6lYENTeZPIh1ofc/8/7uYffV9GLMbVpBuH7VRg3v2tQgbzwySBvjYd9I2aJlHStR6+2YOR31OIiIiIiIiMhgoyNiPvp4UB60futdLjKSLPvFJjkXSYvH+w/zl0Q0csUurpyytZMrSpwmtxjYQ3CW+LgnJvcws7IKdQejKrCvIJzUBWuoGKpMOe51B947QznULeyy48UsFLRjPBxh2rgfw4jV3oXasZ9nfYh5zewHvzLGzVYu+bLtje0kaYZckB0t5rZtzTcL+56clWmXwiGTON4/1mR2kM4OfkXTRp8fZk/1mLZVVPhiRzYxgmbiVERoeIBYREREREZHBRkHGfvRJSwcknmOsq9gzx1vqzUMxCK27uHNzPZDJxQMeaIyivblfMuzcChk+EncwbKY3bMOU/mVvZOLaETqw3mBfLaJpiw/wcr5j3UMrS9JcyzBwC9/Apj/0bMzQuovWmpcDuTt2f5ZL+2hpA+pD6zG6bs6y4ZMlQiZh30XJzOyh8OzLkyflwmQA0mc71nqsr+BRR5m7iIiIiIiIDE4KMvajTz44DGRyjrmuooP/7XpIHE+iWdr8rYmMMtdW7I0/3WsHGlM4yxjDml/48R4p300LHkZe6dgUBPq9jNelIJ/UBD9NZe4g2MAFGENl4S3bw3eK7heBNSUd2YxhJcoR+ehsh7hz3ZmG8bnOXZ+jKcTjdYeeYxszgvIb7EBj+GN7fU6X/iyX7p/gW4+s2k0DHrzXmlmBy5mQCa1123oX2Ly2mHUbNrBhw8+Ya7YBh5q7W79wLbV1fsicRJbRknLtBBJPanm0KbSOpSsIrACjiIiIiIjIl4KCjP3pTxtoaIVRecb6iN96OrS79J820NAaR/os507S80jPy4R3t3DEXKuxG1//9nrHztWWqOs+BtZvnG4GPnpiEc21fuKyFrjW5osvyScJH4f6YzMSk70eYM82i+mjxmY6gKTxoY1srF2Y+ys/dA0t241sxvIKmto9pBZ1lR24Br/PD2Nyg9d/2MK9eEf6jd2l7WBkcGOcQpKeKSY1wdUpxjGtMVIL3Mfix3uBZjrNDMvA+o3mJkCnUO1LNbSOyKbQ3D15wFgbliROXeDaSCVrdT7p+Hi9h2stBlw99SI7mJzBpXeYrXB4SaW1scziKlcQMaWkKjgPq4+XG53XYsaL3DLVQ+uOilNYlmxlnCYmD9zyACIiIiIiIjJwzkhLS/vCPJiRkcGhQ4fo7Ow0m06pwTovk+e2Si4e6zjw7gZ2unZ7ns6oBQ+Snhg6cvyNnzp2kbZ2qr7kzsl0GDtVe26r5OJzdrFn5cPBdR3Dxmt1t7t862mm5DkXoqvn7UedO13HZtjCve6AW3sNdY5NTILlxgcq2NPFDsRh53HoqC3lHTtoGbWfc9xp5YwripLR5+gXX9KAd6QxX/uxHztLsAu2utYm7KgtpZEFjM9qxmfvmB11Xsb8I44ZDPz5gucL9h0T7GQxrqOrz4EK9lSODp9/4DWw73XUlvLOkXwmzsQ1Hub5Aroak0ivuYNx7aySbPeYJ99ybq/OJ9042rDe3qyFeeRuLOYKaljTZQm1fZ4YynhTSt6icKrj56PNPHesY9quLWbdfd8ijv38ZtY/87zZDqFzjggdad1RamwiE34tQtfBYs29mVccO2gHHpcY5Xzhx20zXmTB4mwcb3khzmsStV/4jtkiIiIiIiIyuCjIKINeIJAXtgZjIKjYTSBzSIgUJBX5MgkEGMOCt4Ggqc8IeIqIiIiIiMhgonJpGfSsHZB9tJrBs+0H+dg4JCJfUt5kEoGGWjM71F5TU0RERERERAY1BRll0LN2QPaSaK4JWGKVArfUDfEsRpHTga+ZViA9y1g3c34VN2YC9buVxSgiIiIiIjKIqVxavhQir304GNb5GyRULi2ngyhrMprrRYqIiIiIiMjgoyCjiIiIiIiIiIiI9InKpUVERERERERERKRPFGQUERERERERERGRPlGQUURERERERERERPpEQUYRERERERERERHpEwUZRUREREREREREpE8UZBQREREREREREZE+UZBRRERERERERERE+kRBRhEREREREREREekTBRlFRERERERERESkTxRkFBERERERERERkT5RkFFERERERERERET6REFGERERERERERER6RMFGUVERERERERERKRPFGQUERERERERERGRPlGQUURERERERERERPpEQUYRERERERERERHpEwUZRUREREREREREpE8UZBQREREREREREZE+UZBRRERERERERERE+kRBRhEREREREREREekTBRlFRERERERERESkTxRkFBERERERERERkT5RkFFERERERERERET6REFGERERERERERER6RMFGUVERERERERERKRPFGQUERERERERERGRPlGQUURERERERERERPpEQUYRERERERERERHpEwUZRUREREREREREpE8UZBQREREREREREZE+OSMtLe0L82BGRgaHDh2is7PTbDqlBuu8wpx3P2tvvpyzaWRz2cO8aLY73Jb3PHmpjgNNlRRs/m/HgZ5awafL8uG36Xx1t9kmInKqXMey8geYPMK+++5G8hb8wugDFD7F5n/ItO90sOvn32fZ740+PXInT22+mcy2XTxesIxXzeaBMK2ccUXZxOHDN+cGjpvtPVJI0jPFpCZAy5Z0msrN9n4UnLetvYa6ewo44e4lEt0F5fz9rgl8ZfVlnPm+2dgX1u82nwLUVzD8hUVmBxEREREZBJTJeApZAcaP2LNxLgVl9q1PAcZCPvtxPp+21nCmAoxyiqSUvMXS6iqyzIbemPEiC6r3c/t8s0G+XOwAI7t4PC+PvJ/vomPszfz64evc3ewAY/3/5JGXl8fGd+OY/JOnuNPdq3eOHjw5AcYvs+0FvDMnnT1z0vEdMBuHpmEL9zJx3VbizYYviX59P47F+wWcWe/h73dt5XOzrdfs323qKxi+LF0BRhEREZFBTEHGgfDBE8wrm0tBl1mMP+CSVKDpD/z0A7Otdz6/vZi/J/oY9m8FnGE2isjQct2tLN+0gmc3reCBfzQbYeYTVlvgtvyhQPagIXieJdxhxARjdv11jB8B9dvsTMLfv0pdG8Sd5x7zzssyoW0XG9dY93+xtx5IYfT1rm6DXzBY19csRoA1tNxjBf4GNIuxB+JLGpi4zrx9eQNx0r++8kIpX2v1cuLH5YSVyvTGBdP5PNHP16oVXBQREREZ7BRkPMU+am00D/XOBeV8lglf/e0NelFFhrxM7rhjIh7zMFhtz6/guxmN/OamRfzopkX86LeNeCbfZQQarX7P3gGv7mp3HO+9lPNjiFKOOIco4c5equfDNvOY9Fl7DXV21uOeORW04MWrQKMAsIYzf13DmYnZfJpbaDb23PnJfGYeExEREZFBSWsy9qfgWoy29rd4uvwJaty9bD/gsaJckvc9x7ztO8zGHvv89gZOnFvD17vKYpxfxdLZ3tD9+goevWux0Z7Mm8sv5/At+7kx+E3fxys5M6i176WUvEXh1GZeyakgZWMxVwTWWGurYc3Nt3E48DAga7XzPNC6o5SVS9aGDsQ4ZmyWc3t1Pok7Sln5Xr7ruTasz+CFVeF904P3I49nPVdHqMa4Ziklb1E4fh9rbj7IDMf5wp4ndunv4mwSgweMMWe8yILFE/CZ1yLCdQ2fv583l19OZZWrU/eveU90OX9zPqZIz9V5Lvf8zZ8bU/D1tM/Tary+Wav3c2OSed3MOUa5ZqeDf/wRz37nHHb9tp6LvjORo79dxOP/YbT9ewm/dNQPX/TQEv5p8of85qZn2WJnOl7XsprFj9XbbYQ9JnbudRF5+Nc8MCWO+v/J4z47axHgOtfx/lpL0S7VPhplDUgirEUYtpbiClLX5XNWbSnvHMln4szQ/ynXOonmebpY0zC+pAHvGPMocKCCPUsWudZitPhpKruMlu3u7vElDXipYE/laNfYkdZvDBszOFa4+JIGvCMjzz9S27CFexmf5QkbN3A8oKO2lHeedLzoELy+ScbR0Lkc19/xWOvczWHrXsY0pvlauV7zyPMJMX8++ktPPsPmkev8/HW9n5nvdabw9+6uxgx8DkadA+Z7reXz2xs4kelj2LI+/vFz0lY6v5PM1/p9nUcRERER6W99+r1PDMEy6blsbjIbAabyYMHzlBc9T3lRLunA2RPutu8/T3nRKh48z3xMLFbweSac+ddtUQOMKSVv2cG8DB7NyeDRnAoaMvNZunq50dPDFYv3cyMVdr9S3mzzcuPGF0lx9fNyY3Ux3rrS0PlGZFMYPN9ybq+2Az059pjLa2BqcR/GjE3i1GKWzoZX7HHX7PCTPvstcmfYHWa8yAL7S5U1Xgav1Hu50Vi3yvpiheOaZbCmOTd8fcAR2RRW58N6u996H4lTi139UkreYqkdDHOP6ZgXBK/FVc3RriuhL5D1geuVwaM5lSTNd1+v2F/zGNjBPBzX7NHlzVwVPNdiXnBcb+tLbOi5PuoK4C7n9vnwkqP9lXoPVywOXYvauwJj1NBqf9kNncv8ohuL2K7Z6eF6HvhOGv5dv+KX75ptMHNCGvjrqXFF7a7nu5MTgDQutUurt9y/iMWP1Ts79cEv2LizA0ZM5oHNm3lgShy8u9EVYAR49ZHfUQ9k/sNmNm++mUw62LW2LwHG7g1buJeJRdl8vCWQlZeO74AX77q9JE1z943LKmbiTPDZ/epq/STNdPSLcU1DK9jnC55nzxYf2MGwUNAvVCYdaI9qTD4Ti5I5FG1e9vNMrAs9xz1lNXSMyWdiyQrnmfrIT6cjOT++pMEOAobGJKuYcQsd2W3TyhlnBxBdcwv16JGYxyzKBteYzZwfvBaLaHJcSyuo6Lh2AxJgDOn2M4zl3F5dzBUtofezNTtwvIf25P3Y0tWYh5dU0gCkZxmfHTOm4x0BrXXbwgKMAF+p8wFePp9ktoiIiIjI6UpBxpNqBz8tD2zyYv3S/tG+50KbvpTN7936jJMm8Sl+vvKWmR0SsJwZUz207ljpyNpazAvrfZCZawS5rCy8ULbbWmrr/DAimfPd3WhYn+HI1lvMvnogaTQpQEpJLun4eMWZ3VB1Gy/t8PdpzJi01bDG8SXq8B/20YqHJDtBI+uWbBLbanjJkWlYe1cFDXi5qmRe8Nj5yR5o20etI9Pt8JLLIwa4XBkeqyp4s835hSxw/Utdj7XG9HDFLcYXt/qKqNcVgBmjSQQaap0ZiYt5wcja68lr3i1vMon48f3BkZ1ZdRsre5UVac4Val+qoRUP3mtD179fxXTNYnPdw79m8+bNUW6/Ztn12Jl7ZpvjttLeyqTwqfA2x+2pXlQaznzi22T49/DLiAHCTM4/Fzh6hL8GDl13K8s3fRt++zv2A+emdJFC2gevvl4XDBzV/09elKzCX/BWIDDatovH8/q6s3R3VpCc5aGjttSVfXd8SQUteEjNNQJw7TXUOQJMJ97YRwcehqe5u3VtBYljoKO2IhSoKq+gqR3ivNMZ5u4cIz9NZV3P68STl7kzG7cXcOgAMGZS30ucp5WTluWB9n34A5mW08o5fwy0bHEE5LYX0FjrJy4rPzhmfG42ce01NJqZhr0R45ikJROHn2NvOMbcXsA7UbI6T7puPsOCn6+O99/DS1byZluEz5NYdTmm/TmUOcn9h7hrJ5CIj9fNrP2A3bv5KvBFci/eyERERETkS0lBxtPAF8nJQDNnRCsjmj+JdDNABOBrdn1xCWh9z93v8JLLI2Q++Gkxkmtq78rg0Ztv4zDzyBrvgbZmDrm7hH1ZCohtzBi1HHQHjqpuY2Uw+205EzIjZV74aGmDxOTQxA41+60sxW4zKn3scwUe13K4xREYnD+J9AjPMWIAMSwQFkHVQVqB9Nld7Lrcw9e8W/bjnNmG/cp+TgMmlmsWo1cf+T55edbux+G3QFDsF9wX1ua4BQJsa+4Lb3PczEy/bl13K9dlwP4//CoUROzCRQ8t4dl/GsmrNznKqQdC4VNs/snkYGlq5vRlXAdw/TJ+HQymXsey8s3cPNbuNGIyN9uxiTtXbmZzuf2Y/lQwiSTg4yPmhV5E6wFg5Gh30O/YQXfpsJ25aJYld2naaM4yjwWY54+VM7jXAyeO+s1DsUvIZnxg05dAVqCzfPrKCcTho9W4NieONAPJDJ9GKODq29a7522IbUygsZkOPKQWhWerDgpdfobZn6/1u43PR+Nzp6e6HBNqa62sxAnB989o83DycUYrfNbjDxy3z8d7oXUfX4n2O46IiIiIDBoKMg4BKRcmB8twl1Y7bq418QaA+aXFIfHCAcpY646d0ZY4tdh9Laqda1tZDi+5nEfX++xyaLtfb0qNIWJQNqjHGZuLeSGn1MqWnB2Yvzv41++vedVtrMyxMy+D53SXl/dESslbxvXvav2w/tD9Nfvyszd72f+7mAKGM59YwT9dVM+/22swDpw7eeofMuHdjVbw9H/qrbLplXdC5jnE0cGH9XDdwz9i8ogOdv08j7y8x9nVBpn/8GuWXX8do88Fjh7sU9l0xweRMjsJK/F1SUjuZWZhF+wMQldmXUE+qQnQUjeQmXQrSDV2hHauW9hjwY1fKmjBeD7AsHM9gBevuQu1Yz3L/hbzmNsLeGeOna1a9GXbHdtL0gggM994D+16Hds+MzP0Z0zHO8LPmy9180exPvj89gY6lzXweV06w7tab1pEREREBg0FGYeAw+8124vCu9e16/36dn0XntV3ktgZba3OtQWdN7P8d9WMYNsr9fYXu14HGqOIkPHZvbVU3mzPeblVauzMMhyY1zy0ztej662sFnMdy1g4NxEIzamCBrNjv+v6msVqsJZLX/TQrUz2NPKb+7uqL67n0FEg49t8l9/xo7mOjMfrRnEucPRwtGBcL11vZVbV7w1lbz6+swPG3syvp6cAhzn4e8g8Lw7a6nj19wCvsqxgI/XEMXnejxg/oqsg4QBqb+6XDDu3QoaPxB0Mm+kN2zClf9kbmbh2hA6sN9hXi2jaYr0fnO9Y99DKkjTXMgzcwjew6Q89GzO07qK15uWXZXdsK+se1/qyjlsvloCIjb2MiV0ynXLtBBKN5UT621deSGf4snS+Mr6Bzh+XE7ZLoYiIiIgMOgoyngbOaLZKwb64wGyx9bZEttfcX0acAms4ucuLYzf35xvYsGED6xZfbTbFKLwsOla1d9mBxm7L0YyS7FW7aYi43mC00u0eqrqNlXbQLPga9/g1v5riX1rX9md3mG0RrJphBxqTSTGCdFaAM/y4JVBKX0NVLD8DdlC4Z5mv1nXtUqRrFqPBWS6dSfZF1sYt3920gmcDt3+aiAfI+I51/4F/hC37GoF2dv3GHYy8KDsTD438OYYsyN5IOT9U7PzqI8+yqw3iRsTRsXMjwdUZR5xD6KX7Bff9Tz2MiCOOen73SG/zGF9lWUEe34/0+PLdtOBh5JVmNLd/y3hdCvJJTfDTVOYOgg1cgDFUFt6yPXyn6H4RWFPSkc0YVqIckY/Odog71/2fMD7XuetzNIV4vO5MzNjGjKD8BjvQGP7YmM95bTHrNmxgw4afMdds61c9K4vu+v24Z6wNYLxMmG+9j3f/2eXli0Q4M2oaf2y+UueDxAl8Hu13HBEREREZNBRkPB3s3s1X8fD55eYXZVvVbbxej7E75cAKfBm50Zn1N+NFbpnqoXVHRRdrOHVlLpfaNbVxF11D78KMa6ms8kFmPgscm7yEm0fuRjNLzw5edVEGDpC1Op9012L4i6na4Sdx6gLX9Q/vF6P5VWFzt4K3jpLsnr7m117DRfb39YwJ4V+RU0reClvLMCvLCzRz2MxkCazfGHEDAvsL8ogJZAXmZe/2Hblc2g4KT80PC1iDY61FxyY7t0c6VyzX7Eutnl/OXcSPbjJu/74HP7D/t9b9x/8D+I/fscufwOQ7buWiwMP/8Uf80+QE9v92AEqnf7+M370LcVNuxs7fdAkc/8WmXXSQybcfjrTyYrTjMbDXfYy8puMimmv9xGUtcK3NF1+STxI+DvXHZiQmez3Anm0W00eNzXQASeNDG9lYuzD3oVzaZQ0t241sxvIKmto9pBZ1lR24Br/PD2Nyg9d/2MK9eEf6jd2l7WBkcGOcQpKeKSY1wdUpxjGtMVIL3Mfix1vvZ51mhmVg/UZzEyDD1VMvsgOjGVwayx9q+qD2pRpaR2RTGEtWfZfvxz1lrSOcPruYK0bE8Nk1aRKfAmc0D8D/IxEREREZlM5IS0sLq0DJyMjg0KFDdHZ2mk2n1GCdV0D2tFXcO+Fs8zDYu0jP277DceQHPFaUS3LY8d75/PYGTpxbw9e7WLcoUKbq0lbDmkB51fwqls72undKjsA6D7y5/HLHzsWRhAd8ws4d45gBc3++ge+mQ8euf2PO8j8arfZ49RXhZc+mGS+yIGx9Qr/xnMLn37qj1LHzcwzX1CGsr9nPnlOrcS2yVu/nxiR337Bz4eOVCBvlhPeLMC7YmYw/5lse2P/KLP75l65GCMzDmSEY8Tw2+3UNcc5vHrkbnWtg+nglZzcTqvNJNK6vJfx1cP28GK9lw/oMqi58i8Lx+3p1zU4r193K8n+ayNHfmhu7ZHLH83cx2XE59ht9LnpoCf802Yzi2Px7+HdnqXUM7lzp2NQF6Nj5ON9//Tp+/ZPJxFHPxrz7+MX1y+z7AdZx7Md27Hw8ckZiVwLnbNvF4wXLIq7rOGzhXnfArb2GOscmJsFy4wMV7OliB+Kw8zh01Jbyjh20jNrPOe60csYVRcnoc/SLL2nAO9KYr/3Yj50l2AVbXWsTdtSW0sgCxmc147N3zI46L2P+EccMBv58wfMF+44JdrIY19HV50AFeypHh88/8BrY9zpqS3nnSD4TZ+IaD/N8AV2NSaTX3MG4dlZJtntMri1m3X3fIo79/GbWP/O8sy1mPfgMi/C+iPneGNDl+3FPxnScK4b+sfxeEpNJW+n8TjJfW30ZZ2rzFxEREZFBTUHG08UF5fz9rmzYWcrXKpU1cLJYgavm0z9YJSL9IhDIC1uDMRBU7CaQOSRECpLK4BDrHwbt30nO+G06X91tNvaQgowiIiIiXxoqlz5dvF/AmfXw2ZQFfKZ1i0REBiVrB2QfrWbwbPtBPjYOiQw2WVneGNbULeSz72fzWWsNZ/Y1wAhwqJkzzWMiIiIiMigpyHga+coLpXyt1cPf79rK52ajiIicctYOyF4SzTUBS6xS4Ja6IZ7FKINWSslb3Jjp581VUZbJsH1+ezF/T/QxrK9l0gHvH+QMPPw9p+t1MUVERETk1FO59GlnBZ8uy4f+KFGSbqlcWkR6KvLahxHW+RuqTqdy6Yjr/0YQwxqHp0poPV5z3eIILijn73dN4Cv9Xtps/W7zKda1Gv6CgvEiIiIig5GCjCIiIiIiIiIiItInKpcWERERERERERGRPlGQUURERERERERERPpEQcZ+kpGRwfDhw83DIiIiIiIiIiIipz0FGUVERERERERERKRPFGQUERERERERERGRPlGQUURERERERERERPpEQUbpvYKtTFzXwMRnyhlmtvXUtHLGrWtg4rqtxJtt/S0w78CtZIXZQ0REREREREREekBBRhl6ym9gz5x09swppandbBya4kv6KVh8imSt3s/SjS+SYjacVuaRvrSSS7493WwQEREREREROeUUZJTeCwTr7inghNnWU9sLeGdOOnvm3MBxs+2UWEGqM9tRWY8iIiIiIiIiIlEpyCjShY7aUjvrMZ09W3wwJl+BRhERERERERERwxlpaWlfmAczMjI4dOgQnZ2dZtMpNVjnxSCfW8CwhXsZn+UJHThQwZ4li0L3C7YycWYyTWWX0ZnbgHdMoMGHz5lhWLCViTO9wYeFnSeokKRniklNMI9bwbt3nlxjrcVYlE1coKG9hrqwzMgVpK7Lhy3pNI9yPgdjXhBxzOBYYey+xyLN3xrzLNdjA+c2xzXH9NNUdhkt24MdLOZzBXdfu/3jLek0lYd6xJc04B1pXpfYxuzyNY84H4eIr0U/mF/F0tnJvLn8cg7fsp8bMwMNPl7JmUGtq/Nybq/OJz1439FnxossWJxNorO7U1sNa26+jcPEMuY8cjcWc8WICHOwx2FHKSuXrHW2nBRf//Z6Jl4Z9VXi+Bs/5S+/2wbBvod5+9ENnLXgQdIDF6d1F3tWPswnABc8wiV3TqZjcy4Nfwqdx3NbJRef4+gHwHRGOc9DBw2/mM2R94Mdgub+fAPfTe/gT0/NofQPZquIiIiIiIic7pTJOCQUkvRMA+OzmvEFsvLmVNAyJj/COnweUosa8FLhWLfQi9fZL6Y1De0gGDXU2WPW1foBaNmSHgrcBcuk0/EdcJ/BlDSzgfHnVkafFxBfsgDKA8/Ryj6Myypm3MJCR68+am92BN5WkLrODlQGnyekFu0laZrjMQVbmWgHEF2Zkb0S25hWgBGaykJj1h3NJbXA7mBe+/bQa7VnTj+VwUfl4YrF+7mRCh7NyeDRnFLebPNyo3NdxRkvsqA6n8QdpXafDF6p93JjdRVZAFW3sTJ43A4q2vcfzcng0UCAMaYx11JZ5QO8TJjvehAp104gET++P5z8ACPAJ7+bzc5Hc9n56AaO2EFF6751CwQYQzK5eOmDJP0t0G8DRxInM/G2eUa/7swjfemDpH+4ITjWnjcg/c71jLrA7DuXS9MB4rho6tVmo4iIiIiIiAwBCjIOBQX5pCb4aSpzZt8tommLDxKySQ4EnWwdtaWOzL41+H1+SEju2aYg06YzMgFatocCVSeerKQFSBrfy3Lj9hrqupnX8SVGNl95BU3tEOed3rP5RzBs4QJSE6DDty34nIYtzCUJHz5HJuSJJ1fS1O4hNTfwPAtJmuaFAxWuDMXeim1MGHauB9r34XdcjxNPXtYvc+gPrTtKefSuxfa9tdTW+WFEMufbR7JuySaxrYaXHNmDtXdV0ICXq0p6GjCzdDnmqt00AOlZyx2PmEfWeA/UV1JZ5TjcrTt5avNmNke7rbzTfEC/OrLZGXxcy4fvAueM4etGv658/dszGUU9b78Yuv6f/O4ZGlrjSJ9uXv/n+XMDQAd/3fFHo01ERERERESGAgUZh4D48V6gmU6zfLd8Ny3AWaPcWX4fH3GXFp948rKeb8iSlhy1DLfjaO8y+JzBvditofOYeSx2cVnFwU1fAlmBzvJpj9cDB3Yb18Yec+RoK7AZCLjWmSXZvRHjmMCJo35IyGZ8WLbq4ND6njsz8PCSy3k0WKq8nAmZ0Fq3zchG9NHSBonJjnL9Huh6zMXsqwcyJ1mZkgAzpuMdAQ21gcBkrH7BfXl55EW7LfiF+YB+1MHH7ouG/8VcdrrKoLszncRvxMG7e7DyjwO28fGHkQOWz/9kFrNmqVRaRERERERkqFKQcahwlfi6xZ3bu4BNl+wMwqRpoQCXlYHn59gbkdZH7CfTyhln7AgdWluy54Ibv2zxWaXkjkxB8DI8AWszmH4cs2uxj3niycuseSdkM/7Ltjv2jNEkAolTi1lavd9xK+aKEWbn/lP7Ug2tjpLplGsnkNhWQ9Uqs+fpLpOzEoGxs5iytNJ1u3is2VdEREREREREQUbpQ2Zh1+xgmCPAZWUChm9O0m8CG5kcCK1VGFxvsK/Kb7DOMybXse6hj852ezMV51qGA7qmYQ/HDK6faV+HL8vu2FUHaQ2UNzvXWQzcgiXP/axqG762QMm0VSodnk0Zi1NbLt139XzcCrwbWo/RdetRVqSIiIiIiIgMBQoyDgHH63yQMAGPcyMSgIJJA5ZZGFw30BUEG8AAIzDsygnE4aepsj/KksMdr6yhw5XNGF6iHNH2g3wcVpZur9PYrRUkujIUYxwzguNL7EBjhMdapdUxrLt5x8/YsGEDG35ZzMBu79GzsuhDze71HHvP3gAmcxJZM6bjHdHbDV8GolzaCvzFJwW3xu5H8zjHlaEYvSw6mqsXr2PDhg2sWzywPxkiIiIiIiIyOCnIOBSUV1ibghQ41+ZbQepMLxyoHJDA34kjzUAyw83A5gCyxvQw8spAMM/aVdssI+617QUcMrIZj1fW0JGQzfguswMX0XoA4rLyibePxJcUk4qfDmc3OxgZ2hhnBanr8kly9ol5zEKSntkaHM9iByyPHQzLsLSunZfzu9mFe+6EDOsfnou45lqztT8Fgn35LIhhk5fD71nz7+2GMC6rdtOAlxsXZ5PY4w1fBpId+Bs7M8Luzj3w/gE6gFEXB67VPNKXzmKU0c2/bRfHY96V+mquuchahTVu8veYazaLiIiIiIjIae+MtLS0L8yDGRkZHDp0iM7OTrPplBqs82KQz81SSNIzxaQmhI501JY6NjEBCrYycaaXli3pXe5AHF8SPXDnfGzUfgcqgrtXD1u4l/FZHrMHuOZnBdvOMuZrPbYZn2NTGvN8LVvSaR3fgHdkDXV2KXHUebnmH3lMV0l2cHfnyMFA93V0X/+O2lLeOZLPxJnJ7hLywPkd52getZfx3n3B+VtiGTO8T9hr7mBeO9pD1yzojp+x4cYM8P+Jf7ujlF7tIzy/iqWzvTSsz+CF7tY6nPEiCxZnk+g66OfN5ZeHBf9SSt6icKpj/m01rLn5NqvUuSdjAlmr93NjJjH3P3mmM2rBg6Q7LsjxN34a3En6699ez8QroeEXsznyfqhPmAse4ZI7JweD0Ec253LovPVM/EYde1yl0JEDkEc259LwJ+Ng4GeDDv70lDaAERERERERGWoUZOwng3lup4IVyPOHr8FoBzK7CnYNGQVbw4OMMihYQUYfrwR3npbuzeVnG75LRl8C0CIiIiIiIvKlpXJpGQCFDB8JtO/DbwbPGpvdJcIig85yJmRC644KBRh74OrFOWQA+19TgFFERERERGQoUpBRBoC9OUnYZjOFJBVkEzdAm82I9N08cjfmk95Ww0tLerPhyxBkbwb048nN/GbWLP75l2YHERERERERGQpULt1PBvPcTpWIax9GWudvqDqNyqXD1kOMYvCtcRiwnNur80nHWMtRRERERERERGKiIGM/GcxzExERERERERERGUgqlxYREREREREREZE+UZBRRERERERERERE+kRBRhEREREREREREekTBRlFRERERERERESkTxRkFBERERERERERkT5RkFFETq6CrUxct5ekaWaD9JuLH6G86HnKC+4n22z7sph/L9XVjztu93K32edkmVHAy9WPUzbfbJC+yil5+NS+tgB8wtYtjWwtMg4XtdGwpY0VxmEREREREYlMQUYZBOaRvrSSS7493WwQkQFyW94gDkLOv5fq2Wkc31FGTs4D9u1pnjP7ifTZZ5RXHMbblkRFmdFUFk9NWyv5FR0UGk0iIiIiIhJOQUaR/lCwlYnrGk7LDL1hC/fazy3abSvx5oPk1Hr7YQrK5lJQ/gQ1ZtuXwN1ZaUAjlUt8ZtOXgpWdd4qzLweEl8c2OrNLI9xW55gPGtRWPNtE9ohEKvLjWGM2ciYF+Sn4RrRQ/OwnZqOIiIiIiBgUZBTpB/HjvXCghqZ2DyOvPL1yXk48eRl75qTbtwpagI7aUsexGzhuPkikr9o+5B3z2JeCl5zxCRzfUYuPNLJOqxJrHw/dHMgsfYCc9Y1AOzuXO47dVW0+aPDK6SB3LPg2jWCR2Rb0dW7YlAhjD4eXU4uIiIiIiMsZaWlpX5gHMzIyOHToEJ2dnWbTKTVY58Ugn1vIdEYteJD0xMD9Dhp+MZsj7zv7zCN96SxGBe+H9/HcVsnFbGDntjFccufkYBbbkc25NPwp1C/Yd2zo/vE3fspffrcNgK9/ez0Tr4wLNRqcfWMyrZxxRRM4VnYZnbkNeMfYx9trqLungBOuzitIXZdPUvC+D18gWDatnHFF2Xy8JZ2mcudjLMMW7mV8VnOov30utqTTPGov4737IoxnsR7rCd7vqC3lnSfN/Jku5hZUSNIzxaQmBO77aSq7jJbtrk5h43Gggj1Lwr9Ox5c4rlfUeRGc21lR22MYs2ArE2cmu+Ybeoz5XLu5Fj16zU+Bix+h/Jo0x4FGNpc9zIsA593P2psvp/m1uTz0tqOLLXvaKu6d8EFY/7ODPT5iz8b5/PQDx4PM8ZoqKdj836H7YecwtL/F0z3KfvTy2MYiprRsIeelUby8OCv4fnB8RxnfMzIRc0oe5qGpwR/aiH0A7l79OLck1fLYzeWEh6x6Mqbdd0Tgfjs7lz/CQ1WOLhHmRf0Wd7BsRgEvL87i8PoHqM16nFsy7eNtEeY4o4CXF3v5y/JHOHDL49yCca6g2OYWKB0PMucGQA5l1TPxBu838lKE8vK7VzvmHvF6EeFcUeZFYG7nRG+PYUzr2n/omm/wMeb17eZa5JQ8zEPjfTx28xG+73gO5pgBK55tJP/cJEojZjE6fUZ5RRPZdNH32mLW3fct4hp+w6yfPG+2ioiIiIgMCcpkHCoueIRLlj5IOrvY82guOx/NZeejz8D0R/h6oM+3nmbK0lnEvfFTuz2XPW9A+p2VpH/LfTrGzmLKnedwMNivg1F56xl1QaiLFWCs5+3geLkcTLon2OeT3822j2/giB1UDPTb+WhuzwKMQR5Sixo4/2gg066CloRsxpc4lu6fVs44O1AWyMbzHfDiDZT9bj/Ix8BZo7rISGxvDgWwCiaRhI/Wcjjxxj46EibgCSuZLiTpmQbGZ0FTWSADMJ1G8t3l1QVbmbgun6QDFY5Mwd0kOufPClLXFZN6LNSnrhZSi9yl2lbgzj1e3dFcUgscpwoGGH34guOlc+jcBb0o+w48x2bHuSpoGZPPxGfKGWZ2twUCjFZ2pBFA7Op1CorhNT8VzruftWPrrLLlsrkUlD3HnvY08ooe4TaAD96nGUg+Z6r5yJD2VvYD8AMemwH/ETzXXDY3nc3Em1fx4HmO/oEy6bLn2NPuOB7wwRPMCz7eDio6ztnr8urMmVQv9vKXQEbb+kbipxa5Nkq5e/XjdjDJ7rO8FqYW8XKJFQoKlRjbAaYRWTzkKMMN9AvqdswcyqrtYKQ95mM7YMrih3lsRug0VpALVzbeY83TIm7y4p1tBw1zHiAnZwu+EVncZ8wr51ov8W0+qqvgudpGyLw4vGR6RgEvVxcxhVoeC645WQ63FOAsNr579eNUz07Dt96RKVh7sXtuMwp4uXomKY71K1+qT+MWo1TbCtw1hq5/zgNUJhe4rkUwwFgfumY5Ods5d757XrHJoazaDhYbr3lXJdWBAKNv/QPkOAKMOSUP2wHNwLy24MucGX6uEVk8VD2No1F/LgI+YdJY8L89PHLQ0OVMtr19Noz4iOlRpn711IuIA0i/lLlmo4iIiIjIEKEg4xDhmT6Z+NZd7Fn5MKGVpbZx5MXA/emMmpYJ725wBfc++d0zNLTCqGmOYCTYGY734g/0+3Mdx4njrJRA+3TOOgd4d0+wD4D/RTNzcgAcqHBk2S2i9QAwcnQwyBWfm01cew2Njky840sqaMHL+QsLAR+dzgCNsRvysHM9cOxgMMholUrvtoJj27dxLFLJdEE+qQnh2YYnnrzBcb+QpGne8Mw/FtHkuD9sYS5J+PA5jp14ciVN7R5Sc0OBtWHneqB9H37XeJcZ2ZmFDB9JaP6240vCsyK7FXyOzkzERTRt8UFCNslGcBOsaxsIMJqZkd2/Tg7dvOYxKXyKzZs3R7091UXMOaIPnmCeM4uQHfy0thFI45KLARppdf6cXfwI5UWhoGFG4tnQ9r4d9PtvHjICgC++8RYfcTbf+EYXQcqTppGXchzZbKvexgekXGgH4GYUkJsJvvWO7Lqqcp7a0U781JncDVQvecQRJLOz2BwBsfBMtK7HzCmZhpdGXnJkulUvKWdnWwJTbglFisYlJ4AdFAz1e4SiVaH7Qa7MuWpq6yF+/JWOAJxdKl33hhUcW/V2xJLpu2/JIt7M0sPHQ3c57gev2QPuuax62nU/cK6nHNfnubu24CON3GAA1MuYJKD+bVd243N3GRmIM0aRAvhqnZmS1RSZ2ZoxCF5/52Pt15zMaUZw05JT8nAwwOi+/jl8f2oCx3eUO+ZbTdH6xojn8q2P/nMRVNSJl7PZ98cz3cejWPPHs/HzEcnGaQL+uOOvdAA0/BnlMYqIiIjIUKUg45Awj3PGwvG/bXMEGA0XTCcpEY631BsN22j9WwcknuMOMrbW0dplsHAbH39oZzzeNs9sHFAtdeHlwCErSBwDHb5tRimtFViMO9cLrKHzWODfMGxUMhAIHNpBuSDrfKEx7cd6p7sCXPHjvWEBvzDTpjMyobv5F+LxesKCgoFxnYG1E0f9kJDN+C6yCIOPG5PPxD5m/sWP9wLNdJrPsXw3LZEyQ6/cysSZ3ogBxthep5Cur1mM1txHXl5e1Nt95hR7o6WVj4J3dvBeG5ydaJV/Zp9zHgSDhlO5MFhGG4WdCTkohK2fWE2RIzCYc62XeBqpNQJ31e99CJzDmAgBp251OaYV7DODauDjQAuQNCoYGHynud3KftvYfbaeO/gWwYwruWREO3/5QyDg18jRNvBmOc+cQ1YmoUBkFNGumVu0c1njxicHSovt5x0p88+p6giH7YzN8My/nrCvf9hrBNV/8HGcBIz/woyxS9bDA4zA/Ivx4ryuNt+HEc7V3TWzFJ5/AhjGwa5eBKfqr1qZx+d/ZrZY/lDKnFmzVCotIiIiIkOagoxDwQVjiAM6Pui+/Dh6nxTOcpRCx8L/olVGzdhZTFlayZSllVzy7elmt5Nr2mjOAuKyio0dkp3rG9oBupGjGUYhHi801fpcga2Oo/aX3YJJJOGnszH02ON1ZuaeHZh0ZD9GlJZMnHGucF6GJ9hBQWOXZ+eaigQ2bLGzCMcH+kUIJB5fkk5drd91znFmpmCsnGXkBndg0ENqlnX/4yMRoncxvk6D3W15z1Ne5LgZ6yHub/0IRlxANlO5Kg327GsMBh0BPmoN/TBkT1vlPldRLunB1sFtXHICkMYt5k7EzvX1+lUa546wg2rGmM71AQlkUK5vdJdndxWI64IVGPyQA8FsOx/VdUbmnp0tePg9MzPTzcqwDA/Sudjnip9aZDxP51qPlufueoDHdrS7rklYCTrVFOWUsbPNCjRa/dzl5T3SciRqINWdWZjGlKkJQDuBt1annAvPARKYstj4+XGsxykiIiIiIqeegoxDwfsH6ADizutLgO8wH3eZuRhZaN3Fn9LQCvFXPnhqA432eovu3ZEdN2eZckIyw/AynH3432imY8wk4u0gXyAwZmXvWWsCBgNhM60vz0njAwG98CzDiBqb6cDD8C7jLnYpt2vNRsfN3Oyk/AbHeobRMxZDO0iX0tRuBfd6HWiMIhiYBXujGmtOSTMbwtaJ7NHr1F/6uVz6trznyUv9iD0bHWsebnzLkcloS0gkgzQSeYfX/9bKR6njuY00EhOg+cMdENwE5mwaXnOcq6ySBvNcg9Q7ze12ebNjbcHgLfqmIb1nZfLhWlvQcTPLf1c97S7V7i7jLyI7e88IplobyiRwybV2UM3OFgwr3zVYGZbnMM5scLLPddyxHqPrZmwQEypJtwKJ8Y41MUMcO0gvr+U4CWHrWPYHd5C1kZdyyqxS9ghjWRmvxi7WjltY5qOIiIiIiJwSCjIOCfV83Arx35hurKvo8P42Wlph1MVmafN0Er8RF7a2Ys9t48hKO9CYZKQSBeYXdnwgRC63NZ04YheiFkwi6dhBTmzfxrF2L4kFQDDb0C7pjRAIswJ6k4JZNlbpcqQNYRzswFooOBlJjAHLCI4vsefV5WPX0HKPHWjs5hqZrAzOCM/RzvY89kZ4xuLxJdZYSTPdm9bE+jr1q34tl/4Bl6QCTX9w7/5sqPnQbrx4POlt71PzwQ7+1h5Ys/EjWlsApnJV2tnQ/havRNiFurf2t35kBzgHXp/KonslvCw6Vs/dZQcae/rYGVdyyQh7wxJXEMwO6AXXbrRLmV1rOYazrln4eo5uZll0rHw8dLM9r64eW1XO9+xAY8/+KwYyOMM3vYleBu7joZu34COBKYvdm9ZELovumzWHhgEnGN3Vi+CU8ynJQPOhaGs4zuVnGzawYcPPtPGLiIiIiAxZCjIOCds4sr0eEicz0bU+4nRG3RbY0MXuM3aWayfpr3/7HtITO2jYtjZ0MCbzSF9gbBbTxbqP1vqNM127Uw+MNbRs98GY/K4z9Rqb6cCLd6bXXu9vDX6fn6SZ+SQF1h3sKnhWZ60LZwUl4cSTlbTgIbXIvTPysIVbHcG1RTTbZcvuua0g1ZF9eLyyho5ud08uJOkZcxdmKyjqLtteQaq5ZqO9NqQ78zAG5RXW5jMFzvOtIHWmFw5URtlIZg0t91REuDYxvk6Dlr2pS+p4aydp7I1djHJpa43GNPKuSaPh3f8GdvB640ekX5NLOh/w3gcE124kYRxXBXaSPu9+1vaxXNoKcKYxfdpJ2Dhm1RY7S80IHg2g516q5fiILB7qMiPRy2MbzTlZ6xx2VeobSVfBs+q6dhjhJWeGdf+hKrs82zU3L4+tdqwLuWqLXbZsZPbNv9exXqJ9rsyZETISnXIoM9ectIOix5sd6zPMvzfsPNbzilzG3JXqJdvxkcYtzuc4o4D7piZwfMcWY63MgGqKltdynDRucc63qpzK+gjXoi/KhuPjIyZcHWWNRUPh1R/h4Wyao12HOy61A/YZ5Cy+2mwVERERERkSzkhLS/vCPJiRkcGhQ4fo7Ow0m06pwTovBvncgi54hEvunOwI5HTQ8Atjt+dvPc2UPGdGYT1vPxraRRrAc1slF59j7FRtn7tjcy4Nf3Ifcwa6jjjbXaYzasGDpCeGjhx/46euna67Na2ccUXZfLwl3bWDcnxJA96RNdQ5S4ntvnGhbnYJb2BX5RWkrsu3dnGeY++WHHhMu3WuYZHOG2Q/3rVTdCFJz7jXFIy46UmBtSFKiGMOQYH5ubW4nnt4n4jjRbgW7vM4Wec8K9J5ILbnWLCViTOT3TttB+dg7MAdYW6u16knr/lJ9wMecwYC29/i6Sr4x5svp/m1uTz0trNPI5vLHuZF7ADizZdzdvtbPB3cUXoqDxbczcTgdW1kc1kdlxTlkrzvOeZtt8qqrRLtQB+3huCYIYEy7CDXmLHw8tjGIqZg7pQc2d2rw9dEdO/YbLl79ePckhTtnD0ZM4ey6pmY4Tf35iLhfY7vKHPvZj2jgJcXZ3HY2JQkNM83yNlYxJSW8OcCocfjPK99LPT+2M7O5eGl42HXLML1Cj8X4eeL0CfSJis59gYsIY28lOPYFdxp/r1Uzz4n4rwt4dfWHNMa70P3GPPvtdfrdI8dPjd7F3L75yDiuew5pJivKbDi2Ubyz02iND+OSO9mIZ9RXtFE9tEU0n8UrR7gaop/+WO+5QEafqMNYERERERkSFKQsZ8M5rmJiIiIIaeDvQ+0wP+mctmyaGXQQFEbDTedoObx8yiIEEMOuHrxOn48OY79r8zin39ptoqIiIiInP5ULi0iIiJDT3Ucle+C5/99SHnUqvpP2HpTK7zr6TLACHP53uQ48P+JlxVgFBEREZEhSkFGERERGZIW/SiVmraPyH6gjfBVbj+jvOIw3rYkSrssk97Ahg3fJXnXvzHrjlL+aHYRERERERkiVC7dTwbz3ERERCSaT9i65TBsSuOGMsfhojYaboKKmSMIrKwrIiIiIiLRKcjYTwbz3ERERERERERERAaSyqVFRERERERERESkTxRkFBERERERERERkT5RkFFERERERERERET6REFGERERERERERER6RMFGUVERERERERERKRPFGQUERERERERERGRPlGQcYi5Le95youeZ+20qWaT23n3s7bI6mvdVvHgeWannilc9gENFR0Umg0y6A1buJeJ67YSbzYMqM8or2hk77LPzIY+ss7bsKVRP48iIiIiIiIi/URBRgl33v2svflyzm6qpKBsrn2bz08/MDv2QFEbxf/vI3y/j2ON2SYS0ZkU/D4Rz/9rYmuR2dZ7K55tIpskSmemkZ6vn0cRERERERGR/qAg4xDz4mYraDhv+w6zKSj7G+M4m4/Y88Z/m029k9PB3pta8f9vKjeUmY2njpWd13AKMvQGWiFJzzTYzy3KrWSF+aDBqWwEpf97Nt6bPqA8x2zsjU+YNBYFu0VERERERET6mYKMEsUHvNeXzEWHFbNa8LQlsXLZmWbTKVSIx+uho7aGFrwkFpjtX2ZraLknnT1z7NsWH+CnqcxxbMki80GD1ppl51DT9hHZd/VDaXPOpySbx0RERERERESkzxRkHCICazEGbo9dbPYYIDkd5HaROTZs4V4mPlPOMFaQ6si0G7cwQjipYGv0bLyCrUxct5ekac4HhMSXNNjj2KZNZ2SCn2NvFNB6AJLGR8vsM7MCo4zR1dyC3M8xWgZlfIk76zDitQg7V5R5xSi2Md2Cj3FeV7q/Fj16zSFYNs2IFvL7sWxaRERERERERPqPgoxDRKBMumDjW3xkNgJc/EgwAHnvhLOBNPKcG7/k/cB8REwKr/4ID4ns7qpMOiGb8ety6Qxk2m3xEZdVTKoju3DYwr1MnJnsyMaroGVMfiiA1dhMBx6Gp4UeE+bYQU7Y/xx25QTi2vfh3w7H63wwZlJ4wG9aOePWFZNKDXWBDMA5KyHXHVSLL2lg4kwvLVscmYJ1k1zzt86Vz1m1pcE+vgNevEagMb6kAe8YH77geOkcOneBEUBcQeq6fJIOVITGm1PJ8AIj2BcTK9DnHel4jmU1kFUcFhx0suaJ9ZzvKQhd1+5ep4AYXnOXsuH4AO/ln5gtIiIiIiIiIjIIKMgolrcfDm7y8vS+j4BGNgc3fZlLweberM/4GdMv/gjeHU53xbktWy6jZbt9p3w3LcBZowKZbStIzvLQUbsy1IdFNG3xwZhcKwC3/SAfB5rCdkMuZPhI6Djqs1vtUmnfNis4Vr47Ysl0fG42ce011DmCaLCGliWO+9PKOd8OtjWVBztB+Q2u+4FzNT4Zyuc8vqSCFrycH8zgs+bJgd0cD/aC40sc1wZg2mjOAlrqnFd1EU2uecZm2MJckvDhcz52ewGNtf7QtTUMW7g3GGB0PedYXieHrl9z09fZ/S5w7qd9L5kWERERERERkX6nIKMMoE9JHgH+5q+aDQYfra5glaFgEkn4OfaGUXDtyl700dkeClINO9cDwcChl+EJjscFS6UD57Me6y6ZXkHiGEKByCiGXTmBuO7mH/Vc1rhx53rt+2voPAZEyvxzsgOqSTMbomf+xcQKttLeHPYcT7yxL2Jm6PCFexmf5YkQYIz1dQro7pqF8zWfDSM+JXC1eiOmzFoRERERERER6TEFGWXQGzYqGfCQWuReN3BiUTZxwV5WgM4K2K0gcYyPplq/KzPu4yNW8MsKDDbTGcy2W4PfZ2Tu2dmCgcdEM+zcyEE6F/tccVnF7vmvKybVGfwEji9Jp67WbwUao65VuIimOaU0tVuBRqtfH9ZkdJSRm9yZhV5SszyAn85Gx2FbbK/TqVG47AMatjSygHNInzmi28xaEREREREREekZBRll0DtxpDl8d2THzZVRN3I0w6aN5qwDu2k50kycd7p1PxgYs7P38OJ1BMLGZ3kADyOvtINqdrZg9PJdy4mjfkhI7notRPtcHY71GF03Y6fnE09eZrdZgcS4rOIIgUbHDtJlNXTgIbWoD4HGKNxBVh++OaU0tUceq0ev00m2Ztl5pM9MYyUf0rCljS7yREVERERERESkFxRklAH0VZrbwJP8qdnQMxHLbcOdOOoHO1ORoz5rnb+ECXjSgEDm4rTpjEywNyxxBcHsgJ53uh0wtEuZg/cjswJr4es5upll0bFaQ8s99ry6euz2At6xA43dXSO3QAZn+KY30cvA19ByTwUteEgtMnbHjvF16i1v8kfQ9lUCK2v2xpo/no2fViZpl2oRERERERGRfqUgowygM9n29tkwtrNvmWPbCzh0AJJmhmfPOZ040gwJ2XizsNcFXETrAQ+pM7OJs0uauwqe+X1+SJiAZ5p1v2W7z9oF2bU+YiFJJY5dnMsr7LJlY24FWx3rJdrnGpMfISPRaQWpzxg7RNtB0dCmNda5zfNYzytyGXNXTjxZSQtevM7nOK2ctCwPHbUVrg1oQhbRVFZDB168zvnG+Dr1zidMGgsc/SpdF7CLiIiIiIiIyKmgIOOQ8AMeK3qe8qLnKb/5cs4G0q+x7xc9wm1m937UX5lj1lqFhK/35wxyNTbTAdC+D7+93uLxOjs4d+wgJwKl0sbuzQGBzU6CJdPlN1ilyI71ESeuWwCVxm7T96TjO2CsRTh+d9hu03vKaiBsXUZnQG4RTeWQZqxn+PGWdN5x7EpN+Q00ssB1nvFZzfjmGLtQx2QRTXMqaHE+x0hjmrYX8M4WOwgb3MU7xtepN4o68XI2NRu+braIiIiIiIiIyCBwRlpa2hfmwYyMDA4dOkRnZ6fZdEoN1nkxyOd2qq14tpH8sYlUaMMN6ZXPKK9oIvtoCuk/6mOQMaeDvQ+00LwpjRu0w7SIiIiIiIhIv1Emowy4RRuS8NNK/rOfmE0i3Spc9iHZI/opi7H6qzSbx0RERERERESkzxRklIFXHcdlmxJh7GH2LvvMbBWJrqiN4v/3Eb5N51FQbTb2hrUZkff6DrpaHVNEREREREREekZBRjk5ykZQ+r9n47m4U8EdidFnlF/fiv9/U/uxtPlMCvJTqaGF4i2NNFQo2CgiIiIiIiLSH7QmYz8ZzHMTEREREREREREZSMpkFBERERERERERkT5RkFFERERERERERET6REHG01xGRgbDhw83D4uIiIiIiIiIiPQbBRlFRERERERERESkTxRkFBERERERERERkT5RkFFERERERERERET6REFGOQ0VkvRMAxPXNZBaYLb1XHyJda5xCwvNpn4Wmrd120vSNLOP9EZKyVssra4iy2w42eZXsbT6LXJnmA0nX9GVlVTd5LhdOc/sYhvNz++/lU33X8UPzaZTwprPf033mA0ngYcl825l0/238vNLzbZT7NKr2HT/rWyadwnXmG0D5JrpeWzq6rVIeIRNzp+xm9ZTmmB2OvkC8950fx5LUszWL5t5rLqpklUXmMcNFzwdfB267SuDT8HWk/87geP/76ZvTjdbbaH3xJP53iMiIiKDl4KMIoPGGlruSWfPnHT2bPGZjUPTtHLG9VOwWCJo38W/bsplxqZcZryx1mw9NVIu4b8GYxDvlDiVAdV+0P4wNwV+vnbWm62nzGvbNnPTE7/iyVqYVPAlvr4ACWNIoYMP280Gh4RH2DQlE99O67WY/77ZQSSCwP/frbvg4gejBBr9lKz9FTc9sZndXMbC0yJwLyIiIn1xRlpa2hfmwYyMDA4dOkRnZ6fZdEoN1nkxiOc2WOcl3SjYysSZyTSVXUbLdnfTsIV7GZ9lfin2R+z7pTetnHFF2Xy8JZ2mcrMxdiklb1E4tZlXcmZQazaeTPOrWDo7mTeXX05lldl4chVdWclszy7+devD/N5sdPGwZF4ek9jLk2v/wmtmM4T6eIDG17lpw0GzQ+xSLuG/Ci7jSNWv+MmfzUbswNtVjKrdzP+3zW82nmYG+XO99Co2zRjNu1FfK4cLnqZqSgpvbJ1NcVcBsUHD8TPtcpCXn3id/wR+OOtWvpcWuu8WeO3+wP9lXhvhPA69+D9z/TfX8y8Xx7kPtkf+/3z9N9fzL6l1EdtOqYKtTJzpPS0/vyJ/Tjv58M25gePm4Wi6+J3gZCi6spLZbBg8f4wSERGRQUuZjCJfSj58c+ysxzmlNLV7SC06yaVUIgEpo/mmx8/u2oOQljZIyqpF+iKQoRW6PVnrDvS++2H3gd8jLe+7z1N1EPCzu9xxrIcBxqIrK/mXi+GNrbn869sdoYzkKEHEcR4jGDlIxI/3woEamto9jLxyoJcjOblOPHmZ/fmczp45FbQAHbWljmM9CDAOFp4xXG8eExERETEok7GfDNa5DdZ5ua0gdV0+ScH7ZlZDIUnPFJN6rII9laMZV5RN4CtTR20p7zy5xt0vuOaXeR6HYAaFKZRdEF/SgHdMqKUlQjbdsIV7Ge/dR909B0l2PAf3vGxhY3aRydBF1oKVIdHsfqx97rBxzTEPVLBnyaLQfZv5XMHdN76kAe/IGuruKeBEoD1almFMY3b9mkecj0Ok16IroUzG3UyozifdPt66o5SVS4zMjPlVLJ3tmH99BY/etdjZA5hH7sZirhgROhLxXDNeZMHibBJdB/3hmYzdjenIgDx8y35uzAw0+MKzM8PGjNCnR5mM3btmeh4LMxt4cq2f791/FZiZbVGyE38461a+N9LKkBw761a+l+Z4jCGULRfK7lvN1SwMZgtFyiiz+o4N3vezu3wzJYcD9+1stWOvc9N2D/9VcJnjvcWZPWhmtZnnsViZbe5jlvC5hfV1ZLNdMz3P8bzCueZmZxMGdZEVZ47pfo7hr2Pgupn9euVLl8kYznpd2oKvpXnfzfrZC/u/cOlVbJoxIuLPT2zmseqmWXjfs7LKrv/mev7Fs6XLDLOu/q/36DMs7H3b8RnWxWcWET9DrHOxJZ3mUYE5OD5fgmL9XO9ibj3qEyELsRefYW5W37MiXlOL+ZkXdv0jXN/QPI3n0d1n8LRyxhVN4FjZZXTmOsZtNz7jHbr6GeqRa4tZd9+3iGv4DbN+8rzZKiIiIqcBZTLKqVWwlYn2L9+Bv/DX1UJqUYR1+MbkM7FoAsfKQusWxmUVO/rFuKah/Qt4yxZ3lgHtNdQ5flE/vsRuL6uhw30Gt4Rsxq/LpTPqvOxf6sfvdmQxlNLU7sW7bivxjm599fGR0JeSYQv32l9KHM9zTD4TS1Y4HmFtNuMdWUOda26OLj0Q25j2l7MDFY7rUcnwgnKG2T3Max96raxbTwKMIV5urM6H9Rk8mpPBo+t9JE5d4NqEJaXkLTuYZ/fJqaAhM5+lq5c7T0TW6gWwKtAncK5iFpQ4Nk+ZX8XSxdm0Bsaz+5liHRM8XLF4PzdSYfcr5c02LzdufJHgElh2gJEdpaExlzdzVdi5+pOHazI9dNQf5DUO8udGGPsNR9ArRv+5wc7qKt9Lhx1UdGaRmeW4cVl2QOwJez0w/2i+N8sx7qVXsckORoYy0aw1+MLWe0y7ik0F6fxfILus6iBxWXmOfo6stqrIATyczyF4e513gXer3EGoa6bncenfHP3K99KRdhWb7PkH1gwMPL7D8RxueuJX7oDfn1+3j29md9Q4oLW24/dG7rWvlzUmWXnBMYM8l7Hw/ss4FvVaSMBrLW3ACFJPxRp0dlZZv2QpxvoZZnxW+w44PsMam+nAw/CIQXbbsYOhAFbBJJLw0VoOJ97YR0fCBDxmJv60csatKyYV5+fTSsgNfVZA6PcI92fKbhKdnzvdzd9mBe5wfIalU3c01/h9pPvPsNitIHWd8RlcVgNZxcbnplsgwGhlR4Z+b4ntMxjAQ2pRA+cfDVyPCloSshkf1q9/XT31IusPOemXMtdsFBERkdOCgoxyChWSNM0LBypcf7E/8eRKmtohaZr5C7sP3xxHpkD5blqAs0b1rMwqfrwX2mtoDgaqFtFc64dIX3Ji1LKlm3ltL+AdVybEGlq2+wAviWYwtcdWkDrTC/YXtsCx5CwPHbUrHZkVi2ja4oMxuaGy6oJ8UhP8NJVHzl7omRjHnDaas4CWOuf1WERTlAyK/tSwPoMXVtl3Vu2mAQ/eawOBweXMmOqhdcdKR5bhYl5Y74PMXFcwsvYuIxNxVQVvtkHi+Ol2wG8euTO8UF8RGi+i2MfEzpYMZTiupbbODyOSOT/QwZtMIn58f3BkNVXdxsqwTMx+ZJdK/9/bVoTrP/92kkqm/c41Iv28Vu93jOthyZTR0Pi6KyD32rY/stsPY6eYu6Ae5OUnHJllf27kXWBUUvRswlj8cNZVjG18PSxA+tq2ze5jh//C1kYG7LpdM/0yxnKQl51rah7+C6tr/ZB2WdhGDe9W9f+16JPCp9i8eXPU21M9+wgYMD+cdWsoaJviYRR+jn1g9uqrtbz0dgckTOZfbqpk9oVw3N/3TXW6+wyLz80mrr2GRsdn9fElFbTg5fyFhbD9IB8HW+xgVzCAV8jwkdBxNPRHFqtUercVHNu+jWMRSqYDY7qz69bQssR5P/R7hDvbcBFNjvvdzt827FwPtO/D78hIPPHkZe4/bPXjZ9iwhbkk4cPnfOz2Ahpr/e7PTaeCrcEAozszMsbP4ADX716LaD0AjBwdMVD6jr/LP7XG7I87/mr90bbhzyiPUURE5PSkIKOcOtOmMzLB/cXDsga/zw8Jye5fdtubjV/gF9E0Jz1q+VFk1pedyJrpjFjq1B1ncK8HGpu7zpDskhfvugYmrmtwZHA4y6UmkYSfY28Y18bINrECru4vVL0W45iBL6NJMyNkqw4oH/u6CvjNn0S6GaAD8DXTioekSNX1QWs53OK4O2M63hHQUNtNcK+HY7a+5+53eMnlPOoshbYfd8Xit8IClAPlmovTifM38FogKPXBMToYzaUDnPlmZU5GkTKab3qg48M2o8EORnpGOkqoAf8x3nXe5yA/MTMGe+rSq/hemp/d26NnPjrFsr5f71iZpuHPEV57u4EOPIw8z3n0IH/ubhOXk23NfeTl5UW93deTj4D+9MExx3v4aC5NG7hAsdPv/282MzZtIPDJGX/xg1Td8EiU9fLmMfFCON60rYsy1+4+w1aQOAY6fNuMz2Afne0Qd671R67O9lBgcti5Hscf0bwMD5Y7EzxfKEi3hs5jEOed7vjMjzamwf49wh3wM0U7l3P+lhNH/VZm5zPmHzkd+u0zrBCP1xPhdxs7uzNSZuiVUZZGoQefwbaur5nb7/2HIWEyt1xgtvTQH0qZM2uWSqVFREROYwoyyinnLPF1S2a4+Zf3PrMzCBOySQ5+ObD++h/Mqhgg8SWBoKB9c6wt2XOBjV/s0mYjS2HYqORgOVT/jdm12MdcRJM976SZgX6nftOalAut+V+xeD9Lqx23sDUV7bJkZ59q5zqJsevRmLGouo2VORU0uM5ZRZbZr9/YAaxjfkeG3EH+L2K24Ml3pCVa4G6gS1xH8/MZo+mo/WOUdfes8uVNjltXazD2C+drZDilWYpfenaQ9tI0xjbuZbffGWBvoyni698f1jJ/6y6O04HvvUBm43pKg8G8eay6qZKqmyayZ1MuN/3fNvfDe8LO3IvLKna/t69zrpVoBwrP9dpBPR9NtX5XNmTws94OhnU2Bps4Xmd8LttjRv/9wJaWTJxxrjAxzd9y4snLrOVWErIZH+gXVkLcz59hzjJyg7tSw0NqlhUQjXRdYv8M7oX372XGpp/y4fhKqm6qZFVfg40iIiJy2lKQUQax3mYWds36Rdz55cDOBAxb2L3/WIu6+13rPHW71mNM1tBSXkMHHlJzQ1+EThxptheid4znuPVuTcOu9WxMx/qZZfb8T/Hu2Iffs+YfWhvRfQuWPQc2VqkPrI1o3V7pRcVizGP2yGJecK0B6eXGgQo02hmDpF3lCJjZG6R40rlmQAN5fTGQwR+7TNq/l9URMyHtzWj8jvURI+xcfDJFD8YOEoO1XPqwnyP2P3/4jdG8+7e/8Fq931qT9LyRfQ/sxOQwe96YzYytuzhOHFdeHFj+YS3zN+UyY9MeJt5UyaZvTjce1wN25p57d2THzfnZOXI0w6aN5qwDu2k50mxlJ04bzVmOQGD8eG94MMzeqCRpvP05Zo/Z7XIoUbL0XHoyf4DyG4JtvgP2etBhgcaT8xnmDiZan6++A5GzKHv2GdxDFzxN1U33wM5cZmzKZf77ZgcRERERi4KMcups38axdseXiiC7hGhAMgsDaxYZXzbMLxn9yirV4kBllJ0n+2h7AYcOGNmMsXzxCpaGGWXpBflh2R2RDLtygvtLdIxjhtlewDv2l7Swx8b6RZOrKf7lBjZs2MDP7jDbYhSlRNmUcu0EEvHz5ktdlEJXHaQVSLzQsRFMYJ1GpxjH7LVVM+xAYzIpA1A+fc3F6cRxkJddm50ENm/x8M2Lu8qQs8tLTXbgpk/ZdYFsyrANaOzMy8bGCLsB95NAmfQrjvUPnS5NYyzw7s4o7S5tHPND3DmObcx7zFyvMiTw+g268mjTICmXHntO5LLzUUmXcGmadR1fe7uBjgjXekAknEN8+4e8A9B+gMhx87XseQ/iU6dHKaeORXhZcSQnjlrB6mFXToCjPmttx4QJeNJw/NHQLl02P4ODAb1J9jqO9piuEuoIAqXLYb9HOMU2/0iOL7HnFWWtQujmM6xL9tIwweccYn2+Ri5jP74kkEVpBDV7+xkcg6LUTGivo7qXm8KFzOVnGzawYcPPtPGLiIjIaUpBRjmF7NLlMfmuv8gPW7jA2oykciACf73/stF71piuLxIFW/unhMl2vNLIZrQDj2FfQgzWuk+Ohe+nlTNuZjIdxhcJKxgZ2hhnmL2zpUuMY1KwlXGOhfYJfqGKVPJmv15Z+WFfwlyuvYaL7OlkTOjlV5eq23i9HtJnd72eoZV96NwwZh65G81y6cXsq4fEqfnBDMKs1cVcgZ9WZ7cYx4xVSslb3D7ffSwryws0c9i5UU2/6CJgZwf54jJHWyXTduAwFPSzs/ncj7LZgbWsy/oQqPFTsvMgpF3l2hX5mulXM8kT+zqJPdddmXRoHT9nAPSHs6KVS/tpOkbEzVl64rVte3kXY/ftlEu4K8tDR+3e8NdPrNfSuF43pEVZCzQznbGB/weHD/J//tHcMGVExIBkf7reE/qhKLpyFl46eONtY33XfhH6rDbfu51OHGmGhGy8WdjrAi6i9YCH1JnZxAXWHYy2bmCgZDq4jmNoaRP3jseFJJU410u0N24Lm9sKUoOPi23+UEjSM+7dpoN/JHTtjN2Tz7CunXiykha8eI2dsNOyPHTUVkT5Q+saWu6poAUPqUWO+cb6GXwq3XEpGQBkkLP4arNVRERETgMKMsqpVX4De7b4HKXLDYzPanbvIh2raeWMc5VeOcqxgou42+XFY/KNtZnMNZVWkGqsZxSao/klpDuBLwSOzVqmNVNnlkvHNP8oImQzHl+STl0t4eszOc+1vYB3tvhCa1UVJXNozkqOOU6NvU6V70BoPuO9+6ibU4FzrxNiHbP8BhpZ4GqP/ppHuHbrwsvE+MNr/NWu+Ny/r/cLytfelcGaHYSvkbjxRXvXaCs7cM0OP4lTi+32YpKqwsula+8q5c02Lzfa57iquZRHV+1zd4p1zBgdXnI5+7KMtSKTaljj3Bymv9il0u/+LVLALrDBSqBk+iA/Kd9LR7Cs+iqoilYi7Kdk7etWUMyxZqEzWBiTP7/OTVUHGTvDue5hm3sX6VilXMJ/BeYyYzTgYVKBfX9eaO3JH86yAqdxWXmu9RZd8z/8F/6/KisAGmi74cPNUa4F/OeGzez2O8a7/1b+a3ooIPnDWUaZuuO8oWt2kJ888TrvOsvaCy7jSFUfN7c5rR3kJ39Lc10vajcb18sOiHs8jk2GrJ/9OE+koHE/SHiETTdZ6+L9y8Vxjl2m61m/aTbFfc40i6L8BvaU1UDYuoaOz83AZmaOzcSswGEoSNflZmP2rtbBrER7TPfn9QKodO/iHFhH0b3m4iRanRUKscyfNbTcs5tEV3s+Z9WWuqsdevQZ1p1FNM2poMX5HIuy+XhLd5vaLaKprIYOvHgdzyGmz+BT6Zcv8yf7v1DceZH/zCQiIiJfbmekpaV9YR7MyMjg0KFDdHZ2mk2n1GCdF4N4boN1XqfMtHLGFWUTF7YGYyFJzxSTmuDD59yleUiyr8Ux8xrJ6aToykpme3bxr1sf7mLXWZF+csHTVE1J4Y2tAxgIG1KmU3rDg4xv+mm3m7ro/7r0VX/+DF29eB0/nhzH/ldm8c+/NFtFRETky06ZjDK0pCUTB7TUmcEza2dMERGRwS+TcxLgsL/rACPAO/6+bzEm0j/m8r3JceD/Ey8rwCgiInJaUpBRhha7nCtskfiCrXjHMECbzYiIiPQna/foWHb5/b3/MCRM5pYLzBaRGCQ8wswL4XjTtj5kMQY2Z/suybv+jVl3lPJHs4uIiIicFlQu3U8G69wG67xOqUDJtHG4ZUs6TRF2chx6VC49FBRdWcnsCx0H3tvAjDcGYtMIGbISHmHTDZMda9h2qFz6VLngaaqmWLtT+XbGFpyUIc75/1efDyIiIhIjBRn7yWCd22Cdl4iIiIiIiIiInD5ULi0iIiIiIiIiIiJ9oiCjiIiIiIiIiIiI9ImCjCIiIiIiIiIiItInCjKKiIiIiIiIiIhInyjIKCIiIiIiIiIiIn2iIKOIiIiIiIiIiIj0iYKMIoOOl8c2Pk519eOUzTfbpDvXf3M9VTc8wvVmQ78rJOmZBiauayC1wGzrufgS61zjFhaaTf0sNG/rtpekaWYfCXPB01Td9DRF5nEREREREREBBRnldHRb3vOUF9xPttkgUd29+nGqNxaQYzZ82VzwNP9ycRy+uof5vdkmtjW03JPOnjnp7NniMxuHpGEL9zJx3VbizQan9zfwRnsms09KAFtEREREROTLR0FGkUHHx0M3P0BOzgMUrTLbJKqER9g0JZPjb/+U+e+bjQMhFKxrKjfbeu74Eutc7zy5xmw6JazAmzPjcahnPW6jeOsGfAmT+Zcr55mNIiIiIiIiQ56CjCJyWii6eDLx7btY+X/bzCbpNR++OXbW45xSmto9pBYN5UDjWubvrIcLZ7HqArNNRERERERkaDsjLS3tC/NgRkYGhw4dorOz02w6pQbrvBjEcxus8wq6+BHKrzmPPRvn896Vz5OXGmhoZHPZw7wY1jctdL+pkoLN/239+7z7WXvz5ZwdanVrf4uny5+gxi6nzhsRug+hxze/NpeH3gaYyoMFdzOxrZKCNy5wnfujfc8xb/sOALKnreLetHd4uvx9bizKJT1Cn9h5eWxjEVNGBO63s3P5IzxU5e6VU/IwD4338djNR/h+9Uy89vHjO8r43hJ3+WtOycM8NDUhdKB+Czl3VVv/nlHAy4uzopeIttXy2M3l2L1h/r1Uz3Zcfxp5Kedpngvez6Gseiasf4BfX+gc1+xnM8/nnFuQdc7Ac4x6roRH2HTDZA7vzO0ii3EFqevySQre99NUdhkt2wP3C0l6ppjUYxXsqRzNuKJs4uyWjtpSR4ah3S94Wc3zOBRsZeLM0OxDfPjm3MBxey1G75hQS8uW8MzIYQv3Mt67j7p7DpLseA7uednCxgyNFaZgKxNnJkec/7CFexmf1ex+rH3usHHNMQ9UsGfJotB9m/lcwd03vqQB78ga6u4p4ESgfVo544qy+di8LjGN2dVrbraZol236ZTe8CBXsot/3RqlLP/aYtbd9y3iGn7DrJ88b7aKiIiIiIiclpTJKIPA2Uy8+XnyqKSgbC4FZc+xpz2NPMe6itnTVtnByLl2n0oaUnMpz/uB1eGDJ5hXZrVtbrKDivb9grK5FDgDij2Rmkv5zeP4W2Dc1xo5e8LdPHaxo0/C5dxbdC2tXfWJSahMOmd9o9noNiKLh6qncXR5qH/81CLXRjFWgBF2BvrkPMBjzdNCfarK+Z59/KV6O6ho38/JeYAcZ4BxRgEvZ70dasspY2dbGrdU38vdoSEB8M5+nIeSt7v7Ges93r36capnp+Fb7xiv9mL3RjczCni5eiYpO8qCfV6qjzzm9ReOJ5569kQLMBZsZeK6fM6qLbWz8tKpq4XUogibtozJZ2LRBI6VhdYtjMsqdvSLcU1DOwjWsiWQCVhBC0B7DXWO4FWgTHpPWQ0d7jO4JWQzfl0unVHnZQfkxu8OPkcr+9CLt7v1Bnvo4yOhAOOwhXvtQKXjeY7JZ2LJCscjrM1mvCNrqHPNzdGlB2Ib0w4iHqhwXI9KhheUMwyARTQFfxb8RtZmOnsiBhgBtlHd1AEJ48lxxO+drp56kRWgTr+UuWajiIiIiIjIaUpBRhkUPtr3XCgrkR283vgRJCSSAcAPuHHC2Xy0bx0//SDwiP/modcaIfVaHjwvcGwgNLK5bH5o3LfraACSz5nq6tXwWvd9+ptvvSPLcdXb+ICUC0OZXeOSE6DNR7UjE7J6ySO9W+exqpzvubIMfTxU1QikkWXugN1Wy2PBvj6q69phxDmMC7TPKCA3E3zrjTUnVz3tun/3LVnEt9XylCM787m7tuAjjdwSZ6bedHJS4+C9PZQ5joYUkjTNCwcqXNl3J55cSVM7JE0LBJ0CfPjmODL7ynfTApw1qme7PseP90J7Dc3B7LtFNNf6IWECnl6WG7ds6WZe2wt4x5XNt4aW7T7AS6IZTO2xFaTO9AI+WoPPaQXJWR46alc6MiEX0bTFB2NyQ2XVBfmkJvhpKndkKPZajGNOG81ZQEud83ososmZJdlLv3+vjuPEcU6UIOMfd/zVChg3/BnlMYqIiIiIyFChIKMMCs0fukuLa7bPpyBQLn3xeNL5iL/9zSg/bmnlI84mMXq9Y9+1t7LfdeC/eahsrlEK3chf3nbcPSkaqe0mWPhOc7uV8ThQu0b7PoyY6XW87o1QBmQEOdd6ie92/jlkZUY6VyNH2yA+2Vm2nck5CXDcX+845jBtOiMToOOomXW4Br/PDwnJ7iBje7MRhLIy3sLKkrtUyPCR5rGAZjojlVZ3yxnc64HG5q4zJLvkxRvc9CWQFegsn55EEn6OvWFcm8ZmOvAw3H6ZrIDrPvy9et6GGMdk+0E+BpJmRshW7av2AxwGUjzTzRbLH0qZM2uWSqVFRERERGRIUZBRBr3sc84LllSXFzluXa3BKFQvecQqux6RxUPVj1Nd/TjVq3sfbrx7tX2OwK2r9Ry7YGVYfsg7ZoPTjFGkAPFTi9xjVjvXrOwZZ4mvWzLDe5lZGJ2dQZiQTXIwwGVl4HFgd8TgbH+JLzF2hHasLdlzgRJiu7TZmSkIDBuVDHhILerPMbsW+5iLaLLnnTRTu2OLiIiIiIgMNAUZZdCr+fAD4CPHeozum7VRi0S06mnHeoZA5sxeBRrvXv04t2S2u9Z3zFle26tgmZVh6SifjqTqCIftzWxC60A6bmEbxPRFbzMLu2YFw5wBLjsTMGxzkv5jbazid6xVGMNajzFZQ0t5DR14SM0NrXt44kizvZmKcy3D0M3cwKY/9GxMx/qZZfb8h/Tu2CIiIiIiIgNHQUYZ/HpYFr2/1bmeY2yyvzHutM+KfO4uO9CYNCqsfLrrwJ9Vukz99rCdrnuj+r0PI6/l6BKpLDqaej5sh3hPptlg2b6NY+2QNN65KQhAIR7vQGUWBtYNDG00s2dO+oAGGGEFiWOAA5VhO0X3i+0FHDpgZDOaJcpRnDgaoSy9IN+xQ3d0w66c4M5QjHHMMNsLeMcONJqPtQKXPchoTRhDCnDYv81ssc3lZxs2sGHDz7Txi4iIiIiIDBkKMsrg98ETbGuC9GtWxbTJi5X5mMb0aZE3XrGCkOO4yj5X9rRV3DvhdAsxenlso7kLsx0sbDkStmZiIPDn3lAlwAr4kXlx6Hzz7+11uTSrtrCzDbyzH+axGY7j8+917C5tbyyTOZOXI87Jyd7t98KJFJlNECpdHpPvWptv2MIF1mYklQMR+PPR2Q5x53Y39/5kjcmYSaHXpWBrhDLi3jteaWQz2oHHpJldZweeeGMfHXg5f6G9Sc20csbNTKbD2F3aCkaGNsYZtnAv47M87k4xjknBVsYFxrNZAUs/nebm7Xbg0pml2RVrN/MOPoy2O/Ydl9p/5MggZ/HVZquIiIiIiMhp6Yy0tLQvzIMZGRkcOnSIzs5Os+mUGqzzYhDPbbDOK+jiRyi/Jo2G17ove44YDGx/i6fLn6DGfTS8r9HvtrznyUt1tr3PjUW5EJzHVB4suJuJRD5/gDXOB2wObFIDwA94rCiX5H3PGRvEdGNGAS9HC9y11fLYzeVUAzklD/PQ1A95Kedpngt2yKGseiYpO8r4XnA3ZuuYM8x13NXuZp3XkVrmGDPsXG21PLYK7lucxeHgLtGR5hBtvoESbMeB+i3hZdARr0k7O5c7dtYGSHiETTdM5vDOXOa/7zjuVLCViTOdV8OHz7mJCYUkPVNMKjXUdbUD8bRyxkUL3LU7Hhu1n5+mssAu0StIXZdP5CTd0PysYFuzMV/rsWfVljo2pTHO115DXTmkFWXz8Ra7lDjqvNzzjzymsyQ7tNN1xGCg81pgXn8fvjkVDH+mmNRj7hJy6/z2nfYa6u45SPK6fAjM3xbLmOF9zNfcodufj4DplN7wIFf6NzDjjbVmo+1qin/5Y77lARp+ow1gRERERERkSFCQsZ8M1rkN1nmJ9LeiKyuZfWE96zfdS5nZeLIFAnlhazDagcyEaAGsocS+FkaQcdC74GmqpqTwxtbZFEfLZASuXryOH0+OY/8rs/jnX5qtIiIiIiIipx+VS4vIaaHs7V0cJ5PZV84zm06+tGTigJY6M3i2hs5jxiH5EpnHqimZ8N6WLgOMMJfvTY4D/594WQFGEREREREZIhRkFJHTQ/vD3LSzHi6cxaZvTjdbT67GZjqIsNlMwVarFHhANpuRgTWd0htm4W3fxb92WSa9gQ0bvkvyrn9j1h2l/NHsIiIiIiIicppSkFFETh/v38u/vt1BfOp0rjfbTqbATsZj8pm4riF0m+mlZctA7zItA+KCWVyZUM/6rQ/ze7Mt6I+U3jGLWbNmMWe5wosiIiIiIjK0aE3GfjJY5zZY5yUiIiIiIiIiIqcPZTKKiIiIiIiIiIhInyjIeJrbv3+/shhFRERERERERGRAKcgoIiIiIiIiIiIifaIgo4iIiIiIiIiIiPSJgowiIiIiIiIiIiLSJwoyDhGFyz6gYUsjDVs+oDzHbBUREREREREREek9BRmHiDXLziN9Zhql/wvZDyjQKCIiIiIiIiIi/UdBxiFmzTIPPj4i2Wu2iIiIiIiIiIiI9I6CjENU8vmfmYdERERERERERER6RUFGERERERERERER6RMFGUVERERERERERKRPFGQccr5Kc5t5TEREREREREREpPcUZBxyzuTgUfD8v+OsMJtERERERERERER6QUHGIWjRj9JIf/yr5G5ppGFLm4KNIiIiIiIiIiLSJwoyDkErnm2k4S5YOTON9JkjWGR2EBERERERERER6QEFGYecT5g0FvxvD2eN2SQiIiIiIiIiItILCjKKiIiIiIiIiIhInyjIKCIiIiIiIiIiIn2iIKOIiIiIiIiIiIj0iYKMIiIiIiIiIiIi0icKMg4xhcv8eDmbfX8802wSERERERERERHpFQUZh4jCZR/QsKWR4v/3Eb5N51FQbfYQERERERERERHpnTPS0tK+MA9mZGRw6NAhOjs7zaZTarDOi0E+NxERERERERERkYGkTEYRERERERERERHpEwUZRUREREREREREpE8UZOwn+/fvV6m0iIiIiIiIiIgMSQoyioiIiIiIiIiISJ8oyCgiIiIiIiIiIiJ9oiCjiIiIiIiIiIiI9ImCjP1qBZ8ua6BzWQOdt68wG0VERERERERERE5LCjL2q0V8dVk6w5dV8NXMfAUaRURERERERERkSFCQcUAs4sydfjh3NF+YTSIiIiIiIiIiIqcZBRkHUmKygowiIiIiIiIiInLaU5BRRERERERERERE+kRBRhEREREREREREekTBRkHyBnNzeYhERERERERERGR05KCjAPlUDNn4uWz3EKzRURERERERERE5LSiIONAeb+Ary1L58ykYjqXNfB3BRtFREREREREROQ0pSDjQLmgnL8va+DzunSGL0vna5VrzB4iIiIiIiIiIiKnBQUZB8gXl0/gM3x8ZbfZIiIiIiIiIiIicnpRkFFERERERERERET6REFGERERERERERER6RMFGUVERERERERERKRPFGQUERERERERERGRPlGQcUCs4LMpHqjfrQssIiIiIiIiIiKnPcXA+tUKPl3WQOeyfD5treHrLywyO4iIiIiIiIiIiJx2zkhLS/vCPJiRkcGhQ4fo7Ow0m06pwTovERERERERERGRoUyZjCIiIiIiIiIiItInCjKKiIiIiIiIiIhInyjIKCIiIiIiIiIiIn2iIKOIiIiIiIiIiIj0iYKMIiIiIiIiIiIi0icKMoqIiIiIiIiIiEifnJGWlvaFeTAjI4NDhw7R2dlpNp1Sg3VePXVb3vPkpYbuN7w2l4fedvY4xc67n7U3X87ZNLK57GFeNNudLn6E8mvSHAdieEyXCvnsx8V8/tdSvla5xmwUETlFrmNZ+QNMHmHffXcjeQt+YfQBrl/Gr38ymTj7bv3/5HHfIHoriy9pwDsGOmpLeefJPk6sYCsTZ3qhvYa6ewo4Ybb3o8C8A1q2pNNU7uwh0rXPb2/gBBUMf2GR2dQnX+Tu5ZMpHsDP11Zfxpnvmz1EREREhg5lMp4CL26eS0HZXAo2vsVHZuOXiR1g/Gjfc9bzKZtLQZ8CjPD57cX8PdHHmQowyimSUvIWS6uryDIbemPGiyyo3s/t880G+XKxA4zs4vG8PPJ+vouOsTfz64evc3ezA4zsfJy8vDwe39lB5j/8mmXXu7tJzx1fks6eOensKauhw2wcklaQuq6BcQsLzYYvieXcXr2fBSXzzIYB85XqGs7MzOfvuf14zSZt5ZMp8LXV6QxfpgCjiIiIiIKMEu6DJ5gXQ8DwtrFpQCPbtu8wm3rli9y9nMj087XVN+gHU2Sou+5Wlm9awbObVvDAP5qNcNFDS3jWbn920wqefSJKJC94niXcYcQEY3b9dYwfAfXblvEqwO9fpa4N4s7LdHW77qrxxFHP7x55FYBXX6+jgzjOcXc7pQLBuj5nMQKU32AF/gY4izFm08oZt66BicbtyxuIk371fgFf+62Pz6YU8+kks7F3Ph/vhfpKBRdFREREbIrlSN+0t7LfPNYrK/hsioczd67UL+siQ14md9wxEY952DbziRX802TY9e+L+NFNi/jRv+/Bn/FtI9CYyR3Pr+DZO+DVXe2O472Xcn4sUcoURkeJd8rJ0bLFznqck05drZ+4rGIFGsWy+waG1cOn39nK52ZbjxXyxbnmMREREZGhTWsy9rupPFhwNxMTAvc/Ys/G+fz0A3cvCK192NzFmozm+o0f7XuOeWGZgz/gsaJc0oP3e7kuYnAtRlv7Wzxd/gQ17l5Bt+U9T96IrvvEylrTqJlhy7rIYpxfxdLZ3tD9+goevWuxo8Nybq/OJ3FHKSvfy3f1bVifwQurrH+nlLxF4dRmXsmpIGVjMVcE1lhrq2HNzbdxOPioQF9HqMMcc34VS2cn8+byyzl8y35uDGYs+XglZwa1oZ4xiG3+lnnkOueOnzeXX05llbNPDPOf8SILFk/AZ84/wrWw+maTGDxgPkdr/qzPoOpC57hmv1Df0M9s5PmH94t0rliZ53KOabaZzHHN6w+tO0pZuWQtAFmrnT8L4UKvp+M1tx+L62c0/PpGnv9p5h9/xLPfOYddv63nou9M5OhvF/H4f9ht193K8n8yjjkf8+8l/PJVKxB5XctqFj9Wz0UPLbGDklZbz93JU5tvJrNtF48XLIOHf80DU+LC11ssfIrN/5BJx87H+f4j2Gs41rMx7z4irN4YE3MtQnMtxWEL9zI+qxnfnAqGP1NMauCzx1gn0TxP1DUNp5Uzrig7uKZkiJ+mssto2e5YizHgQAV7lhjr3E0rZ1zRBI6VXUZnrmPsSOs3ho3pGMtk9/040vwjtq0gdV0+SWHj2seD93345tzA8eB9i3V9jXC341yh6+98rHXus8LWvYxtTPO1cr7mEefjYP589JeefG529Vkd9plkcL6Pdj+m/Z7YxRzCPzuBC8r5+13ZsLOvaz9ba0j//Wj/r/MoIiIi8mUVNZ4jvfEDHiu6m4ltlcE1Cp/eBxNvXsWD55l9u2cFGBvZHFzvcC7bEue4z3Xe/awtyiXZsS7i5qY08ooe4TZHt5gEy6TnsrnJbLRkT1tFedHzlBfZwc+Ey7nXvl9e9Dxrp001HxKDQj6/yAP1u6P+QKaUvGUH8zJ4NCeDR3MqaMjMZ+nq5WZXEqcWs3Q2vJJj9V2zw0/67LfIneHs5eXG6mK8daWh843IpjB4vnnkbtxvf8Exxtz4IinOU+HhisX7uZEKu18pb7Z5uTGsX2y6n/9ybq8u5oqWwHgZrNkBVyx2P0frCxqOa5bBmubcCOsDmvM3r4V9/Rdn07o+dK5X6r3cWG1eV0ifvZ/C5MouroX9xbA+NP9HcypJmm9crxkvssAOwLnH7M16id2NuZgXHNfbCiqGnuujRmAza/UCWOVoX+8jcWpxcH2x2rvs48traLWDiqFzRfjS263u5n86uZ4HvpOGf9ev+OW7ZhtclJ2Jh0b+7Awwkskd16YBCVyUbUV3t9y/iMWP1Ts79cEv2LizA0ZM5oHNm3lgShy8uzF8Q5c1G9nVBnFTHmDzZmuTmPr/6W2A0Vpzzzuyhjo7K29PWQ1kFTOxZIXR14t3XTEjfaV2Bl8FLQnZjHf0i2lNQztIR23gPKU0tWMHwxxBv0CZdLA9Gg+pRQ2cfzT6vGAFqQXQGHiOc9LxHfCQWrSXpGmObn117GAowDitnHF2EDA0phfvuq3EOx4SX9JgBxCdc3N06IkejOkd43ONeejcBcFrceLJy0LX0g4qBvrt6a8y+Ki6+9zs/rP68JLLQ8ftoKLzvdH5xxZLV2MupmqHH0ZMIMv4HMrK8gI+9kV6r31/G19phc8umk7YX9lFREREpE+ixXSkF7KnXUs6jWze/N/BYzXb17Gn/WwmXvkDV9/uTeXCEUBTnSsj8cXN7qzI2668nLPb3+I/HNmNL26upIE0pvcq4Ne1mu3zHcFMO9vREQQNz7KMwQXT+TwRvloXLRNgOTOmemjdsdKRtbWYF9b7IDM3LMhFWw1rHEGhw3/YRysekhyJFdiBn9AXmsXsqweSRltBm/n5XDHCz5vLncEle8wR2cwwAnWtO0odGYJrqa3zw4hkznd3i003808pySUdH684MhIPL1nJm20errgl9GXv/GQPtO2j1pHpdnjJ5ZEDXK4MR/uLW+YkO5gXuP6lrsfW3lVBA+4xwZ5/V9dixmgSgYZaZxbqYl4wMlGybskmsa2GlxxfOq0xvVzV080CYhwzVrV3GRmEqyp4sw0Sx08fmKBfP87/uod/zebNm6PcApuUXMeycrPNcStfxnXYmXtmm+P2VC8qVGc+8W0y/Hv4ZZQAYUZSAviPOZZpuJ4HNt3FRX/9Hbv84Ely7nbff6z1FS31/5MXeWdpXuXV/wv2YmNe73eWHrYwlyR8+JzZd9sLaKz1w5jcsABcyxZngGkRrQeAkaMZ5u7WpWFXTiAOH4eC51lDy3Yf4CWxwOgcqwMV3cxrEU1GZuPxyho68DDyyl78ABniS6zMwRbH50t8bjZx7TU0OgJyx5dU0IKX8wNl1dPKOX8MtGwJzzTsjZjGpJDhI4EDu11jHl8SJavzFOjyc7Onn9Ux6mrMwOej91rnZ8JyJmRC646KKFnva/jKX/2QmKwgo4iIiEg/U5Cx30zlqrSzw4KCsIP32oARF5DtOt4d+3GpuZTnRQtQ/oBLUuGjxh1GuXIjre1wduLAfNnud+cn8xl+zjhkNtjmTyIdP74/GBkOvuaIwUNaDroDL1W3sTIse8xPi895384+s4M2VhZEM4fNUtRVu2kAEi90B7la33PPzcrW6GVZb5fzn0fWeCvr033utRxucX7Zg0PNfhiRTWEMGZXu4BUcfq8ZSCZlRuD6hz9H88teQGvdtq4DX1UHabUzHsOzKgPsL4lh5/LR0gaJyeaL3o2YxuwL+/oPlH6c/6uPfJ+8vLwot++z7PcAr7KswGxz3ArsDVDW3Bfe5rj1OMB23a1clwH7//Ar/mq2RfKPP+LZTdm0/PsiFj/WaLb2n8Kn2PyTycFy3szpdpD1+mX82hFMvXOlneVo9eLb9u7TVmD3Ke60W7pXiMfrgfbmsA1VTryxjw48DHe9vfvpNJ7+8SU935Bl2LnRyljDzx8rZ3AvZtsP8rF5rAeSZoY2fQlkBTrLpxPHQIdvm3FtfHS2Q9y51ntLIODaapZk90psY8IaOo8BY/IjZKsOBl1/bvb4szom3YxZtQ2f+QeeaPNwOKPZ+oz74gKzpQe6/QOpiIiIyNCjIGO/SSMxwQ4KOsqHg2XFvfDi5rk8ve8j1zld5cjnXUAycPaEu40xnWtCfvmlXJgcLOldWu24udYHHABtzUSLe/Y4yNVvvCSNADLz3deiOnwNwMNLLudRO/OyMNAvQnl5bMK/6AX1OGNzMS/klPJmmxU0s+ZvlF3bmXuJU4uN5+leBzF2MYzZEzNeZEE3179/9fP8ByV7s5f9v3OvtRhFxkNLePY78JubervOYqzu5Kl/yIR3N1rB0/+pt8qmV94JmecQRwcf1luByJvH2lmOeXlsfNcqm36qEDLPi4O2D4mcm9kFZ4mv4axRfc/yM1kZhO7MuqRpXmjfh38AM+mGLdxr7AjtXLew5wIbv9TV+sH1fIBpozkLiMsqNsZ0rGfZ33ow5vEl9rzH5H/pdsc+NZ/Va6ms8rlKprOyrB2fB2y92gvK+fuyBjq/D19dls5Xd5sdRERERIYuBRn7jZU9SFNoPUbXrZebo4TKk59jT7sVUAwGGj94n2Z7M5iw8crmUuAo2/4ys7Lq/K61Bfu2vl3ftTZHi7gNNCuTD9fafI6bWT67akaw7ZV6OzjZ60BjFF0EY6NbS+XN9pyX19CKx72mpJ25Z67XFby5NvyJVTdjxiqwAY7xGrzS4whST/XP/AdrufRFD93KZE8jv7n/92aTy/6WdvBM5LsX1fPvNz3LlmBLGkke8Lf0MuUumuutTN36vXZ59Jr7eHxnB4y9mV9PTwEOc/D3cN35KUA9b9nZm79Y8Di72iDzH37Nt88Fjh60sj/7ycdHepomGoO0ZOJcwbBiUjE3TOlfw+yNTJw7QgfWG+yrE0+upKkd4rLyQ+se2lmS5lqGwZu5gU1/6OGYoXUXrTUvvyy7Y5+yz+pVu2kIlkxbWfBmdn6/er+Ary1LZ/iv4dNlDXw6yewgIiIiMnQpyNhvelsWHasd/LTcDjQGy6C/ZGXR0Rxq5kw8fBEtHa5PpVa9U1vrzowIiqEMq0t3/IwNGzaw4ZfFXG22xSS8LDpWtXfZgbAYHpuV5Q2t5+j6AucUraS5h6puY6UdNAu9xj0ti76a4l9uYMOGDfzsDrMtgohjWlyl4hGkXDuBRPy8+VIMX2LtYKlZXt81uyS+K13MvzuDs1w6k+yLEoA0vrtpBc8Gbv80EQ+Q8R3r/gP/CH+tqcdPhJLqf/wmGbTz15qBifamnG+VPgO8+siz1gYvI+Lo2LnRsbFLCqOvD/Zi2dpddBBH3IgOdm2KtIZjNGvw+/wwZpJrUxD6vYzXyc5aPFDhDoANYIAxVBZeQ3O/Px9ca0qGshnNEuXIThyx3geGO9e+tNdp7FbBJCMTM7Yxw62h5R470Bj22NjPOffn1nvjusW9+9SJWY8+q3v6Ht8Vax3hxPHTSZk/ifRoG744fJGcDDRzxvtmSw/YG8h8On4wlpxs5IEAADttSURBVLaLiIiInBoKMvajF994i48SLufeqGso9sQPeKzgfnfA8rypfCMBPmoNZOrs4Ke1jZCa28tdnQeJ7n5Rr7qN1+uJsEP0AFpVYW2k4tq9dzm3z+5bGdbcCRnWPzwXcc21Zmtsal+qodXY0TPcPHI3mrswW0HBsDUfTfOruDETGqoCWZH2F7ipC1zXP2t1Pun4eD1sN9BuzK8K7sIcEAjchUqy7RK4zPywvhFdew0X2XG5jAlzzdYYx7TZX5TDNrSxWUFIZ9DV2ok8crm0/UV6an6UHbHt9uB6YvPI3RihJLwn8/9SqueXcxfxo5uM27/vsQKKv7XuP/4fwKu/4tX9kPGdHzEz8PDrbmV5YEfq/kwXBPj9Mn73LsRNuTnimoqB468+8jvqiWPyTRF7RTke3YknK2nBi9e5Nt+0ctKyPHTUVvTLZiRu9nqAPdwspm/sMRMm4AkE8+xdmPtSLu1SXmFkM9qBxzH5XWcHlu+mBQ+puYHrv4LUomxo97u6WcFIx8Y4BVuZONMMnMU4JitIfabcff2nTWdkAnQcNf+jB9ZvDN8EyG0ul6Zb/4q76Jpe/nErRj36rLb/YNaHDWGcDv9hn/W5ONvbxYYvAYV8fpEHWps5w2wSERERkT45Iy0tLWxzvYyMDA4dOkRnZ6fZdEoN1nm5/YDHinKxf6cPanhtLg+9Hb3d0sjmsodDG8ecdz9rb76csx09QudxiNAPPmLPRvdO1N3JnraKeye4zxLw0b7nwnaOvi3vefJGvMXTvSwFd/oidy+fTGlm2LIboka+U0reonCqkeHVVsOaYInwcm6vzifdtVNyOOs88OZyY4fgMOEBn9YdpY5dLq3gz9LZXhrWx1gKdsfP2HBjBvj/xL/dUcofXY2xzd9i9zWOuucR3ids/oHSX0cfq9wt/NqEXX/XtSc4XqIxhvW4Zl5xbIQTdi58rvagmOd3NcW//DHf8sD+V2bxz790tlliHpPQ6xri7mueq2F9Bvuy9nNjknlNiPg6dPU6te4oZeV7+SydTZdjmnM6LV13K8v/aSJHf2sHGB1mPrGC79oxewD/rtUsduxIfdFDS/inyVEW2fPv4d/nxri5jO3OlZu5eWzofsfOx/n+69fx659MJo56Nubdxy+4k6c230wo3tzBrp9/n1ev+rW1Icy7G6PsSh3NClKNgFvLFucmJoFyY2gq62oH4vDzhPjwzQnsoBy9n3Pc+JIGvFEy+oL9ppUzriibj435xpc04B3pLMEuJOkZ59qEPnxzdpO4Lp+zakvtnamjz8s1/yhjBgJ/HcHzhfoGtumx+N3X0dXHauvMNecfKvm2+PDNqWD4M8WM9DnGwzxfQFdjWszXPMS8dlZJtmtMO5Pxu+nQsevfmLPc/akTq9g/NyO9V0X6vKDbz9iejBk6V6TPB8MF5fz9rmzO+G1f11Ms5LMfF/P3oxUMf2EAyuxFREREvoQUZJRBYgWfLsvn03r9sn5S2UG81liDpCJymrIDee3hazBaQUUjGDZEhQdJZXCwg4xECma6fX57AyfOreHr/1bQx0xGBRlFRERETNGSxkROskWcudMPmflaRF1E5GSzd0Du8G0LC56dOOouERYZdGZMxzvCucxHFJO2ciITvvrHvgYYAdZwxlHzmIiIiMjQpiCjDBpnVF7GsHr49Dt7+ewCs1VERAaMvQNynHe6sSagtQ4k7fvwD/EsRhmslnP74mwS6yu6zsi/oJy/f8fLmTtL+1gmHXJGix8yc/U7i4iIiIhN5dIyyFjlR5//tZSvVca8Na30lsqlRSQo8tqHkdb5G6pOp3LprNXRNqxyimGNw1PFuWZvDGsZf357Ayfo/9Jma01pD+Dna6sv48y+7FgtIiIi8iWnIKOIiIiIiIiIiIj0icqlRUREREREREREpE8UZBQREREREREREZE+UZCxn2RkZDB8+HDzsIiIiIiIiIiIyGlPQUYRERERERERERHpEwUZRUREREREREREpE8UZBQREREREREREZE+UZBRRE6uGS+yoHo/SwO3jS+SYvY5RbJWO+ZVvZ/b55s9RAZAURsNW9pYYR63/XDWrWy6/1Z+fqnZIn2Scgn/df+tbJp3CdeYbXT/uoiIiIiIiJuCjDIIzCN9aSWXfHu62XB6mVbOuHUNpBaYDUNM1W2szMng0ZwMXqk3G0+t2ruseT26vIZWs7E37ICqgpX9L6fkYaqr7+Vus6E3ZhTwcvXjlJ2K1ymng703teL/33gWmW1yapXFU9PWSn5FB4Vmm4iIiIiIhFGQUUSkx+aRu9Gd9bigZJ7ZSU4hKwj5eMTbKQkmRvQJWx9owfNuCpctO9NsDHr3Qz/g59gHZstgNZqf329lX0a7/dd0j/mgk++wnyMAx/y8ZrYBcCYF+Sn4RrRQ/OwnZqOIiIiIiBgUZBQR6ZHl3F5dzBXUsMbOyHw0J4OXWKCMxUGkeskj5OQ8QE5OGTvbgPot9v0HKFpl9j41Cpf58ZJIxY++bjZ9yR3kJ0/8ipvs25O1fuAgLzuO/X/b/OaDBqmvc8OmRBh7mK1FZpuIiIiIiDidkZaW9oV5MCMjg0OHDtHZ2Wk2nVKDdV4M8rmFTGfUggdJTwzc76DhF7M58r6zzzzSl85iVPB+eB/PbZVczAZ2bhvDJXdOJt4+fmRzLg1/CvUL9h0bun/8jZ/yl99tA+Dr317PxCvjQo0GZ9+YTCtnXFE2H29Jp6k8dDi+pAHvyBrq7inghNE3NLoP35wbOB68byvYysSZ3tD9AxXsWeIoaizYysSZyTSVXUZnbgPeMYGG0PniS5zHw7VsSaepfAWp6/JJajfmSWgOVj8YtnAv4737qLvnIMnr8kmyu3XUlvLOk2ucj+x+/qdY1ur93JhUw5qbb+Ow2Yhdbrw4m+CPLD5eyZlBrasTduAvn/Tg/Qj9ws7l583ll1NZ5exks/u2rs/gBSMglVLyFoVTif7YwPPKNI+GNBjntc7pyOyqr+DRuxaH7s+vYunsZN5cfjmHb3GeO8LznF/F0tmO1zxSH+aRu7GYK0a4DgLQuqOUlUvW2vfMfl1cs255eWxjEVMijHl8RxnfW+Kz7+VQVj2T0DNo5KWcp3kuYpvJ2TfAHrdlCzl3Vbta7l79OLd08Tr51rsDkjklD/PQ1ITgfde8ZxTw8mIvf1m+nXMXz8RLOzuXP8KBW+wx2mp57OZyQjP4hK1bDpP8v6ldZjF254ezbuV7I/fy5Nq/hLLxUi7hvwou40jVr/jJn0N9r5mex8Isx89Z4+vctOFg6D4AHpbMy2NSsJuf3eWbKXH8B7XO08bLT+wl1dnXb8wjrP/r/GfYcQ/vGvMMzoHA+Ubz8/uvgqpf8XKS8zkcDDtnLPPvuc8or2gimyRK8+Mw3mUt1xaz7r5vEdfwG2b95HmzVURERERkSFAm41BxwSNcsvRB0tnFnkdz2floLjsffQamP0Iwh+ZbTzNl6Szi3vip3Z7Lnjcg/c5K0r/lPh1jZzHlznM4GOzXwai89Yy6INTFCjDW83ZwvFwOJt0T7PPJ72bbxzdwxA4qBvrtfDS3ZwHGnrADjNSWsmdOunUra+b8Evfy/sMW7rUDiHafORW0jMlnotEPPKQWNeClwu5XSlO7F+8z5QwDji8JjFFDhx1UDI47JxAQXURzrR8SJuCZ5j57/Hgv4KPVETglIZvx6/IhcK4tPuKyil3rPcY+/8EppeQtltqBvkC24Cv1Xm6sfovcGY6O86tYWp1Pen1FsN+jObuZsHq5o9Nybp8PLzkyD1+p93DFYuNcMfOQFD3SFba2Y4PjOTya4wwwWmXXhVObeSXYXkFDZn6EDXE8XLF4PzcSeJ6lvNnm5UZnvxkvsiBrt2Msu091FVnB89iBQ0cm5podVlZZw/oMR4DRzthsCV3XNTvo5TWzA33U8pidTfjYjnawA3muQF31TFJ2lAWzDl+qT+OW4NqL1RS5Ht/IS/Z962YGGLv23F3245bXctyeS+hc7gDj3asf56GpH4bGW14LU4t4ucT9g3DJ/GkcXV7GzrYELpn/MLewhZz1jTDCS47zuhV14uVs9v2x9wHGnrACerC73JFh+OFlxmYyo/n5/XlMOva6IwsRJhXksSRsd6bRfO/+PL5Zv9nu+zrvei5j4azRZseoXtu2l3eBsd8wHpMymm96oKP+oCtgOXbGrSzMbODJJ37FTU9sZrd/NN9zbdrSk/n3xJlse/tsGPER03PMNsvVUy+y/miVfilzzUYRERERkSFCQcYhwjN9MvGtu9iz8mFCK0tt48iLgfvTGTUtE97d4AruffK7Z2hohVHTHMFIsDMc7yVQ8PbJn+s4ThxnBb/ITeesc4B39wT7APhfNDMnT4G0ZOLwc+wNRz7K9gLecWX4rSA5y0NH7UpatgeOLaJpiw/G5JJkBAI7aksdGYJr8Pv8kJDMMHe3Lp14Yx8deBh5pXOLgRUkjoGO2oqwLMtAZiMA5RU0tUPS+EAAsWfz79qdPLV5M5uj3VbeaT6gHyxnxlQPrTtKXRl/tXdV0ICHK24JBBDnkTvDG575x2JeMO8b2ZK1L9XQigfvtT1bS/HwkkoagPTZ+1nqCt71wvx8rhjh583lzkzDxbyw3gcjsplhlF+37ih1PM+11Nb5YUQy5wc6VN3GStfzXktllQ/wMiFwrhnT8Y6AhqrQ9Qg+p6xQYDalJJd0fLziON/hJSt5s815/WM040ouGQG+qlAmX/WS7fgAb1YoanP3LVnEt9XyVDCrEZ67aws+0sg1gnkn1YwCcjPBt94RxKwq56kd7cRPnenYfCaB+JbtPGRnesaP+JCXgtmTCZzreAorLm+FtrPZ5k6uHDBjz/GAv4HXHP8JXtu22ch0vIyxHORlR3bja9v+yG6/h0nTwoOH71Y5y54P8udGYKQn8k7NEdmPSUvjh46j11ycThwH2WqWVLsyJf2U7DwInnSusT93ejr/nljzx7Px8xHJUX4M/7jjr3QANPwZ5TGKiIiIyFClIOOQMI9zxsLxv21zBBgNF0wnKRGOt5jb/W6j9W8dkHiOO8jYWkdrl8HCbXz8oZ3xeFvPgjgDrrGZDjykFu2NHmwrmESSGYgk9Njhae7DHx9x9zvx5GXsiVR+3ZXt2zjWDnHe6aHgZLR5mJmNrKHzGDBytPXYaI+LMv+u/YL78vLIi3Zb8AvzAX03fxLpQOt7gay6gMXsqweSRlvZe4GAWa0zsBajqoO93EF6MS8Es/+83Ghv/NKb9RizsrxAM4fN8uNVu2kAEi90/98xr8fhJZfzaFgptMHX7H6e3mRHybhba3MguDePrPEeqN9tnHsth1sc1z9W3nOCyyqYjjc32v/KISsTjte94SgpBmjkaBvEJ/foh7Zf5VzrJZ5Gao3S+er3PgTOYYwjQ9FX65h924e8E7rn8BmjzwWOfjVy6e0AePdDP3guY6Er88/JwzWZHmhsNMqP/TQdixQ8DN+I5j83/IqbIpRLd+U//3YQGM2lwYzKaPMIz2zkg2PWH2bOo4vHRZt/D1V/lWYg+fzPzBbLH0qZM2uWSqVFREREZEhTkHEouGAMcUDHB92XH0fvk8JZjlLoWPhftMqoGTuLKUsrmbK0kku+Pd3sdvJtL+CdORW02GXOE9c1MHHdVlcQZNio5GAZtNVu31zrOPa3NbRs97lKpuPHe+FApSMbMTanZv79zU9LKKHNLZC9500msat+Diklb7l2g17qWsOx56wAn13eHMhsdJVox6itmUPmMVtitLSpLmStdu96vdS1DiWwqoI32yB9RqjM2spa9OP7QyCI6SVpBJCZb1yzrteajGrVFna2gXdGAYG8xZySaXhp5y9/CJRKjyIFiJ9aZOwGHXkdx5NpXHICkMYt5k7Vs09d4LOnXtu2mZuqDlqBxsAuz67S5hGM9ABpV4XtBP29gXyaf97Lbr+jZDplNN/0+Nm93VwrsjunaP4iIiIiIhKkIONQ8P4BOoC48/oS4DvMx11mLkYWWnfxpzS0QvyVDw6OQCOLaAqsi7jFKif1OgKNJ440WxkwwfUMI62jOADKd9MSLJm2SqVb6nq+UUv/zv9UlEt3IxCY8zXT2s36iDg2VnGvjWgFB/vOymx8pR7IzO3FeoXRhTILY2NtOOPnzeWO52mvCxliBxBHZFNoBw7DN7Lx0dJmb0DjWEsyeIu2UU9UaZw7AhiRxUN2gO6hqbBz+SPB0mKqjnDY3kzFuS5i8GZs2nIyvdMcaf3HwM3xHAa7P4fWKny50Q7IBQONbRzz25vBOHaBDt56mKEYOz+v1fuDJdPXXJxOnFHWHZtTNX8REREREQlQkHFIqOfjVoj/xnRjXUWH97fR0gqjLjZLm6eT+I24sLUVe24bR1bagcYkMxXKnl/Y8f5gBeq6VH6DHWhMZnigfLpXZcXd2H6Qj4GzRjnXXDRZG8DEeaczrGASSWFl0dHYazf6tlk7U/fr/E9BufSq3TREXC9xORMyobVumxXkskuenWsJhrNLf9tqqDLKXQecPT+z7DmgttYHIyaQZQYm508yMgtjYV0b6iu73P05uNaiK3Bo7hjd87LouT/fwIYNG1i3+Gqzyc5aNIN0ZnCuZ2XRkUqVe80OcKZcGDla3a9jAXAmB48C535KV+8GvWWtadi1/9xgBxqDZcT9VFbcC9YGMKO59FKr5DmsLDqKwNqNf/4zAz//nE9JBpoPRduoZy4/27CBDRt+po1fRERERGTIUpBxSNjGke31kDiZia71Eacz6rbAhi52n7GzXDtJf/3b95Ce2EHDtp4EOwDmkb7A2Cymi3UfrfUbZ7p2p+4xO4jn3PwkdV0+SUa3YQv3unZhJriDczOdgbLk7QUcOgBJM7tYt7HHfHS2Q1xWftT16QhsAJOQzfiZ3ogbvkQSX5JPEj4OPWmv8DYg8z+ZFlO1w0/i1AWuzMCs1fmk4+P14A7IVj8y81lQ4vzZXs7twdJlO2DmDObNeJEFvSyXzlodYXflGS9yVcQAn5URmDg1P/IGMasqrI1U5jt3kl7O7bO9Ec7VHTv7MHNSaKz5VWHl0offawaSSTGfg6H2pRpaR2RTGFMJ+FwutS9m3EXXYIYZYwvS+XioqhEyZ4bt2ByR70OOk8CUW6Js99sjdoDTtYmLw6ot7GxLYMriwC7XfbforcQudyuOlbXWonPzkzwWZnmMXh6WzLvKtbkKjObSNOCYPxjQ+8/te+no4Q7R/cPaAGbsjDwmeSJs+BJJyiXcleWho3ZvcA3GgZx/4dUf4eFsoiYX33EpGQBkkBMh0C4iIiIiMhSckZaW9oV5MCMjg0OHDtHZ2Wk2nVKDdV4M8rkFXfAIl9w52RHg6qDhF8Zuz996mil5zozCet5+NLSLNIDntkouPsfYqdo+d8fmXBr+5D7mDKgdcba7TGfUggdJd0RDjr/xU9dO1zGZVs44x7qDLVvSaR61l/HefdTdU2Bl+QHxJQ14nRmO7TWu9oBhC/cy3vzC7uxbsJWJM73unZ67FB74DH9sIUnPFJOa4Kep7LKw9Ri7nZNDT/qeLIHS5Uhad5SyMhhAjNC3rYY1kUp151exdLYzMOXjFdeGKPPI3VjMFcG1/Xy8krObCdX5JAbHXM7tUQOPzvOZ57I0rM9w7YQdEn5ed9/w85nXIfD8oo8RYIzVVsOaVXDL4mxaHY+1yqodDwsI26U7fO6Ezd8y9+cb+G46dOz6N+Ys/6O7Ebh79ePcEnHMLe5S6BkFvLw4ywjEt7tLqwPm32usi9jISznWDtA5JQ/z0NQER1uIb/0DFIVdxxzKqmfi+iky+kV8DoH52/M+vP4BilZ5eWxjEVOo5bGby6m25+k+3yds3XKY5P9N5bJl0bLjYvPDWY51B/17eXKtn+/dfxVU/cqxe/Rofn7/VYwNPYyO2s2O3aEDwvth7yQdOJcVyITd5ZspCfvPGM7q38bLT7wetplL0KVXsWnGaKvc2bE7tKX7OYX0pG+sPqO8oonsoymk/yhaPcDVFP/yx3zLAzT8RhvAiIiIiMiQpCBjPxnMc5MvGzvISORgoBU4bMbX092rRVzrNhol0nYgMyzA2Q+s4FyEQKEdfDu+o4zvLYmWInb6Klz2AcX/D2oeP4+CU7fk5OBgBxkjBwOtwOGoiEHRk6CojYabTnT7Ol29eB0/nhzH/ldm8c+/NFtFRERERE5/KpcWGWymTWdkArRsDw8wivTNPFKSgLZ91JpZgb5mY4OY/uJlTBLQ5qM6bMwPh3SgfM2y/7+9+w+Osrz3Pv6hKLUENlEjRgGTkMUaRDQPFAooDi7pJBNPmUgwx/RR7AwYMuJpoUeh/HAYIRwirZ5WFAPMtGKNTSFmOMdMmBMWRiogPtBoVLCygQSIwRgx2RBORNDnj7139947m2STTSA/3q+ZnXGv69q97w0bZ/jwva6vTS5d0LQnmnvkbMa+5PHbR0vuCu1sFTBebd9od3qDdMLWbsAozdPsn0RI7n9oJwEjAAAABihCRqBXydOo7GmKOFUY4vZroDOCnE8pebZs50xTVKebzYTCpVP1kiLtcgRc0651OUkapiZ98s7Aq2L0+KFmbYiWO7JeK17xHT4x4MyYmabZsW4debu3dYC+rILCs7I3Riu33W3SRSoq+rlG/L//1Jxf5qr1YQEAAADAwMB26W7Sm+8NfYD5LMlThfpg5VLrCh+2SyNcQc9kbOu8y24S9DzDRuPMQsvwgJPdqKp0qTAlUm3/5vc//rMk3R2c73iVtksP0D8XAAAAoKsIGbtJb743AAAAAAAAoCexXRoAAAAAAABAWAgZAQAAAAAAAISFkBEAAAAAAABAWAgZAQAAAAAAAISFkBEAAAAAAABAWAgZgStg4eYNcr6VJYd1ogMLVn+pqsJmLTAP3nWvipc8ouIlj+j3d5knOvb4nEdUPP9OzbBOGB64Y4fKZj2nB6wTAeZrU3qpytJLVTZ5vnUSnfTAHTs8P8v0Hcodbp1tR8yd+ov1O2D6bhQveUTFc0abJnvW43M81/zLTJt1Kjx33aviJWlaGeMdsGnlfOPztfNdlqS8V6pV9co31mEAAAAAQA8gZESPStp8UqveekO+fAChy27Uip9ekGtPhLaYxz96V+kvvKn0stMak9yZIGm07oqVThz6RPusU4axtgjJfUp7rBM+M5U7a47sNUVKLk5V8vtbrQt6sTyN2lalsYsDIturbs+nGUouTtV/HJMmzwo9aJyRGKcId4V2fmQa9H43XijREbdpvA97/PbRUnWF1p71jri1dqvxGTVBiwMCyEBLi6LlHnNWFasvW6cAAAAAAN2MkBHojRzNqkhvkPu9UZqVb500eAOlotPWmaBmzJygMTqtj8yhlBRQmZgxUtLIOSpLL9WmW63rJA2fqXHDm/X+sb4ULvYNez7dJZcidENIIeNozU6yqbnydJuB8ZX256I3lf7Cm/q/e7sx3Yy5U7NipROfBfuO+8NGfwBp4YzQhOIo2X56RruzrZMAAAAAgO5EyAj0Qnlz6mVrjNZLqwdbp7rIphkJNqm6Wn82Dw9/TsXp3srEIrkkuQ6lKrk4VTmfmxd619+gYdYxdKsY20zrUGt3xWqM3Pr0WDcGer3QjMQ4RQQNxjshP1KFJyR7eqPyrHMAAAAAgG4zKDY29nvrYHx8vGpra9XS0mKduqp6632pl9+bNF+pb63QpPpCrdk+Wk8tm6YoY6bhYK5eWmmuSluvR52ZivM9d+vw+rtVWuZfkbT5pB6MPqAtD/1CvgKi5Df01LJpatgRr9ddnv/2XqOVRstrvfcX6X1uvWZn7r9jCzdv0FztkmP7zdq5LMkXmrl2PK3sTd5VDuU7UxRzMF+zV7p8r3WsfVbLp57TdsdGveofVb4zRXbf8yYdWv+clpt+Zgs3b9Dc6HKt2yT9W5vXNDiaVfF0veqKY9uuYuysu+5VcXKkjhQEVn09cMcO/TZRen93hlY0zdem9BSd252hFU3mF5vculFlU2KM9dbJPI3alqkflefq+Iv+Dd5DFldoXFKdXI/N0nnL2mjfc7fO5E9Q/X7fgMG6zhX0fX5UnqvjX2TqnhT/n0L9rjidKfBev+1zApvLc3X8RSn65RUaNdz6/pKmF2hs9jTJ+7mmF2hs9nh9nT9BLalVst9mrGs6oKNPZumi+bUd3r/ZfG1Kn6OYY88r/dO91kkTm1bOT9PEr99tp4q14zWPz3lEs2P9z5vLS1pXIcbcqb9kTVBE4Kgkt++7ZH2fE2Vv6jfWUDDmTv0lK06fFpTozHTTeneFXtza1vb90fr9knt1c7D76izjd0rvjdKEbgvuAQAAAABmVDIOJAmZWrVsvFzr47XGEa81O1yKmrpCj+YY8zllWuXMVNTBXM+8I15bDkqTlp30rwlF2S/0kvH6tyuNUNF4vsYRrzUBAeN6Peo0AsSAa36o1OSAd+34/jsjIUXOZXZ9sv5pORxPa93BJtkzntU66zU7ZASMlbvkcHjey+HYrxtzgjR5iUzS8lbXXKSFlmUL7rsgm6J0pLsCRu+5du4q7Qu6rdTYojv8tit0dqYRvJ0q1AePxRmPUl2XVaAh5mXTCzTWCBC961yn7LJv292qmjIiaYXuSZFcxrqj5W5Fp1Qoerp08cUJxusLVW+Eiv7rxhmB6BbV73dJsisqK/C9h0werwi59fX75pMxbRqVXSW7vJ+hUPXDp2ncWlOtXCfuv1NiRusOW1tbiEMxWr9f8ohmX1+hF1/wbHFOL6iQktICz/c0AkaVl1jOeTytnaYtyt5t0ukFFWr2vzoImyZmPaJZ57zv965O2CZocVtninZntabzOn3cKNkSWwKbKAEAAAAAug0h44Di0tsOU4XgpiOqkhQ1cr6nWjDZLlUWBlQGnl35kg43SnHJPdO8JWZtquLk0ttPLPONea5p06S56wPWtn//nRVYbehcuV8uDded9/sr4UKSfLNiJLnKnaZBp7IfKpB5xMNyzXdcOq9YJQWEpJc1M/GCdOI6LTUPh6Xthi+ecwAl+5RSlc36iYbprE61qlDsZtNH60eS6o+aP+FSnbFUAQ5LnaaIpgOqNlVFnl9ZqHrZdYu1eUvTAR01VQhefP9jNcum60wVdh0qOKJ6SdHjzJtqF8hmt0mnSltXWZ4q1AcrvZ9hqerK3dJtE30BYqfuX5JUqXMh/OyDNnzpBO/ZnDvNFYRnP9HmcrcUO8HXRMW7VXm3r4rQrbWHTnu+T53sau5T/a6pKvG0PqqWdL0taIfo1g1fwjFYe48NlSIvmSqOAQAAAADdiZBxIGmsU23AwDK97oj3hIrJM2WPlBrq/FuDPbaq/KhbihyhWywz4ZuvpHE2qfKIygPGt+psvaTo0YHBZnv331mNLjlN25mlan3VKA0b0ZlUSlLZFzoryZ6xQfkdVVS2umYwlzQiUnLXXWOd6LK2G75I0lblFKfqP455a9ASlNFW0xdJ2aMSpKajcoYQhrVp/2n9r6TolCqNslQN+uUp6jap2bXXsv3YpZYmKeJGS1T09enAdfuzdPwxz3bp0C1VwykFBIWaPlPXD7cGoh7WsYtf1Ekaoeumq/P3L0naq1NuaVjiHLXdoyTchi/G2Zzur3XCMrPvWJWaZdP1N3mej7mhrS3mbn39pXUsNCFXX7bb8KVrttQOkXRRo1uVGAMAAAAAugMhIwI01LQV2I1QTKe3EnfEruhIYxu082TA48EE69reyqlsR74ONXqCRqdzg5zOrmy77imeUKm5vCKw4YvFnk8ztKNGUk2lv7Jxsr9CNHuyp/v0PWdSlbz7We0JeHVnLdWZx3J1pskTNN6zrUr3bPNsbfYxqh0jklYY897HCo0Kqfty15wvPaBm05bpIZPHK6LpgOo6FVZ2/f7z309V8u5zSkkvVVn6xtZh412xGhNQXdhFX7vbDClvjvaEi3/eX6Fmjdasmd6w0aaVU9rbdt99wq3WBAAAAABceYSMCFGdznZYhddZLtU3Sqr0n8cY8Ag4u7E3c2n5Q8Z5jOvLdV7DNWVZLwka75qgibbQz7U77y5STnGqJ3AcmaJcIxDLf9/TcfqDUaUqm/WcHrC+sNO2qP5J41zE/ANqlk2jsk1Bo1HtaD0/0ffwbVPuZvv36usm75Zpz1bp1tWIIeji/WdPLlXZFOml4lQlFy9S4LGcRshn7RDezb6oN74rN12vCEkRSWkqXvKIipekaaLaa9TSXcKt1gQAAAAAXA2EjPAo2ytXoxSXZD0Hsa0tzYFi7h8ftJt0bV17W63b2BYdtvu04k9FKioq0u9+aZ1rQ/Jk3RlpPVvRyi7HuHbK0CSprECzjaAx6I7YDl2jukbJNuKSdaJL2m/4YjZTt9mks25PV+Pj7uAtPPLPVErDx8nRwY/BzzjTsD37s3TcCBr9Zyi2t624q0J5T6MBzG0TNWz6TF0/3NrwpW3Dxtmlpo/l3q8Qr2U1X/eMlM6f2Ru8UjTshi+S5Na+SrcUG6vHLTPeMxg92+q9gea7RpMW49HjAWM3N3wxWXDLRUlDdLq9X3EAAAAAQJcRMsKwVaVlLikhM6Bbc8zapzQp0q3D2/2NWTzB4XglGZV6MWs/1IKpwYOkszV1kuy6d23w5izl2w+oIXKaFmy2hpthuH+GfmzcTvz4edbZIOxal5OkYY3l+tsm75hxRuO4yUaXaLvWvZWtKZHm10nKWaSdawODJMf9dg1Tk76yHm8ZEqNBxZgWmduPdIn3XLsgDV9aS/B0mJak4c/pqcQIqWaXVnTq7EUjWLPPNLpEL1D0y0G2B2ft1lhL4xNvB+eWau+IN+zLbLW267ao5WtJt6UGbs22Kjiietllz56miGANX4LJ2i37bVL9fm/zmu6//8enT+iWLcT79lbohEZrtqWT9BNJ5m31bp35uu2mLD3HG252V8MXL6OhUuM16tKvJQAAAACgQ4NiY2O/tw7Gx8ertrZWLS0t1qmrqrfel3r5vUnzlfrWCk3SAW3paAtyTplWZZhDM5fediS3qmJM2mw6N7HxgLY8dFrJzkxpR7xe9wV1Hq1CyEbrfazXo85MxflXSJKqfO/VifuXjErGX+v/2KSTb8/Rv/8pcHbh5g2aaz3zsXKXHE9YS5wcynem+LrRnj+Yr9k1KXJmSNsdG/Wqd9XaZ7V8qjlJqw6Yl/ea0eVaZ+46nZylncuSdHbH08o2/8wczap4ul51xbGaFbhftlNmzEzT4qRG7Xzh3Ta312ZPLlXGSOuodP7Y80r/1FPVGODWjSqbEqP3d2e0EUDmadS2TEUbz5rLc3X8i0zdkyK5TN2fhyyu0LgkczDtCpj3mV6gsdnTFBEw6NaZ/AlG+GdcL6DTc3taB5/N5bk6buoALUnD1lZ5QsNdQZrHdHhPJp1Zq/nalD5HMUF/9qP1+yX36ubyElN35tYen/OIZrfRu+hE2Zv6jS+g9LzfmDbnFXSNl39t22uk0/7vXsyd+kvWBH1hucbjcx7R7OtNW7DbWBe2bvqdAgAAAAC0jZCxm/Tme0OgoIFfL5P3SrUyx0SpMCVSoURnrdm0cn6a7qhsP5TyuXWjyqZIO1qdA2jRYcjYP3hCxvaDz/8NFkCGpZ2Q8a57VZysdgPj7mWEh+7WZzB6gky3jhSUdHO1oRGMJ1S1uma48l6pVuaN0crNjFBom98BAAAAAJ3FdmmgF1paFC23GpT5yjfWqdB0suHLA7YYqemcjlsnrJrOtQ7d+p08Rd0mNZcX9pLPemUavgSIselmKWjzlRPnQvtOdV4PNXzJblTmGMm1h4ARAAAAAHoSISPQGzkjNKE4ShpzVhWrL1tnO/bRu0p/IfRKsz2fZih597PBG46YNZ3SWUVocmLwMzb7vgWKfjlT0U0HVG3ZQt3THrgjRXY162iNdau0W2u3vqn0onAavnTSWbe+kBSRMDrwTEbj7MbQmgl11mn95oU3Q6u8DZWjWRXpDXK/N4pt0gAAAADQwwgZgd4qP1K57w2VLbFF3dM6pDtsVU5xkVwj56gsvVRlk/tL2JinUduqdM+2FRqlAzr6pLeBS8974I4dKksv1W8TI+Q61Fu2oZ/Wb154VydsE7R4ySMq9j6yJkjlJVemy3Q3yJtTL9uJGE1YPdg6BQAAAADoZpzJ2E16870BAAAAAAAAPYlKRgAAAAAAAABhIWQEAAAAAAAAEBZCxm5y8uRJtkoDAAAAAABgQCJkBAAAAAAAABAWQkYAAAAAAAAAYSFkBAAAAAAAABAWQsZuladLq6vUsrpKLY/mWScBAAAAAACAfomQsVst1TWr43Td6kJdk5BJ0AgAAAAAAIABgZCxRyzV4ENu6cbR+t46BQAAAAAAAPQzhIw9KWoEISMAAAAAAAD6PUJGAAAAAAAAAGEhZAQAAAAAAAAQFkLGHjKors46BAAAAAAAAPRLhIw9pbZOg2XX5dQF1hkAAAAAAACgXyFk7CmfZ+na1XEaHL1CLaur9C1hIwAAAAAAAPopQsaecmuBvl1dpe+Oxum61XG6tnSLdQUAAAAAAADQLxAy9pDv7x6vy3LpB0esMwAAAAAAAED/QsgIAAAAAAAAICyEjAAAAAAAAADCQsgIAAAAAAAAICyEjAAAAAAAAADCQsjYI/J0eYpNqjzCDxgAAAAAAAD9HhlYt8rTpdVValmdqUsNB/TD15daFwAAAAAAAAD9zqDY2NjvrYPx8fGqra1VS0uLdeqq6q33BQAAAAAAAAxkVDICAAAAAAAACAshIwAAAAAAAICwEDICAAAAAAAACAshIwAAAAAAAICwEDICAAAAAAAACAshIwAAAAAAAICwEDICAAAAAAAACAshIwAAAAAAAICwEDICAAAAAAAACAshIwAAAAAAAICwEDICAAAAAAAACAshIwAAAAAAAICwEDICAAAAAAAACAshIwAAAAAAAICwEDICAAAAAAAACAshIwAAAAAAAICwEDICAAAAAAAACAshIwAAAAAAAICwEDICAAAAAAAACAshIwAAAAAAAICwEDICAAAAAAAACAshIwAAAAAAAICwEDICAAAAAAAACAshIwAAAAAAAICwEDICAAAAAAAACAshIwAAAAAAAICwEDICAAAAAAAACAshIwAAAAAAAICwEDICAAAAAAAACAshIwAAAAAAAICwEDJi4Jq3WHf/7Q+6e+tjGmKd62+Ss7TTuUFO5yIttM5ddQt0+ddV+jZ1gXWij+uvnwsAAAAAgNYIGXu5X6S9poKsJZpmnQB6KcfaZzsVZn736Ap9G+XS4NIt1qk+bosG/92ly1NW6NJE6xwAAAAAAP3LoNjY2O+tg/Hx8aqtrVVLS4t16qrqrffVk36R9prSIj/UxoIXdMA62ZvNW6y70+Kso7pw+GUdf/4z6zD6EcfaZ7V86jltd2zUq9ZJi+9TK/TNFOnazRM0+HPrbP8wED4jAAAAAABUMqIHuVWz8Vf68GHjUVKloZOeHBjbkxGCPF2eYtPgQy/16/BtUOlLurbBpm8fLlCrf9EBAAAAAKCfoJKxOyU+p4IZN+mDt3JUM/k1pY3yTlSrJP9ZvdFqbaz/+ZlSZZX81fPfNy3R1ofu1lD/bKAmf2Vj0EpH4/V1++Zp+TFJmqpnshbqnsZSZb1/a8B7X/j4Vc3ff1CSNG36Ji2KPa6NBZ/rwexUeesQzWtCNm+x7k67QTUbV6l+n394yDNrlDjJpvqSX6nmtcB1LQ/+QQm+4scqVT78os77X+p7rU9ViT585n+MJ7creuuTuv6zl1Ub/aQS4oyqyS/SjIpKt/9erFWWAe8TqP1renmuPdK3zHStTnEo35mimIP5ml2TImeG//vh2vG0sjeZ19q17q1sTYn0Pm/SofXPaXmZ97nnvey+9YbGcq17qEBOy7Cn+nC47/n5g/mavdIVsEbtrmvjej7VrSobPRV+dRqyelY7/9qxXo86M33fRcmltx3JKrfMRx3M1Us1mVqV4b+Dqh3xet37M8sp06qMETq8/m6dnXtSDyZ4V1nfT4pZ+6EWTDX9mVcWas0Ty0wrQrym2cTdavkXu6757zhdc8Q66THv90X6eVyz/vHHx5T7jnUWAAAAAIDere2/26OLhuqeh15TmkqVlT9PWfmv6oOmWKWZzlWcNn2TEUbOM9aUqmpUqgrS/tWz4MsXND/fM1dyxggVjedZ+fOU1dWt06NSVfDQWH3mve6+ag0dv1DrEk1rht+tRdn3q6G9NWG4+MU565Akm0Yu+oMSVGJUPb6sGnecEnwVj7creusflDjpnCq9VZEPl6g+Lq11VeTtj+qW+pd17LBbQ29/VGPTpMqHS1Qvm67/6e2eNa+9aLqO+cWBPAGjAqoxj9Xfp5HzzKt+ppF/e1Ijz3nv/Vc6dlgauWiNomeY14Vu2NRsOTOk7Y6n5XA8rXUHm2TPeFbrkr0rHMp3ZmtK/S45fGukKcvMa5zKNua8j+2VvksEWLh5g7G92Vi7vlyamq2da82RoV3r3tqg5VOlQ+v97/lHpRjX9F9v3cEmI1Q0X9+6dXqBvvuxTao80vb/hJLf0FNGmLfGEa81jni9XWnXg84yJVmWRk1doVUZ0tvGui0H3YrL+FCpvp+HJNk0adlJPahC4/1ydbjRrgffekMxkqT5Sn3rpBZMrfO9zxpHoaoSMrXKt8YvtGsajhzRNZIujcuzzhjm6a44SYrQj6feZ50EAAAAAKDXa/Pv9+i6Cx+/6q9K1EG9W31BGh6leEnSv+rB8UN14eNtev5L7yv+quX7qqVR9+uZm7xjPaFaJfk5/useO6oqSSNumBqwqmpfx2u6asjNN0hy65uTgeMXDr9sqhD8TO7P3JLtRk+AOC9NI21u1Ww0Vzb+j2pKqiTbRN1kCv2G2s6p1nvmo82mCyX+1wyNbn1GZHuGRNsk93G5TRWJF59f5anA9K555j5Fq0qVpurGi8+/rhq3TSMf/Jl/YWc0lmudKZRzvuPSeQ3XjUbm51g7XXZVa/sT/npE58oCHWocrilzHb6xkCRnKTVBcu0whYBlBfrjwSYNm5rib96Sk6IpkdZqScm5cmPA85DdOlPfRUnXHF1qnfFJmjtNUY0HtH3lVt9Y+ROFqpJd966dH7BWjQe0xVSRePadj9Ugm6ItpZUNB3NNVYlbVX7ULUWO0C2SlJOpSZFuHV5vrmxcptd3uKTIaUrO8Q16hHhNj6X6QaWkG0e3sWX6NX1UJUnN+ufBv1snAQAAAADo9QgZe0DducCtxQf25yjLu106cZzidEGffWbZflzfoAsaqqjowOFu1dSgwGzvr1qeP8+yFbpanxwzPe1O8xYrcZJNFw6/3mor8YUvApvBXHx+lT40tksPuzNO0jm1WLcfv/aJ6iUNvdmoUJSkqk9MQWTrMLMzLta7JdtEJVqrJX1ul+12m+WakvSZWs5JuiGmjdd1oP6LwO3MZQWa7fBul7bLMW64VHnMUhno0ql6SdE3qzMxo+N+u4apWuWWLb7OmnOSbtBtRlXewqRYqdElZ1cCxWBuGaHLcmtQrXXCa73GJ0gNR/fqbMC4S/WNUtQIS5JXfzpwXdkv9JKj9dblhhp/YClJZ1ferTVGUJiUZJdUp7PWz7jpiKokRY20BJshXtNrUL1bihrRRsgovfabOZozh63SAAAAAIC+iZDxCpt2w02+LdUF2aZHe2cw9lmebdB3/814pN2gmo2/6lp3afdXumgdM3S2QjFUF59fpQ+NaslE72d43lydGKcf2iTFpfk/o/Hwny3Z3WJ1Y6SkhBQ5nRsCHnN95wyGbuyI4ZJiNdfyXubzICW7bosOEn72pOTRivJuSXaeND1WaJLvHMoe0FintnLPVsEmAAAAAADwIWS8wg6c+1LSBdN5jIEPT6OW/sLSXfrhrjRD6diF+irrUPfxnd/4K1VWGYGiL2is0jduoxmM7zOaHvO3tRmMdl21vmqUVOk/jzHgEaSpS3uO1wU7P9H78G6N7lqVZFjKTqvBu73Zdz6i6RHQiOXKaKhr3QgHAAAAAAB4EDJeaZ3cFn2ywXyeY2im3T62X1VFnv+kSrKNlc3aSGXenYqWW1+/14XKyC44/4wRNPq2QXdhW/Qvf6eioiIV/WmFutbeo3sDP+u26LYcr2uSIu1ydLBOob5nbZ0Gy6bvb7FOeLWxLboHlZe7pMjxSrLed85Exckt1zuBW6076/tom9RQp0HWCcN9y7apqKhI25Z17ZsBAAAAAMDVRMh4pX35gvaekeJmbAqpyYun8jFWM6cHb7ziCSHH6l7jvaZN36RF4/tTxCjptRJPI5XHzGcj/kwj0+Kkqr/3SHWkp6P1Yg0LGPuZIuMknTvrq1A8//YRXbBNVGLANuq2zRtvxMW2H2vG/dbZ0Ly6vVznI5O0fHM3xIybdnkaxixb5G/yEoRz5X651HqdY+0iU0drg+uczquDJjSf79UPGtrrtrxVpWUuKSFTT1mbvPSUTYU63GjTpBxzJ+n1ejTDLlWWqtR6VmOn5Om7BElfnW4jZLxPM34cIUmK+MlsBTQwBwAAAACgDyBkvAreKJmnjR+r9bmMWUs0zbr42LPa+PEFDR2/MOi6A/tzVHLGf8bjotjj2phfqh7cQHwVfKb6+S+rRqazEf+WpqEBHalDN+x573s8qZGWMxVH+tKdz1Q//xNFBpy1GOSa+7bp+MMlqg9yLqP/vfxe+9joROP+p/Z1tcFHWYFmO3bJFeRcxnxrB+QOubT8oae1vTLIuYwBIaZT2Y58HWoMXPdv2tW6u3RZgWbvqLacG2kNMbfoB/90SwkT9V3AuMmmZK1Zf0BqdS7jh0q1BpvdYqtKH8rVYU3TAt+1MhUV0JG6iyZO1CW5da2zrW7af1fuPm+XohEa1cUAGgAAAACAq2VQbGxsq2an8fHxqq2tVUtLi3Xqquqt9wX0BQs3b9Dc6HKt6+S5jT0nT5dWZ+pSZaGue72t8K0/WKDLv16hb7/q6HPO0++Kfq549z/0n7/M1d+t0wAAAAAA9GJUMgIDgkNJCVe4Q3SHlmrwIbeUkKlLE61z/cf3qU/p26j2qhg97lvmULykk/sIGAEAAAAAfQ8hI9Af5SwK2DrtWDtddjXp0PbeEzFK0qDSCRpSKV36lwpdvtU62w9M3K1vpth0zX9P0ODPrZMGoxnQr39Sp/+aM0f//ifrAgAAAAAAej+2SwP91MLNGzQ3wfusSYfWP9f6/MRewbOd+Lt/5ura0i3WyT6sv34uAAAAAABaI2QEAAAAAAAAEBa2SwMAAAAAAAAIS58KGU+ePEkVIwAAAAAAANDL9KmQEQAAAAAAAEDvQ8gIAAAAAAAAICyEjAAAAAAAAADC0idDxgfu2KGy9FKVpe9Q7nDrLAAAAAAAAIArqU+GjHs+zVBycar+45g0eRZBIwAAAAAAAHA19cmQ0WvPp7vkUoRuIGQEAAAAAAAArpo+HTJ6xdhmWocAAAAAAAAAXCH9ImQEAAAAAAAAcPUQMgIAAAAAAAAISx8PGSt1rsk6BgAAAAAAAOBK6uMh416dckvDEuco2zoFAAAAAAAA4Iro4yGjlP9+qpJ3n1NKeqnK0jcSNgIAAAAAAABXWJ8PGbMnl6psivRScaqSixcp37oAAAAAAAAAQI/q4yHjfN0zUjp/Zq/2WKcAAAAAAAAAXBF9PGQEAAAAAAAAcLURMgIAAAAAAAAICyEjAAAAAAAAgLAQMgIAAAAAAAAIS58OGR+4I0V2NetozV7rFAAAAAAAAIArpE+GjA/csUNl6aX6bWKEXIcytKLJugIAAAAAAADAlTIoNjb2e+tgfHy8amtr1dLSYp0CAAAAAAAAgAB9spIRAAAAAAAAQO9ByAgAAAAAAAAgLEG3SwMAAAAAAABAqKhkBAAAAAAAABAWQkYAAAAAAAAAYSFkBAAAAAAAABCWdkPGvFeqVfXKN9ZhAAAAAAAAAPBpN2RcWhQt95izqlh92ToFAAAAAAAAAFJHIaOcEZpQHCXbT89od7Z1EgAAAAAAAAA6ChklKT9ShScke3qj8qxzAAAAAAAAAAa8jkNG77ZpNSiVbdMAAAAAAAAALEIKGeW8Th83SrbEFi2wzgEAAAAAAAAY0EILGTVYe48NlSIvyW6dAgAAAAAAADCghRgySltqh0i6qNEO6wwAAAAAAACAgSzkkBEAAAAAAAAAgiFkBAAAAAAAABCWkEPGBbdclDREp53WGQAAAAAAAAADWYgh42XNTLwgNV4jl3UKAAAAAAAAwIAWUsiY98oZTVO0cjMjtMU6CQAAAAAAAGBA6zhkzG5U5hjJtYeAEQAAAAAAAEBr7YeMjmZVpDfI/d4ozcq3TgIAAAAAAACA9P8BnHiU6j768Q0AAAAASUVORK5CYII=;" vertex="1" parent="1">
          <mxGeometry x="860.076960637019" y="1048.5384239783652" width="1305" height="852" as="geometry" />
        </mxCell>
        <mxCell id="ChmT9JW-dPrSVRXd18jT-4" value="Interceptor used for making requests to the backend" style="text;html=1;align=center;verticalAlign=middle;whiteSpace=wrap;rounded=0;fontSize=18;" vertex="1" parent="1">
          <mxGeometry x="1373" y="1066" width="238" height="57" as="geometry" />
        </mxCell>
        <mxCell id="ChmT9JW-dPrSVRXd18jT-5" value="" style="endArrow=classic;html=1;rounded=0;strokeColor=#FF0000;" edge="1" parent="1">
          <mxGeometry width="50" height="50" relative="1" as="geometry">
            <mxPoint x="1392" y="1097" as="sourcePoint" />
            <mxPoint x="1203" y="1065" as="targetPoint" />
          </mxGeometry>
        </mxCell>
        <mxCell id="ChmT9JW-dPrSVRXd18jT-6" value="" style="endArrow=classic;html=1;rounded=0;strokeColor=#FF0000;" edge="1" parent="1">
          <mxGeometry width="50" height="50" relative="1" as="geometry">
            <mxPoint x="1594" y="1209" as="sourcePoint" />
            <mxPoint x="1497" y="1163" as="targetPoint" />
          </mxGeometry>
        </mxCell>
        <mxCell id="ChmT9JW-dPrSVRXd18jT-7" value="Attaches the access token to the HTTP request headers to authenticate the client for secure communication." style="text;html=1;align=center;verticalAlign=middle;whiteSpace=wrap;rounded=0;fontSize=18;" vertex="1" parent="1">
          <mxGeometry x="1582" y="1150" width="238" height="94" as="geometry" />
        </mxCell>
        <mxCell id="ChmT9JW-dPrSVRXd18jT-8" value="" style="endArrow=classic;html=1;rounded=0;strokeColor=#FF0000;" edge="1" parent="1">
          <mxGeometry width="50" height="50" relative="1" as="geometry">
            <mxPoint x="1358" y="1294" as="sourcePoint" />
            <mxPoint x="1220" y="1279" as="targetPoint" />
          </mxGeometry>
        </mxCell>
        <mxCell id="ChmT9JW-dPrSVRXd18jT-9" value="Rejects the Promise if it encounters an error when making the request" style="text;html=1;align=center;verticalAlign=middle;whiteSpace=wrap;rounded=0;fontSize=18;" vertex="1" parent="1">
          <mxGeometry x="1340" y="1277" width="238" height="57" as="geometry" />
        </mxCell>
        <mxCell id="ChmT9JW-dPrSVRXd18jT-10" value="Interceptors for responses from the backend" style="text;html=1;align=center;verticalAlign=middle;whiteSpace=wrap;rounded=0;fontSize=18;" vertex="1" parent="1">
          <mxGeometry x="1373" y="1373" width="212" height="57" as="geometry" />
        </mxCell>
        <mxCell id="ChmT9JW-dPrSVRXd18jT-11" value="" style="endArrow=classic;html=1;rounded=0;strokeColor=#FF0000;" edge="1" parent="1">
          <mxGeometry width="50" height="50" relative="1" as="geometry">
            <mxPoint x="1396" y="1408" as="sourcePoint" />
            <mxPoint x="1207" y="1376" as="targetPoint" />
          </mxGeometry>
        </mxCell>
        <mxCell id="ChmT9JW-dPrSVRXd18jT-13" value="" style="edgeStyle=orthogonalEdgeStyle;endArrow=classic;html=1;rounded=0;endSize=8;startSize=8;fontColor=#FF0000;strokeColor=#ff0000;" edge="1" parent="1">
          <mxGeometry width="50" height="50" relative="1" as="geometry">
            <mxPoint x="1593" y="1469" as="sourcePoint" />
            <mxPoint x="1071" y="1532" as="targetPoint" />
            <Array as="points">
              <mxPoint x="1072" y="1469" />
              <mxPoint x="1072" y="1532" />
            </Array>
          </mxGeometry>
        </mxCell>
        <mxCell id="ChmT9JW-dPrSVRXd18jT-14" value="If the error gotten is a 401 Unauthorized error, one reason for it could be an expired access token. Therefore, it refreshes the token and makes the request again" style="text;html=1;align=center;verticalAlign=middle;whiteSpace=wrap;rounded=0;fontSize=18;" vertex="1" parent="1">
          <mxGeometry x="1590" y="1406.04" width="212" height="137" as="geometry" />
        </mxCell>
        <mxCell id="ChmT9JW-dPrSVRXd18jT-15" value="" style="edgeStyle=orthogonalEdgeStyle;endArrow=classic;html=1;rounded=0;endSize=8;startSize=8;fontColor=#FF0000;strokeColor=#ff0000;" edge="1" parent="1">
          <mxGeometry width="50" height="50" relative="1" as="geometry">
            <mxPoint x="1731" y="1680" as="sourcePoint" />
            <mxPoint x="1106" y="1721" as="targetPoint" />
            <Array as="points">
              <mxPoint x="1628" y="1680" />
              <mxPoint x="1107" y="1680" />
              <mxPoint x="1107" y="1721" />
            </Array>
          </mxGeometry>
        </mxCell>
        <mxCell id="ChmT9JW-dPrSVRXd18jT-16" value="The request was made again with the new access token. The second 401 error implies that the refresh token is expired, and need to be logged in again" style="text;html=1;align=center;verticalAlign=middle;whiteSpace=wrap;rounded=0;fontSize=18;" vertex="1" parent="1">
          <mxGeometry x="1740" y="1599" width="212" height="137" as="geometry" />
        </mxCell>
        <mxCell id="ChmT9JW-dPrSVRXd18jT-17" value="" style="edgeStyle=orthogonalEdgeStyle;endArrow=classic;html=1;rounded=0;endSize=8;startSize=8;fontColor=#FF0000;strokeColor=#ff0000;" edge="1" parent="1">
          <mxGeometry width="50" height="50" relative="1" as="geometry">
            <mxPoint x="1709" y="1795" as="sourcePoint" />
            <mxPoint x="1084" y="1836" as="targetPoint" />
            <Array as="points">
              <mxPoint x="1606" y="1795" />
              <mxPoint x="1085" y="1795" />
              <mxPoint x="1085" y="1836" />
            </Array>
          </mxGeometry>
        </mxCell>
        <mxCell id="ChmT9JW-dPrSVRXd18jT-18" value="If there was any error, the Promise is rejected and sent back to the calling code for it to handle." style="text;html=1;align=center;verticalAlign=middle;whiteSpace=wrap;rounded=0;fontSize=18;" vertex="1" parent="1">
          <mxGeometry x="1711" y="1738" width="212" height="137" as="geometry" />
        </mxCell>
      </root>
    </mxGraphModel>
  </diagram>
</mxfile>
